CalistogaAD-Regular.ufo
<glyph name="numbersign" format="1">
  <advance width="722"/>
  <unicode hex="0023"/>
  <outline>
    <contour>
      <point x="158" y="-1" type="line" name="hr00"/>
      <point x="188" y="-1"/>
      <point x="229" y="4"/>
      <point x="253" y="14" type="curve"/>
      <point x="362" y="712" type="line"/>
      <point x="332" y="712"/>
      <point x="290" y="707"/>
      <point x="268" y="698" type="curve"/>
    </contour>
    <contour>
      <point x="361" y="-1" type="line"/>
      <point x="390" y="-1"/>
      <point x="431" y="4"/>
      <point x="455" y="14" type="curve"/>
      <point x="564" y="712" type="line"/>
      <point x="535" y="712"/>
      <point x="494" y="707"/>
      <point x="471" y="698" type="curve"/>
    </contour>
    <contour>
      <point x="604" y="205" type="line"/>
      <point x="617" y="226"/>
      <point x="627" y="256"/>
      <point x="631" y="285" type="curve"/>
      <point x="89" y="286" type="line"/>
      <point x="76" y="264"/>
      <point x="66" y="234"/>
      <point x="62" y="204" type="curve"/>
    </contour>
    <contour>
      <point x="633" y="423" type="line"/>
      <point x="646" y="445"/>
      <point x="656" y="474"/>
      <point x="660" y="503" type="curve"/>
      <point x="118" y="504" type="line"/>
      <point x="106" y="482"/>
      <point x="95" y="451"/>
      <point x="91" y="423" type="curve"/>
    </contour>
  </outline>
</glyph>
<glyph name="percent" format="1">
  <advance width="1078"/>
  <unicode hex="0025"/>
  <outline>
    <contour>
      <point x="377" y="-106" type="curve"/>
      <point x="775" y="707" type="line"/>
      <point x="756" y="724"/>
      <point x="727" y="738"/>
      <point x="701" y="739" type="curve"/>
      <point x="304" y="-73" type="line"/>
      <point x="323" y="-92"/>
      <point x="353" y="-105"/>
    </contour>
    <contour>
      <point x="272" y="242" type="curve" smooth="yes"/>
      <point x="385" y="242"/>
      <point x="461" y="306"/>
      <point x="461" y="467" type="curve" smooth="yes"/>
      <point x="461" y="627"/>
      <point x="387" y="692"/>
      <point x="273" y="692" type="curve" smooth="yes"/>
      <point x="159" y="692"/>
      <point x="84" y="627"/>
      <point x="84" y="467" type="curve" smooth="yes"/>
      <point x="84" y="308"/>
      <point x="158" y="242"/>
    </contour>
    <contour>
      <point x="272" y="300" type="curve" name="hr00" smooth="yes"/>
      <point x="245" y="300"/>
      <point x="223" y="330"/>
      <point x="223" y="467" type="curve" smooth="yes"/>
      <point x="223" y="609"/>
      <point x="246" y="633"/>
      <point x="273" y="633" type="curve" smooth="yes"/>
      <point x="300" y="633"/>
      <point x="323" y="609"/>
      <point x="323" y="469" type="curve" smooth="yes"/>
      <point x="323" y="330"/>
      <point x="300" y="300"/>
    </contour>
    <contour>
      <point x="805" y="-53" type="curve" smooth="yes"/>
      <point x="918" y="-53"/>
      <point x="994" y="12"/>
      <point x="994" y="172" type="curve" smooth="yes"/>
      <point x="994" y="331"/>
      <point x="920" y="397"/>
      <point x="805" y="397" type="curve" smooth="yes"/>
      <point x="692" y="397"/>
      <point x="617" y="333"/>
      <point x="617" y="172" type="curve" smooth="yes"/>
      <point x="617" y="13"/>
      <point x="690" y="-53"/>
    </contour>
    <contour>
      <point x="805" y="6" type="curve" smooth="yes"/>
      <point x="777" y="6"/>
      <point x="755" y="35"/>
      <point x="755" y="173" type="curve" smooth="yes"/>
      <point x="755" y="314"/>
      <point x="778" y="339"/>
      <point x="805" y="339" type="curve" smooth="yes"/>
      <point x="832" y="339"/>
      <point x="855" y="314"/>
      <point x="855" y="174" type="curve" smooth="yes"/>
      <point x="855" y="35"/>
      <point x="832" y="6"/>
    </contour>
  </outline>
</glyph>
<glyph name="ampersand" format="1">
  <advance width="806"/>
  <unicode hex="0026"/>
  <outline>
    <contour>
      <point x="134" y="548" type="curve" name="hr00" smooth="yes"/>
      <point x="134" y="488"/>
      <point x="156" y="427"/>
      <point x="258" y="390" type="curve"/>
      <point x="96" y="360"/>
      <point x="71" y="269"/>
      <point x="71" y="198" type="curve" smooth="yes"/>
      <point x="71" y="87"/>
      <point x="203" y="-8"/>
      <point x="410" y="-8" type="curve" smooth="yes"/>
      <point x="609" y="-8"/>
      <point x="705" y="78"/>
      <point x="705" y="175" type="curve" smooth="yes"/>
      <point x="705" y="239"/>
      <point x="661" y="318"/>
      <point x="591" y="335" type="curve"/>
      <point x="621" y="365"/>
      <point x="649" y="371"/>
      <point x="683" y="371" type="curve" smooth="yes"/>
      <point x="711" y="371"/>
      <point x="742" y="370"/>
      <point x="781" y="367" type="curve"/>
      <point x="785" y="375"/>
      <point x="786" y="390"/>
      <point x="786" y="398" type="curve" smooth="yes"/>
      <point x="786" y="415"/>
      <point x="786" y="456"/>
      <point x="731" y="456" type="curve" smooth="yes"/>
      <point x="675" y="456"/>
      <point x="642" y="434"/>
      <point x="606" y="410" type="curve" smooth="yes"/>
      <point x="563" y="381"/>
      <point x="515" y="350"/>
      <point x="420" y="350" type="curve"/>
      <point x="407" y="336"/>
      <point x="398" y="308"/>
      <point x="398" y="286" type="curve" smooth="yes"/>
      <point x="398" y="284"/>
      <point x="398" y="281"/>
      <point x="398" y="278" type="curve"/>
      <point x="475" y="278"/>
      <point x="531" y="239"/>
      <point x="531" y="171" type="curve" smooth="yes"/>
      <point x="531" y="98"/>
      <point x="468" y="65"/>
      <point x="398" y="65" type="curve" smooth="yes"/>
      <point x="305" y="65"/>
      <point x="257" y="129"/>
      <point x="257" y="206" type="curve" smooth="yes"/>
      <point x="257" y="284"/>
      <point x="279" y="381"/>
      <point x="397" y="381" type="curve"/>
      <point x="397" y="427" type="line"/>
      <point x="334" y="456"/>
      <point x="303" y="507"/>
      <point x="303" y="559" type="curve" smooth="yes"/>
      <point x="303" y="609"/>
      <point x="349" y="646"/>
      <point x="418" y="646" type="curve" smooth="yes"/>
      <point x="458" y="646"/>
      <point x="492" y="634"/>
      <point x="518" y="612" type="curve"/>
      <point x="488" y="603"/>
      <point x="473" y="582"/>
      <point x="473" y="558" type="curve" smooth="yes"/>
      <point x="473" y="525"/>
      <point x="503" y="496"/>
      <point x="550" y="496" type="curve" smooth="yes"/>
      <point x="595" y="496"/>
      <point x="635" y="522"/>
      <point x="635" y="571" type="curve" smooth="yes"/>
      <point x="635" y="640"/>
      <point x="556" y="707"/>
      <point x="398" y="707" type="curve" smooth="yes"/>
      <point x="233" y="707"/>
      <point x="134" y="632"/>
    </contour>
  </outline>
</glyph>
<glyph name="quotesingle" format="1">
  <advance width="301"/>
  <unicode hex="0027"/>
  <outline>
    <contour>
      <point x="112" y="804" type="curve" name="hr00"/>
      <point x="104" y="743"/>
      <point x="75" y="520"/>
      <point x="60" y="450" type="curve"/>
      <point x="73" y="439"/>
      <point x="88" y="434"/>
      <point x="101" y="434" type="curve" smooth="yes"/>
      <point x="118" y="434"/>
      <point x="134" y="444"/>
      <point x="149" y="458" type="curve" smooth="yes"/>
      <point x="172" y="481"/>
      <point x="237" y="680"/>
      <point x="244" y="734" type="curve" smooth="yes"/>
      <point x="245" y="746"/>
      <point x="246" y="757"/>
      <point x="246" y="767" type="curve" smooth="yes"/>
      <point x="246" y="804"/>
      <point x="233" y="820"/>
      <point x="182" y="820" type="curve" smooth="yes"/>
      <point x="156" y="820"/>
      <point x="123" y="812"/>
    </contour>
  </outline>
</glyph>
<glyph name="parenleft" format="1">
  <advance width="442"/>
  <unicode hex="0028"/>
  <outline>
    <contour>
      <point x="208" y="332" type="curve" name="hr00" smooth="yes"/>
      <point x="208" y="520"/>
      <point x="285" y="732"/>
      <point x="405" y="767" type="curve"/>
      <point x="405" y="810" type="line"/>
      <point x="181" y="801"/>
      <point x="42" y="571"/>
      <point x="42" y="332" type="curve" smooth="yes"/>
      <point x="42" y="93"/>
      <point x="181" y="-137"/>
      <point x="405" y="-146" type="curve"/>
      <point x="405" y="-104" type="line"/>
      <point x="285" y="-68"/>
      <point x="208" y="144"/>
    </contour>
  </outline>
</glyph>
<glyph name="parenright" format="1">
  <advance width="442"/>
  <unicode hex="0029"/>
  <outline>
    <contour>
      <point x="234" y="332" type="curve" name="hr00" smooth="yes"/>
      <point x="234" y="144"/>
      <point x="157" y="-68"/>
      <point x="37" y="-104" type="curve"/>
      <point x="37" y="-146" type="line"/>
      <point x="261" y="-137"/>
      <point x="400" y="93"/>
      <point x="400" y="332" type="curve" smooth="yes"/>
      <point x="400" y="571"/>
      <point x="261" y="801"/>
      <point x="37" y="810" type="curve"/>
      <point x="37" y="767" type="line"/>
      <point x="157" y="732"/>
      <point x="234" y="520"/>
    </contour>
  </outline>
</glyph>
<glyph name="asterisk" format="1">
  <advance width="592"/>
  <unicode hex="002A"/>
  <outline>
    <contour>
      <point x="287" y="1035" type="line" name="hr01" smooth="yes"/>
      <point x="237" y="1035"/>
      <point x="214" y="1005"/>
      <point x="214" y="968" type="curve" smooth="yes"/>
      <point x="214" y="955"/>
      <point x="217" y="942"/>
      <point x="222" y="929" type="curve" smooth="yes"/>
      <point x="285" y="779" type="line"/>
      <point x="322" y="779" type="line"/>
      <point x="327" y="1035" type="line"/>
    </contour>
    <contour>
      <point x="56" y="853" type="line" smooth="yes"/>
      <point x="53" y="843"/>
      <point x="52" y="833"/>
      <point x="52" y="825" type="curve" smooth="yes"/>
      <point x="52" y="780"/>
      <point x="92" y="754"/>
      <point x="138" y="758" type="curve" smooth="yes"/>
      <point x="301" y="772" type="line"/>
      <point x="313" y="807" type="line"/>
      <point x="69" y="891" type="line"/>
    </contour>
    <contour>
      <point x="162" y="576" type="line" smooth="yes"/>
      <point x="179" y="563"/>
      <point x="195" y="558"/>
      <point x="209" y="558" type="curve" smooth="yes"/>
      <point x="242" y="558"/>
      <point x="269" y="586"/>
      <point x="278" y="623" type="curve" smooth="yes"/>
      <point x="317" y="783" type="line"/>
      <point x="286" y="804" type="line"/>
      <point x="131" y="599" type="line"/>
    </contour>
    <contour>
      <point x="462" y="596" type="line" smooth="yes"/>
      <point x="485" y="613"/>
      <point x="496" y="633"/>
      <point x="496" y="653" type="curve" smooth="yes"/>
      <point x="496" y="678"/>
      <point x="480" y="705"/>
      <point x="453" y="721" type="curve" smooth="yes"/>
      <point x="313" y="805" type="line" name="hr02"/>
      <point x="283" y="783" type="line"/>
      <point x="431" y="574" type="line"/>
    </contour>
    <contour>
      <point x="528" y="882" type="line" smooth="yes"/>
      <point x="516" y="919"/>
      <point x="492" y="936"/>
      <point x="465" y="936" type="curve" smooth="yes"/>
      <point x="446" y="936"/>
      <point x="425" y="928"/>
      <point x="407" y="912" type="curve" smooth="yes"/>
      <point x="285" y="804" type="line"/>
      <point x="296" y="769" type="line"/>
      <point x="540" y="846" type="line"/>
    </contour>
  </outline>
</glyph>
<glyph name="plus" format="1">
  <advance width="629"/>
  <unicode hex="002B"/>
  <outline>
    <contour>
      <point x="60" y="381" type="line" name="hr00"/>
      <point x="53" y="369"/>
      <point x="50" y="346"/>
      <point x="50" y="322" type="curve" smooth="yes"/>
      <point x="50" y="303"/>
      <point x="52" y="281"/>
      <point x="58" y="267" type="curve"/>
      <point x="571" y="267" type="line"/>
      <point x="577" y="279"/>
      <point x="579" y="300"/>
      <point x="579" y="322" type="curve" smooth="yes"/>
      <point x="579" y="344"/>
      <point x="577" y="367"/>
      <point x="571" y="381" type="curve"/>
    </contour>
    <contour>
      <point x="257" y="69" type="line"/>
      <point x="270" y="62"/>
      <point x="294" y="60"/>
      <point x="316" y="60" type="curve" smooth="yes"/>
      <point x="336" y="60"/>
      <point x="358" y="62"/>
      <point x="371" y="68" type="curve"/>
      <point x="371" y="580" type="line"/>
      <point x="359" y="586"/>
      <point x="337" y="589"/>
      <point x="315" y="589" type="curve" smooth="yes"/>
      <point x="294" y="589"/>
      <point x="271" y="586"/>
      <point x="257" y="580" type="curve"/>
    </contour>
  </outline>
</glyph>
<glyph name="hyphen" format="1">
  <advance width="487"/>
  <unicode hex="002D"/>
  <outline>
    <contour>
      <point x="67" y="314" type="line" name="hr00"/>
      <point x="62" y="305"/>
      <point x="60" y="277"/>
      <point x="60" y="258" type="curve" smooth="yes"/>
      <point x="60" y="242"/>
      <point x="62" y="225"/>
      <point x="67" y="214" type="curve"/>
      <point x="421" y="214" type="line"/>
      <point x="425" y="223"/>
      <point x="427" y="241"/>
      <point x="427" y="258" type="curve" smooth="yes"/>
      <point x="427" y="275"/>
      <point x="425" y="303"/>
      <point x="420" y="314" type="curve"/>
    </contour>
  </outline>
</glyph>
<glyph name="period" format="1">
  <advance width="259"/>
  <unicode hex="002E"/>
  <outline>
    <contour>
      <point x="231" y="86" type="curve" name="hr00" smooth="yes"/>
      <point x="231" y="146"/>
      <point x="190" y="185"/>
      <point x="130" y="185" type="curve" smooth="yes"/>
      <point x="69" y="185"/>
      <point x="28" y="146"/>
      <point x="28" y="86" type="curve" smooth="yes"/>
      <point x="28" y="27"/>
      <point x="69" y="-13"/>
      <point x="130" y="-13" type="curve" smooth="yes"/>
      <point x="190" y="-13"/>
      <point x="231" y="27"/>
    </contour>
  </outline>
</glyph>
<glyph name="zero" format="1">
  <advance width="663"/>
  <unicode hex="0030"/>
  <outline>
    <contour>
      <point x="330" y="-10" type="curve" smooth="yes"/>
      <point x="503" y="-10"/>
      <point x="618" y="81"/>
      <point x="618" y="338" type="curve" smooth="yes"/>
      <point x="618" y="607"/>
      <point x="506" y="708"/>
      <point x="332" y="708" type="curve" smooth="yes"/>
      <point x="160" y="708"/>
      <point x="45" y="609"/>
      <point x="45" y="339" type="curve" smooth="yes"/>
      <point x="45" y="84"/>
      <point x="157" y="-10"/>
    </contour>
    <contour>
      <point x="330" y="60" type="curve" name="hr00" smooth="yes"/>
      <point x="273" y="60"/>
      <point x="226" y="100"/>
      <point x="226" y="337" type="curve" smooth="yes"/>
      <point x="226" y="597"/>
      <point x="274" y="638"/>
      <point x="332" y="638" type="curve" smooth="yes"/>
      <point x="390" y="638"/>
      <point x="436" y="597"/>
      <point x="436" y="340" type="curve" smooth="yes"/>
      <point x="436" y="100"/>
      <point x="389" y="60"/>
    </contour>
  </outline>
</glyph>
<glyph name="one" format="1">
  <advance width="480"/>
  <unicode hex="0031"/>
  <outline>
    <contour>
      <point x="331" y="656" type="line" name="hr00" smooth="yes"/>
      <point x="331" y="679"/>
      <point x="321" y="710"/>
      <point x="284" y="710" type="curve" smooth="yes"/>
      <point x="266" y="710"/>
      <point x="244" y="705"/>
      <point x="199" y="679" type="curve" smooth="yes"/>
      <point x="43" y="588" type="line"/>
      <point x="70" y="538" type="line"/>
      <point x="88" y="546"/>
      <point x="114" y="551"/>
      <point x="133" y="551" type="curve" smooth="yes"/>
      <point x="163" y="551"/>
      <point x="178" y="540"/>
      <point x="178" y="519" type="curve" smooth="yes"/>
      <point x="178" y="157" type="line" smooth="yes"/>
      <point x="178" y="87"/>
      <point x="133" y="68"/>
      <point x="68" y="68" type="curve"/>
      <point x="68" y="48"/>
      <point x="77" y="14"/>
      <point x="92" y="0" type="curve"/>
      <point x="419" y="0" type="line"/>
      <point x="434" y="14"/>
      <point x="442" y="48"/>
      <point x="442" y="68" type="curve"/>
      <point x="373" y="68"/>
      <point x="331" y="86"/>
      <point x="331" y="157" type="curve" smooth="yes"/>
    </contour>
  </outline>
</glyph>
<glyph name="four" format="1">
  <advance width="663"/>
  <unicode hex="0034"/>
  <outline>
    <contour>
      <point x="653" y="280" type="curve" smooth="yes"/>
      <point x="653" y="309"/>
      <point x="635" y="334"/>
      <point x="613" y="341" type="curve"/>
      <point x="590" y="341" type="line" name="hr00"/>
      <point x="572" y="294"/>
      <point x="548" y="274"/>
      <point x="495" y="274" type="curve" smooth="yes"/>
      <point x="479" y="274" type="line"/>
      <point x="479" y="698" type="line"/>
      <point x="276" y="698" type="line"/>
      <point x="10" y="254" type="line"/>
      <point x="28" y="192" type="line"/>
      <point x="325" y="192" type="line"/>
      <point x="325" y="122" type="line" smooth="yes"/>
      <point x="325" y="80"/>
      <point x="279" y="67"/>
      <point x="216" y="67" type="curve"/>
      <point x="216" y="47"/>
      <point x="223" y="14"/>
      <point x="238" y="0" type="curve"/>
      <point x="559" y="0" type="line"/>
      <point x="574" y="14"/>
      <point x="583" y="47"/>
      <point x="583" y="67" type="curve"/>
      <point x="514" y="67"/>
      <point x="479" y="80"/>
      <point x="479" y="121" type="curve" smooth="yes"/>
      <point x="479" y="192" type="line"/>
      <point x="629" y="192"/>
      <point x="653" y="224"/>
    </contour>
    <contour>
      <point x="150" y="274" type="line"/>
      <point x="325" y="608" type="line"/>
      <point x="325" y="274" type="line"/>
    </contour>
  </outline>
</glyph>
<glyph name="six" format="1">
  <advance width="635"/>
  <unicode hex="0036"/>
  <outline>
    <contour>
      <point x="377" y="434" type="curve" smooth="yes"/>
      <point x="316" y="434"/>
      <point x="255" y="415"/>
      <point x="220" y="382" type="curve"/>
      <point x="219" y="385"/>
      <point x="219" y="389"/>
      <point x="219" y="393" type="curve" smooth="yes"/>
      <point x="219" y="576"/>
      <point x="280" y="637"/>
      <point x="353" y="637" type="curve" name="hr00" smooth="yes"/>
      <point x="386" y="637"/>
      <point x="419" y="627"/>
      <point x="436" y="607" type="curve"/>
      <point x="413" y="595"/>
      <point x="398" y="571"/>
      <point x="398" y="550" type="curve" smooth="yes"/>
      <point x="398" y="507"/>
      <point x="434" y="476"/>
      <point x="482" y="476" type="curve" smooth="yes"/>
      <point x="535" y="476"/>
      <point x="566" y="515"/>
      <point x="566" y="566" type="curve" smooth="yes"/>
      <point x="566" y="660"/>
      <point x="470" y="707"/>
      <point x="353" y="707" type="curve" smooth="yes"/>
      <point x="185" y="707"/>
      <point x="45" y="591"/>
      <point x="45" y="335" type="curve" smooth="yes"/>
      <point x="45" y="107"/>
      <point x="157" y="-8"/>
      <point x="322" y="-8" type="curve" smooth="yes"/>
      <point x="484" y="-8"/>
      <point x="595" y="97"/>
      <point x="595" y="229" type="curve" smooth="yes"/>
      <point x="595" y="356"/>
      <point x="501" y="434"/>
    </contour>
    <contour>
      <point x="325" y="67" type="curve" smooth="yes"/>
      <point x="270" y="67"/>
      <point x="218" y="112"/>
      <point x="218" y="259" type="curve" smooth="yes"/>
      <point x="218" y="272"/>
      <point x="218" y="286"/>
      <point x="219" y="300" type="curve"/>
      <point x="237" y="335"/>
      <point x="273" y="352"/>
      <point x="319" y="352" type="curve" smooth="yes"/>
      <point x="377" y="352"/>
      <point x="428" y="311"/>
      <point x="428" y="205" type="curve" smooth="yes"/>
      <point x="428" y="99"/>
      <point x="376" y="67"/>
    </contour>
  </outline>
</glyph>
<glyph name="seven" format="1">
  <advance width="542"/>
  <unicode hex="0037"/>
  <outline>
    <contour>
      <point x="506" y="711" type="line" name="hr01"/>
      <point x="469" y="684"/>
      <point x="460" y="679"/>
      <point x="414" y="679" type="curve" smooth="yes"/>
      <point x="326" y="679"/>
      <point x="200" y="708"/>
      <point x="147" y="708" type="curve" smooth="yes"/>
      <point x="56" y="708"/>
      <point x="20" y="661"/>
      <point x="20" y="594" type="curve" smooth="yes"/>
      <point x="20" y="543"/>
      <point x="40" y="508"/>
      <point x="62" y="488" type="curve"/>
      <point x="118" y="488" type="line"/>
      <point x="132" y="548"/>
      <point x="160" y="567"/>
      <point x="238" y="567" type="curve" smooth="yes"/>
      <point x="305" y="567"/>
      <point x="364" y="578"/>
      <point x="411" y="592" type="curve"/>
      <point x="235" y="377"/>
      <point x="160" y="204"/>
      <point x="147" y="5" type="curve"/>
      <point x="171" y="-6"/>
      <point x="203" y="-10"/>
      <point x="230" y="-10" type="curve" smooth="yes"/>
      <point x="333" y="-10"/>
      <point x="347" y="29"/>
      <point x="347" y="63" type="curve" smooth="yes"/>
      <point x="347" y="119" type="line" smooth="yes"/>
      <point x="347" y="258"/>
      <point x="370" y="444"/>
      <point x="542" y="662" type="curve"/>
    </contour>
  </outline>
</glyph>
<glyph name="eight" format="1">
  <advance width="636"/>
  <unicode hex="0038"/>
  <outline>
    <contour>
      <point x="441" y="404" type="curve"/>
      <point x="509" y="439"/>
      <point x="561" y="491"/>
      <point x="561" y="555" type="curve" smooth="yes"/>
      <point x="561" y="628"/>
      <point x="500" y="709"/>
      <point x="329" y="709" type="curve" smooth="yes"/>
      <point x="157" y="709"/>
      <point x="67" y="629"/>
      <point x="67" y="525" type="curve" smooth="yes"/>
      <point x="67" y="450"/>
      <point x="116" y="398"/>
      <point x="177" y="354" type="curve"/>
      <point x="92" y="321"/>
      <point x="36" y="252"/>
      <point x="36" y="174" type="curve" smooth="yes"/>
      <point x="36" y="80"/>
      <point x="116" y="-8"/>
      <point x="304" y="-8" type="curve" smooth="yes"/>
      <point x="491" y="-8"/>
      <point x="600" y="79"/>
      <point x="600" y="197" type="curve" smooth="yes"/>
      <point x="600" y="278"/>
      <point x="552" y="347"/>
    </contour>
    <contour>
      <point x="338" y="642" type="curve" smooth="yes"/>
      <point x="407" y="642"/>
      <point x="439" y="602"/>
      <point x="439" y="553" type="curve" smooth="yes"/>
      <point x="439" y="509"/>
      <point x="414" y="468"/>
      <point x="366" y="437" type="curve"/>
      <point x="264" y="482"/>
      <point x="229" y="524"/>
      <point x="229" y="564" type="curve" smooth="yes"/>
      <point x="229" y="611"/>
      <point x="275" y="642"/>
    </contour>
    <contour>
      <point x="303" y="66" type="curve" smooth="yes"/>
      <point x="220" y="66"/>
      <point x="169" y="119"/>
      <point x="169" y="189" type="curve" smooth="yes"/>
      <point x="169" y="239"/>
      <point x="196" y="286"/>
      <point x="247" y="311" type="curve"/>
      <point x="387" y="262"/>
      <point x="426" y="216"/>
      <point x="426" y="162" type="curve" smooth="yes"/>
      <point x="426" y="105"/>
      <point x="376" y="66"/>
    </contour>
  </outline>
</glyph>
<glyph name="nine" format="1">
  <advance width="632"/>
  <unicode hex="0039"/>
  <outline>
    <contour>
      <point x="284" y="63" type="curve" name="hr00" smooth="yes"/>
      <point x="248" y="63"/>
      <point x="215" y="68"/>
      <point x="194" y="94" type="curve"/>
      <point x="227" y="106"/>
      <point x="239" y="130"/>
      <point x="239" y="157" type="curve" smooth="yes"/>
      <point x="239" y="204"/>
      <point x="200" y="227"/>
      <point x="159" y="227" type="curve" smooth="yes"/>
      <point x="106" y="227"/>
      <point x="74" y="192"/>
      <point x="74" y="137" type="curve" smooth="yes"/>
      <point x="74" y="43"/>
      <point x="162" y="-11"/>
      <point x="295" y="-11" type="curve" smooth="yes"/>
      <point x="468" y="-11"/>
      <point x="587" y="126"/>
      <point x="587" y="350" type="curve" smooth="yes"/>
      <point x="587" y="561"/>
      <point x="510" y="709"/>
      <point x="307" y="709" type="curve" smooth="yes"/>
      <point x="143" y="709"/>
      <point x="40" y="600"/>
      <point x="40" y="480" type="curve" smooth="yes"/>
      <point x="40" y="348"/>
      <point x="138" y="266"/>
      <point x="265" y="266" type="curve" smooth="yes"/>
      <point x="377" y="266"/>
      <point x="462" y="326"/>
      <point x="468" y="412" type="curve"/>
      <point x="425" y="429" type="line"/>
      <point x="425" y="376"/>
      <point x="379" y="348"/>
      <point x="324" y="348" type="curve" smooth="yes"/>
      <point x="259" y="348"/>
      <point x="202" y="396"/>
      <point x="202" y="499" type="curve" smooth="yes"/>
      <point x="202" y="611"/>
      <point x="258" y="639"/>
      <point x="306" y="639" type="curve" smooth="yes"/>
      <point x="354" y="639"/>
      <point x="413" y="601"/>
      <point x="413" y="423" type="curve" smooth="yes"/>
      <point x="413" y="398"/>
      <point x="412" y="372"/>
      <point x="410" y="343" type="curve"/>
      <point x="410" y="302" type="line"/>
      <point x="410" y="296"/>
      <point x="410" y="291"/>
      <point x="410" y="287" type="curve" smooth="yes"/>
      <point x="410" y="140"/>
      <point x="377" y="63"/>
    </contour>
  </outline>
</glyph>
<glyph name="less" format="1">
  <advance width="629"/>
  <unicode hex="003C"/>
  <outline>
    <contour>
      <point x="100" y="334" type="line" name="hr00"/>
      <point x="100" y="281" type="line"/>
      <point x="473" y="-1" type="line"/>
      <point x="502" y="11"/>
      <point x="531" y="61"/>
      <point x="541" y="89" type="curve"/>
      <point x="252" y="308" type="line"/>
      <point x="541" y="518" type="line"/>
      <point x="531" y="547"/>
      <point x="502" y="597"/>
      <point x="473" y="608" type="curve"/>
    </contour>
  </outline>
</glyph>
<glyph name="greater" format="1">
  <advance width="629"/>
  <unicode hex="003E"/>
  <outline>
    <contour>
      <point x="541" y="334" type="line" name="hr00"/>
      <point x="168" y="608" type="line"/>
      <point x="139" y="597"/>
      <point x="110" y="547"/>
      <point x="100" y="518" type="curve"/>
      <point x="389" y="308" type="line"/>
      <point x="100" y="89" type="line"/>
      <point x="110" y="61"/>
      <point x="139" y="11"/>
      <point x="168" y="-1" type="curve"/>
      <point x="541" y="281" type="line"/>
    </contour>
  </outline>
</glyph>
<glyph name="E" format="1">
  <advance width="610"/>
  <unicode hex="0045"/>
  <outline>
    <contour>
      <point x="254" y="353" type="line" name="hr01"/>
      <point x="196" y="325" type="line"/>
      <point x="327" y="325" type="line" smooth="yes"/>
      <point x="364" y="325"/>
      <point x="392" y="302"/>
      <point x="392" y="249" type="curve"/>
      <point x="421" y="249"/>
      <point x="451" y="257"/>
      <point x="472" y="270" type="curve"/>
      <point x="472" y="454" type="line"/>
      <point x="450" y="467"/>
      <point x="421" y="475"/>
      <point x="391" y="475" type="curve"/>
      <point x="391" y="421"/>
      <point x="363" y="402"/>
      <point x="326" y="402" type="curve" smooth="yes"/>
      <point x="221" y="402" type="line" name="hr02"/>
      <point x="254" y="384" type="line"/>
      <point x="254" y="645" type="line"/>
      <point x="154" y="613" type="line"/>
      <point x="363" y="613" type="line" smooth="yes"/>
      <point x="416" y="613"/>
      <point x="444" y="566"/>
      <point x="459" y="522" type="curve"/>
      <point x="483" y="527"/>
      <point x="537" y="545"/>
      <point x="554" y="561" type="curve"/>
      <point x="554" y="594"/>
      <point x="531" y="682"/>
      <point x="514" y="715" type="curve"/>
      <point x="489" y="715"/>
      <point x="457" y="709"/>
      <point x="433" y="698" type="curve"/>
      <point x="49" y="698" type="line"/>
      <point x="36" y="681"/>
      <point x="26" y="658"/>
      <point x="26" y="635" type="curve" name="hr03"/>
      <point x="70" y="635"/>
      <point x="87" y="621"/>
      <point x="87" y="584" type="curve" smooth="yes"/>
      <point x="87" y="115" type="line" smooth="yes"/>
      <point x="87" y="77"/>
      <point x="70" y="63"/>
      <point x="26" y="63" type="curve"/>
      <point x="26" y="40"/>
      <point x="36" y="17"/>
      <point x="49" y="0" type="curve" name="hr04"/>
      <point x="507" y="0" type="line"/>
      <point x="531" y="-11"/>
      <point x="541" y="-14"/>
      <point x="549" y="-16" type="curve"/>
      <point x="568" y="20"/>
      <point x="585" y="171"/>
      <point x="585" y="210" type="curve"/>
      <point x="478" y="210" type="line"/>
      <point x="460" y="154"/>
      <point x="433" y="88"/>
      <point x="375" y="88" type="curve" smooth="yes"/>
      <point x="203" y="88" type="line"/>
      <point x="254" y="59" type="line" name="hr05"/>
    </contour>
    <contour>
      <point x="310" y="-12" type="move" name="btm"/>
    </contour>
    <contour>
      <point x="305" y="963" type="move" name="top"/>
    </contour>
  </outline>
</glyph>
<glyph name="G" format="1">
  <advance width="664"/>
  <unicode hex="0047"/>
  <outline>
    <contour>
      <point x="370" y="-14" type="curve" name="hr00" smooth="yes"/>
      <point x="505" y="-14"/>
      <point x="611" y="43"/>
      <point x="611" y="78" type="curve" smooth="yes"/>
      <point x="611" y="88"/>
      <point x="608" y="92"/>
      <point x="604" y="96" type="curve" smooth="yes"/>
      <point x="599" y="102"/>
      <point x="593" y="111"/>
      <point x="593" y="141" type="curve" smooth="yes"/>
      <point x="593" y="256" type="line"/>
      <point x="608" y="262"/>
      <point x="628" y="264"/>
      <point x="649" y="264" type="curve"/>
      <point x="652" y="269"/>
      <point x="654" y="277"/>
      <point x="654" y="282" type="curve" smooth="yes"/>
      <point x="654" y="297"/>
      <point x="645" y="349"/>
      <point x="585" y="349" type="curve" smooth="yes"/>
      <point x="371" y="349" type="line"/>
      <point x="357" y="333"/>
      <point x="347" y="295"/>
      <point x="347" y="272" type="curve"/>
      <point x="410" y="272"/>
      <point x="440" y="258"/>
      <point x="440" y="223" type="curve" smooth="yes"/>
      <point x="440" y="109" type="line"/>
      <point x="422" y="90"/>
      <point x="396" y="83"/>
      <point x="359" y="83" type="curve" smooth="yes"/>
      <point x="262" y="83"/>
      <point x="209" y="153"/>
      <point x="209" y="365" type="curve" smooth="yes"/>
      <point x="209" y="563"/>
      <point x="270" y="617"/>
      <point x="350" y="617" type="curve" smooth="yes"/>
      <point x="422" y="617"/>
      <point x="480" y="570"/>
      <point x="494" y="483" type="curve"/>
      <point x="591" y="483" type="line"/>
      <point x="591" y="543"/>
      <point x="587" y="645"/>
      <point x="562" y="709" type="curve"/>
      <point x="541" y="708"/>
      <point x="494" y="696"/>
      <point x="474" y="687" type="curve"/>
      <point x="424" y="706"/>
      <point x="383" y="709"/>
      <point x="353" y="709" type="curve" smooth="yes"/>
      <point x="161" y="709"/>
      <point x="25" y="584"/>
      <point x="25" y="339" type="curve" smooth="yes"/>
      <point x="25" y="132"/>
      <point x="157" y="-14"/>
    </contour>
    <contour>
      <point x="337" y="-5" type="move" name="btm"/>
    </contour>
    <contour>
      <point x="315" y="963" type="move" name="top"/>
    </contour>
  </outline>
</glyph>
<glyph name="L" format="1">
  <advance width="537"/>
  <unicode hex="004C"/>
  <outline>
    <contour>
      <point x="446" y="0" type="line" name="hr01" smooth="yes"/>
      <point x="515" y="0"/>
      <point x="537" y="44"/>
      <point x="537" y="124" type="curve" smooth="yes"/>
      <point x="537" y="171"/>
      <point x="528" y="232"/>
      <point x="503" y="251" type="curve"/>
      <point x="433" y="251" type="line"/>
      <point x="433" y="139"/>
      <point x="383" y="85"/>
      <point x="283" y="85" type="curve" smooth="yes"/>
      <point x="252" y="85" type="line"/>
      <point x="252" y="584" type="line" smooth="yes"/>
      <point x="252" y="621"/>
      <point x="274" y="635"/>
      <point x="318" y="635" type="curve"/>
      <point x="318" y="658"/>
      <point x="311" y="682"/>
      <point x="296" y="698" type="curve"/>
      <point x="49" y="698" type="line"/>
      <point x="34" y="682"/>
      <point x="26" y="658"/>
      <point x="26" y="635" type="curve"/>
      <point x="71" y="635"/>
      <point x="88" y="621"/>
      <point x="88" y="584" type="curve" smooth="yes"/>
      <point x="88" y="114" type="line" smooth="yes"/>
      <point x="88" y="77"/>
      <point x="71" y="64"/>
      <point x="26" y="64" type="curve" name="hr02"/>
      <point x="26" y="40"/>
      <point x="34" y="16"/>
      <point x="49" y="0" type="curve" name="hr03"/>
    </contour>
    <contour>
      <point x="274" y="0" type="move" name="btm"/>
    </contour>
    <contour>
      <point x="418" y="712" type="move" name="car"/>
    </contour>
    <contour>
      <point x="176" y="963" type="move" name="top"/>
    </contour>
  </outline>
</glyph>
<glyph name="M" format="1">
  <advance width="913"/>
  <unicode hex="004D"/>
  <outline>
    <contour>
      <point x="629" y="698" type="line" name="hr00"/>
      <point x="503" y="370" type="line"/>
      <point x="465" y="246" type="line"/>
      <point x="425" y="370" type="line"/>
      <point x="319" y="631" type="line"/>
      <point x="295" y="688"/>
      <point x="256" y="698"/>
      <point x="199" y="698" type="curve" smooth="yes"/>
      <point x="49" y="698" type="line"/>
      <point x="35" y="682"/>
      <point x="26" y="658"/>
      <point x="26" y="635" type="curve"/>
      <point x="71" y="635"/>
      <point x="97" y="621"/>
      <point x="97" y="584" type="curve" smooth="yes"/>
      <point x="97" y="114" type="line" smooth="yes"/>
      <point x="97" y="77"/>
      <point x="74" y="64"/>
      <point x="26" y="64" type="curve"/>
      <point x="26" y="40"/>
      <point x="34" y="16"/>
      <point x="48" y="0" type="curve"/>
      <point x="256" y="0" type="line"/>
      <point x="269" y="16"/>
      <point x="278" y="40"/>
      <point x="278" y="64" type="curve"/>
      <point x="227" y="64"/>
      <point x="202" y="77"/>
      <point x="202" y="114" type="curve" smooth="yes"/>
      <point x="202" y="528" type="line"/>
      <point x="400" y="45" type="line"/>
      <point x="438" y="45"/>
      <point x="468" y="55"/>
      <point x="486" y="99" type="curve" smooth="yes"/>
      <point x="656" y="528" type="line"/>
      <point x="656" y="114" type="line" smooth="yes"/>
      <point x="656" y="77"/>
      <point x="639" y="64"/>
      <point x="594" y="64" type="curve"/>
      <point x="594" y="40"/>
      <point x="603" y="16"/>
      <point x="616" y="0" type="curve"/>
      <point x="864" y="0" type="line"/>
      <point x="878" y="16"/>
      <point x="887" y="40"/>
      <point x="887" y="64" type="curve"/>
      <point x="839" y="64"/>
      <point x="820" y="77"/>
      <point x="820" y="114" type="curve" smooth="yes"/>
      <point x="820" y="584" type="line" smooth="yes"/>
      <point x="820" y="621"/>
      <point x="842" y="635"/>
      <point x="887" y="635" type="curve"/>
      <point x="887" y="658"/>
      <point x="878" y="682"/>
      <point x="864" y="698" type="curve"/>
    </contour>
    <contour>
      <point x="456" y="0" type="move" name="btm"/>
    </contour>
    <contour>
      <point x="456" y="975" type="move" name="top"/>
    </contour>
  </outline>
</glyph>
<glyph name="P" format="1">
  <advance width="602"/>
  <unicode hex="0050"/>
  <outline>
    <contour>
      <point x="306" y="705" type="curve" name="hr00" smooth="yes"/>
      <point x="250" y="705"/>
      <point x="179" y="698"/>
      <point x="48" y="698" type="curve"/>
      <point x="35" y="681"/>
      <point x="26" y="658"/>
      <point x="26" y="635" type="curve"/>
      <point x="71" y="635"/>
      <point x="89" y="621"/>
      <point x="89" y="584" type="curve" smooth="yes"/>
      <point x="89" y="114" type="line" smooth="yes"/>
      <point x="89" y="77"/>
      <point x="71" y="64"/>
      <point x="26" y="64" type="curve"/>
      <point x="26" y="40"/>
      <point x="35" y="16"/>
      <point x="49" y="0" type="curve"/>
      <point x="340" y="0" type="line"/>
      <point x="354" y="16"/>
      <point x="362" y="40"/>
      <point x="362" y="64" type="curve"/>
      <point x="273" y="64"/>
      <point x="253" y="81"/>
      <point x="253" y="159" type="curve" smooth="yes"/>
      <point x="253" y="247" type="line"/>
      <point x="295" y="247" type="line" smooth="yes"/>
      <point x="496" y="247"/>
      <point x="592" y="348"/>
      <point x="592" y="479" type="curve" smooth="yes"/>
      <point x="592" y="625"/>
      <point x="518" y="705"/>
    </contour>
    <contour>
      <point x="418" y="482" type="curve" smooth="yes"/>
      <point x="418" y="414"/>
      <point x="403" y="327"/>
      <point x="279" y="327" type="curve" smooth="yes"/>
      <point x="270" y="327"/>
      <point x="262" y="327"/>
      <point x="253" y="329" type="curve"/>
      <point x="253" y="622" type="line"/>
      <point x="264" y="625"/>
      <point x="276" y="626"/>
      <point x="290" y="626" type="curve" smooth="yes"/>
      <point x="389" y="626"/>
      <point x="418" y="558"/>
    </contour>
    <contour>
      <point x="305" y="0" type="move" name="btm"/>
    </contour>
    <contour>
      <point x="319" y="963" type="move" name="top"/>
    </contour>
  </outline>
</glyph>
<glyph name="Q" format="1">
  <advance width="669"/>
  <unicode hex="0051"/>
  <outline>
    <contour>
      <point x="361" y="-82" type="curve" name="hr00" smooth="yes"/>
      <point x="407" y="-82"/>
      <point x="437" y="-104"/>
      <point x="469" y="-128" type="curve" smooth="yes"/>
      <point x="504" y="-154"/>
      <point x="542" y="-182"/>
      <point x="605" y="-182" type="curve" smooth="yes"/>
      <point x="695" y="-182"/>
      <point x="732" y="-133"/>
      <point x="732" y="-100" type="curve" smooth="yes"/>
      <point x="732" y="-90"/>
      <point x="724" y="-70"/>
      <point x="718" y="-62" type="curve"/>
      <point x="697" y="-70"/>
      <point x="674" y="-73"/>
      <point x="653" y="-73" type="curve" smooth="yes"/>
      <point x="629" y="-73"/>
      <point x="607" y="-69"/>
      <point x="589" y="-59" type="curve" smooth="yes"/>
      <point x="554" y="-39"/>
      <point x="469" y="8"/>
      <point x="405" y="8" type="curve" smooth="yes"/>
      <point x="310" y="8"/>
      <point x="254" y="-26"/>
      <point x="226" y="-76" type="curve"/>
      <point x="255" y="-110" type="line"/>
      <point x="293" y="-86"/>
      <point x="313" y="-82"/>
    </contour>
    <component base="O"/>
    <contour>
      <point x="391" y="-119" type="move" name="btm"/>
    </contour>
    <contour>
      <point x="321" y="963" type="move" name="top"/>
    </contour>
  </outline>
</glyph>
<glyph name="T" format="1">
  <advance width="631"/>
  <unicode hex="0054"/>
  <outline>
    <contour>
      <point x="591" y="710" type="curve"/>
      <point x="566" y="710"/>
      <point x="534" y="706"/>
      <point x="509" y="698" type="curve"/>
      <point x="122" y="698" type="line"/>
      <point x="98" y="706"/>
      <point x="64" y="710"/>
      <point x="40" y="710" type="curve"/>
      <point x="16" y="657"/>
      <point x="8" y="514"/>
      <point x="8" y="458" type="curve"/>
      <point x="25" y="451"/>
      <point x="67" y="448"/>
      <point x="92" y="447" type="curve"/>
      <point x="105" y="593"/>
      <point x="158" y="619"/>
      <point x="211" y="619" type="curve" smooth="yes"/>
      <point x="232" y="619" type="line"/>
      <point x="232" y="118" type="line" smooth="yes"/>
      <point x="232" y="81"/>
      <point x="197" y="64"/>
      <point x="125" y="64" type="curve"/>
      <point x="125" y="40"/>
      <point x="133" y="16"/>
      <point x="147" y="0" type="curve"/>
      <point x="483" y="0" type="line"/>
      <point x="498" y="16"/>
      <point x="506" y="40"/>
      <point x="506" y="64" type="curve"/>
      <point x="434" y="64"/>
      <point x="398" y="81"/>
      <point x="398" y="118" type="curve" smooth="yes"/>
      <point x="398" y="619" type="line"/>
      <point x="419" y="619" type="line" name="hr01" smooth="yes"/>
      <point x="487" y="619"/>
      <point x="526" y="593"/>
      <point x="539" y="447" type="curve"/>
      <point x="565" y="447"/>
      <point x="605" y="451"/>
      <point x="623" y="458" type="curve"/>
      <point x="623" y="514"/>
      <point x="615" y="657"/>
    </contour>
    <contour>
      <point x="315" y="0" type="move" name="btm"/>
    </contour>
    <contour>
      <point x="313" y="963" type="move" name="top"/>
    </contour>
  </outline>
</glyph>
<glyph name="U" format="1">
  <advance width="665"/>
  <unicode hex="0055"/>
  <outline>
    <contour>
      <point x="597" y="585" type="line" name="hr00" smooth="yes"/>
      <point x="597" y="621"/>
      <point x="617" y="635"/>
      <point x="668" y="635" type="curve"/>
      <point x="668" y="659"/>
      <point x="660" y="682"/>
      <point x="646" y="698" type="curve"/>
      <point x="426" y="698" type="line"/>
      <point x="411" y="682"/>
      <point x="404" y="659"/>
      <point x="404" y="635" type="curve"/>
      <point x="454" y="635"/>
      <point x="475" y="621"/>
      <point x="475" y="585" type="curve" smooth="yes"/>
      <point x="475" y="226" type="line" smooth="yes"/>
      <point x="475" y="148"/>
      <point x="445" y="83"/>
      <point x="355" y="83" type="curve" smooth="yes"/>
      <point x="267" y="83"/>
      <point x="231" y="152"/>
      <point x="231" y="242" type="curve" smooth="yes"/>
      <point x="231" y="585" type="line" smooth="yes"/>
      <point x="231" y="621"/>
      <point x="248" y="635"/>
      <point x="293" y="635" type="curve"/>
      <point x="293" y="659"/>
      <point x="285" y="682"/>
      <point x="270" y="698" type="curve"/>
      <point x="20" y="698" type="line"/>
      <point x="5" y="682"/>
      <point x="-3" y="659"/>
      <point x="-3" y="635" type="curve"/>
      <point x="42" y="635"/>
      <point x="59" y="621"/>
      <point x="59" y="585" type="curve" smooth="yes"/>
      <point x="59" y="263" type="line" smooth="yes"/>
      <point x="59" y="82"/>
      <point x="166" y="-13"/>
      <point x="337" y="-13" type="curve" smooth="yes"/>
      <point x="511" y="-13"/>
      <point x="597" y="89"/>
      <point x="597" y="273" type="curve" smooth="yes"/>
    </contour>
    <contour>
      <point x="332" y="-4" type="move" name="btm"/>
    </contour>
    <contour>
      <point x="329" y="963" type="move" name="top"/>
    </contour>
  </outline>
</glyph>
<glyph name="W" format="1">
  <advance width="992"/>
  <unicode hex="0057"/>
  <outline>
    <contour>
      <point x="591" y="649" type="line"/>
      <point x="492" y="649" type="line" smooth="yes"/>
      <point x="450" y="649"/>
      <point x="427" y="601"/>
      <point x="418" y="551" type="curve"/>
      <point x="320" y="175" type="line"/>
      <point x="283" y="322"/>
      <point x="218" y="584"/>
      <point x="218" y="591" type="curve" smooth="yes"/>
      <point x="218" y="614"/>
      <point x="233" y="635"/>
      <point x="268" y="635" type="curve"/>
      <point x="268" y="658"/>
      <point x="259" y="682"/>
      <point x="251" y="698" type="curve"/>
      <point x="-5" y="698" type="line"/>
      <point x="-17" y="678"/>
      <point x="-20" y="658"/>
      <point x="-20" y="635" type="curve"/>
      <point x="25" y="635"/>
      <point x="39" y="623"/>
      <point x="49" y="588" type="curve" smooth="yes"/>
      <point x="226" y="-7" type="line"/>
      <point x="280" y="-7" type="line" smooth="yes"/>
      <point x="347" y="-7"/>
      <point x="382" y="36"/>
      <point x="405" y="130" type="curve" smooth="yes"/>
      <point x="507" y="547" type="line" name="hr00"/>
      <point x="467" y="547" type="line" name="hr00"/>
      <point x="623" y="-7" type="line"/>
      <point x="676" y="-7" type="line" smooth="yes"/>
      <point x="742" y="-7"/>
      <point x="779" y="36"/>
      <point x="805" y="130" type="curve" smooth="yes"/>
      <point x="931" y="588" type="line" smooth="yes"/>
      <point x="941" y="623"/>
      <point x="967" y="635"/>
      <point x="1012" y="635" type="curve"/>
      <point x="1012" y="658"/>
      <point x="1008" y="679"/>
      <point x="997" y="698" type="curve"/>
      <point x="762" y="698" type="line"/>
      <point x="751" y="678"/>
      <point x="748" y="658"/>
      <point x="748" y="635" type="curve"/>
      <point x="791" y="635"/>
      <point x="818" y="612"/>
      <point x="818" y="578" type="curve" smooth="yes"/>
      <point x="818" y="573"/>
      <point x="817" y="565"/>
      <point x="815" y="558" type="curve" smooth="yes"/>
      <point x="716" y="175" type="line"/>
    </contour>
    <contour>
      <point x="487" y="-2" type="move" name="btm"/>
    </contour>
    <contour>
      <point x="496" y="963" type="move" name="top"/>
    </contour>
  </outline>
</glyph>
<glyph name="X" format="1">
  <advance width="685"/>
  <unicode hex="0058"/>
  <outline>
    <contour>
      <point x="597" y="126" type="curve" smooth="yes"/>
      <point x="434" y="372" type="line"/>
      <point x="581" y="585" type="line" smooth="yes"/>
      <point x="605" y="620"/>
      <point x="624" y="635"/>
      <point x="679" y="635" type="curve"/>
      <point x="679" y="659"/>
      <point x="670" y="682"/>
      <point x="655" y="698" type="curve"/>
      <point x="427" y="698" type="line"/>
      <point x="412" y="682"/>
      <point x="404" y="659"/>
      <point x="404" y="635" type="curve"/>
      <point x="435" y="635"/>
      <point x="455" y="619"/>
      <point x="455" y="598" type="curve" smooth="yes"/>
      <point x="455" y="590"/>
      <point x="450" y="577"/>
      <point x="445" y="568" type="curve"/>
      <point x="381" y="451" type="line"/>
      <point x="306" y="572" type="line" smooth="yes"/>
      <point x="298" y="585"/>
      <point x="290" y="598"/>
      <point x="290" y="609" type="curve" smooth="yes"/>
      <point x="290" y="624"/>
      <point x="304" y="635"/>
      <point x="346" y="635" type="curve"/>
      <point x="346" y="659"/>
      <point x="337" y="682"/>
      <point x="322" y="698" type="curve"/>
      <point x="27" y="698" type="line"/>
      <point x="13" y="682"/>
      <point x="5" y="659"/>
      <point x="5" y="635" type="curve"/>
      <point x="44" y="635"/>
      <point x="77" y="617"/>
      <point x="107" y="574" type="curve" smooth="yes"/>
      <point x="267" y="343" type="line"/>
      <point x="99" y="113" type="line" smooth="yes"/>
      <point x="73" y="77"/>
      <point x="55" y="64"/>
      <point x="1" y="64" type="curve"/>
      <point x="1" y="40"/>
      <point x="10" y="16"/>
      <point x="25" y="0" type="curve"/>
      <point x="252" y="0" type="line"/>
      <point x="267" y="16"/>
      <point x="275" y="40"/>
      <point x="275" y="64" type="curve"/>
      <point x="244" y="64"/>
      <point x="226" y="80"/>
      <point x="226" y="101" type="curve" smooth="yes"/>
      <point x="226" y="109"/>
      <point x="229" y="118"/>
      <point x="235" y="127" type="curve" smooth="yes"/>
      <point x="324" y="255" type="line"/>
      <point x="403" y="127" type="line" smooth="yes"/>
      <point x="411" y="114"/>
      <point x="417" y="102"/>
      <point x="417" y="91" type="curve" smooth="yes"/>
      <point x="417" y="75"/>
      <point x="403" y="64"/>
      <point x="363" y="64" type="curve"/>
      <point x="363" y="40"/>
      <point x="372" y="16"/>
      <point x="387" y="0" type="curve"/>
      <point x="675" y="0" type="line"/>
      <point x="689" y="16"/>
      <point x="697" y="40"/>
      <point x="697" y="64" type="curve"/>
      <point x="654" y="64"/>
      <point x="621" y="90"/>
    </contour>
    <contour>
      <point x="357" y="0" type="move" name="btm"/>
    </contour>
    <contour>
      <point x="361" y="963" type="move" name="top"/>
    </contour>
  </outline>
</glyph>
<glyph name="Z" format="1">
  <advance width="616"/>
  <unicode hex="005A"/>
  <outline>
    <contour>
      <point x="227" y="79" type="line" name="hr00"/>
      <point x="590" y="661" type="line"/>
      <point x="565" y="698" type="line"/>
      <point x="73" y="698" type="line"/>
      <point x="51" y="654"/>
      <point x="35" y="577"/>
      <point x="35" y="487" type="curve"/>
      <point x="134" y="487" type="line"/>
      <point x="148" y="586"/>
      <point x="184" y="621"/>
      <point x="271" y="621" type="curve" smooth="yes"/>
      <point x="382" y="621" type="line"/>
      <point x="7" y="38" type="line"/>
      <point x="32" y="0" type="line"/>
      <point x="484" y="0" type="line"/>
      <point x="508" y="-11"/>
      <point x="535" y="-16"/>
      <point x="559" y="-16" type="curve"/>
      <point x="577" y="20"/>
      <point x="601" y="200"/>
      <point x="601" y="239" type="curve"/>
      <point x="505" y="239" type="line"/>
      <point x="486" y="166"/>
      <point x="444" y="79"/>
      <point x="377" y="79" type="curve"/>
    </contour>
    <contour>
      <point x="307" y="-12" type="move" name="btm"/>
    </contour>
    <contour>
      <point x="307" y="963" type="move" name="top"/>
    </contour>
  </outline>
</glyph>
<glyph name="bracketleft" format="1">
  <advance width="345"/>
  <unicode hex="005B"/>
  <outline>
    <contour>
      <point x="201" y="731" type="line" name="hr00"/>
      <point x="300" y="731" type="line"/>
      <point x="311" y="755"/>
      <point x="316" y="773"/>
      <point x="316" y="800" type="curve"/>
      <point x="50" y="800" type="line"/>
      <point x="50" y="-154" type="line"/>
      <point x="316" y="-154" type="line"/>
      <point x="316" y="-127"/>
      <point x="311" y="-108"/>
      <point x="300" y="-85" type="curve"/>
      <point x="201" y="-85" type="line"/>
    </contour>
  </outline>
</glyph>
<glyph name="asciicircum" format="1">
  <advance width="890"/>
  <unicode hex="005E"/>
  <outline>
    <contour>
      <point x="270" y="130" type="curve"/>
      <point x="445" y="559" type="line"/>
      <point x="619" y="130" type="line"/>
      <point x="654" y="136"/>
      <point x="698" y="151"/>
      <point x="711" y="179" type="curve"/>
      <point x="488" y="698" type="line" name="hr00"/>
      <point x="401" y="698" type="line"/>
      <point x="178" y="179" type="line"/>
      <point x="191" y="151"/>
      <point x="235" y="136"/>
    </contour>
  </outline>
</glyph>
<glyph name="b" format="1">
  <advance width="569"/>
  <unicode hex="0062"/>
  <outline>
    <contour>
      <point x="332" y="540" type="curve" smooth="yes"/>
      <point x="286" y="540"/>
      <point x="249" y="529"/>
      <point x="222" y="501" type="curve"/>
      <point x="225" y="596" type="line"/>
      <point x="225" y="738" type="line" smooth="yes"/>
      <point x="225" y="771"/>
      <point x="213" y="784"/>
      <point x="181" y="784" type="curve" smooth="yes"/>
      <point x="138" y="784"/>
      <point x="51" y="758"/>
      <point x="6" y="727" type="curve"/>
      <point x="6" y="695" type="line"/>
      <point x="50" y="695"/>
      <point x="67" y="676"/>
      <point x="67" y="646" type="curve" smooth="yes"/>
      <point x="67" y="22" type="line"/>
      <point x="114" y="-1"/>
      <point x="211" y="-13"/>
      <point x="270" y="-13" type="curve" smooth="yes"/>
      <point x="419" y="-13"/>
      <point x="541" y="91"/>
      <point x="541" y="283" type="curve" smooth="yes"/>
      <point x="541" y="458"/>
      <point x="442" y="540"/>
    </contour>
    <contour>
      <point x="273" y="60" type="curve" smooth="yes"/>
      <point x="254" y="60"/>
      <point x="238" y="66"/>
      <point x="225" y="79" type="curve"/>
      <point x="225" y="444" type="line"/>
      <point x="235" y="451"/>
      <point x="248" y="455"/>
      <point x="263" y="455" type="curve" smooth="yes"/>
      <point x="324" y="455"/>
      <point x="371" y="395"/>
      <point x="371" y="249" type="curve" smooth="yes"/>
      <point x="371" y="106"/>
      <point x="327" y="60"/>
    </contour>
    <contour>
      <point x="275" y="-6" type="move" name="btm"/>
    </contour>
    <contour>
      <point x="387" y="822" type="move" name="top"/>
    </contour>
  </outline>
</glyph>
<glyph name="e" format="1">
  <advance width="500"/>
  <unicode hex="0065"/>
  <outline>
    <contour>
      <point x="320" y="102" type="curve" smooth="yes"/>
      <point x="248" y="102"/>
      <point x="200" y="142"/>
      <point x="196" y="247" type="curve"/>
      <point x="412" y="247" type="line" smooth="yes"/>
      <point x="464" y="247"/>
      <point x="476" y="291"/>
      <point x="476" y="342" type="curve" smooth="yes"/>
      <point x="476" y="469"/>
      <point x="397" y="542"/>
      <point x="277" y="542" type="curve" smooth="yes"/>
      <point x="133" y="542"/>
      <point x="26" y="434"/>
      <point x="26" y="260" type="curve" smooth="yes"/>
      <point x="26" y="91"/>
      <point x="122" y="-9"/>
      <point x="271" y="-9" type="curve" smooth="yes"/>
      <point x="386" y="-9"/>
      <point x="457" y="57"/>
      <point x="457" y="90" type="curve" smooth="yes"/>
      <point x="457" y="104"/>
      <point x="449" y="131"/>
      <point x="437" y="142" type="curve" name="hr00"/>
      <point x="403" y="117"/>
      <point x="365" y="102"/>
    </contour>
    <contour>
      <point x="271" y="473" type="curve" smooth="yes"/>
      <point x="299" y="473"/>
      <point x="323" y="453"/>
      <point x="323" y="368" type="curve" smooth="yes"/>
      <point x="323" y="342"/>
      <point x="320" y="323"/>
      <point x="297" y="323" type="curve" smooth="yes"/>
      <point x="196" y="323" type="line"/>
      <point x="199" y="441"/>
      <point x="236" y="473"/>
    </contour>
    <contour>
      <point x="257" y="0" type="move" name="btm"/>
    </contour>
    <contour>
      <point x="273" y="822" type="move" name="top"/>
    </contour>
  </outline>
</glyph>
<glyph name="g" format="1">
  <advance width="529"/>
  <unicode hex="0067"/>
  <outline>
    <contour>
      <point x="245" y="164" type="curve" smooth="yes"/>
      <point x="396" y="164"/>
      <point x="486" y="231"/>
      <point x="486" y="356" type="curve" smooth="yes"/>
      <point x="486" y="400"/>
      <point x="460" y="454"/>
      <point x="408" y="491" type="curve"/>
      <point x="436" y="486"/>
      <point x="486" y="472"/>
      <point x="496" y="472" type="curve" smooth="yes"/>
      <point x="524" y="472"/>
      <point x="535" y="503"/>
      <point x="535" y="529" type="curve" smooth="yes"/>
      <point x="535" y="546"/>
      <point x="528" y="561"/>
      <point x="514" y="561" type="curve"/>
      <point x="435" y="550"/>
      <point x="364" y="538"/>
      <point x="288" y="536" type="curve"/>
      <point x="277" y="537"/>
      <point x="266" y="538"/>
      <point x="254" y="538" type="curve" smooth="yes"/>
      <point x="253" y="538" type="line" smooth="yes"/>
      <point x="107" y="538"/>
      <point x="32" y="455"/>
      <point x="32" y="354" type="curve" smooth="yes"/>
      <point x="32" y="252"/>
      <point x="114" y="164"/>
    </contour>
    <contour>
      <point x="262" y="230" type="curve" smooth="yes"/>
      <point x="221" y="230"/>
      <point x="203" y="270"/>
      <point x="203" y="343" type="curve" name="hr00" smooth="yes"/>
      <point x="203" y="423"/>
      <point x="218" y="472"/>
      <point x="262" y="472" type="curve" smooth="yes"/>
      <point x="300" y="472"/>
      <point x="322" y="443"/>
      <point x="322" y="368" type="curve" smooth="yes"/>
      <point x="322" y="277"/>
      <point x="306" y="230"/>
    </contour>
    <contour>
      <point x="254" y="-249" type="curve" smooth="yes"/>
      <point x="396" y="-249"/>
      <point x="526" y="-166"/>
      <point x="526" y="-56" type="curve" smooth="yes"/>
      <point x="526" y="47"/>
      <point x="447" y="84"/>
      <point x="278" y="107" type="curve" smooth="yes"/>
      <point x="213" y="116"/>
      <point x="182" y="124"/>
      <point x="182" y="158" type="curve" smooth="yes"/>
      <point x="182" y="174"/>
      <point x="189" y="189"/>
      <point x="201" y="198" type="curve"/>
      <point x="174" y="189" type="line"/>
      <point x="109" y="189"/>
      <point x="79" y="144"/>
      <point x="79" y="115" type="curve" smooth="yes"/>
      <point x="79" y="57"/>
      <point x="91" y="15"/>
      <point x="226" y="-8" type="curve" smooth="yes"/>
      <point x="309" y="-22"/>
      <point x="377" y="-36"/>
      <point x="377" y="-83" type="curve" smooth="yes"/>
      <point x="377" y="-124"/>
      <point x="353" y="-164"/>
      <point x="287" y="-164" type="curve" smooth="yes"/>
      <point x="198" y="-164"/>
      <point x="168" y="-118"/>
      <point x="168" y="-59" type="curve" smooth="yes"/>
      <point x="168" y="-26"/>
      <point x="177" y="19"/>
      <point x="218" y="31" type="curve"/>
      <point x="189" y="46" type="line"/>
      <point x="77" y="40"/>
      <point x="17" y="-18"/>
      <point x="17" y="-86" type="curve" smooth="yes"/>
      <point x="17" y="-179"/>
      <point x="89" y="-249"/>
    </contour>
    <contour>
      <point x="267" y="-133" type="move" name="btm"/>
    </contour>
    <contour>
      <point x="275" y="822" type="move" name="top"/>
    </contour>
  </outline>
</glyph>
<glyph name="h" format="1">
  <advance width="602"/>
  <unicode hex="0068"/>
  <outline>
    <contour>
      <point x="581" y="48" type="line"/>
      <point x="550" y="54"/>
      <point x="534" y="73"/>
      <point x="534" y="106" type="curve" smooth="yes"/>
      <point x="534" y="408" type="line" name="hr00" smooth="yes"/>
      <point x="534" y="496"/>
      <point x="486" y="544"/>
      <point x="392" y="544" type="curve" smooth="yes"/>
      <point x="322" y="544"/>
      <point x="266" y="519"/>
      <point x="232" y="478" type="curve"/>
      <point x="234" y="545" type="line"/>
      <point x="234" y="742" type="line" smooth="yes"/>
      <point x="234" y="775"/>
      <point x="221" y="788"/>
      <point x="191" y="788" type="curve" smooth="yes"/>
      <point x="146" y="788"/>
      <point x="59" y="766"/>
      <point x="10" y="740" type="curve"/>
      <point x="10" y="699" type="line"/>
      <point x="65" y="699"/>
      <point x="77" y="680"/>
      <point x="77" y="650" type="curve" smooth="yes"/>
      <point x="77" y="108" type="line" smooth="yes"/>
      <point x="77" y="69"/>
      <point x="62" y="54"/>
      <point x="22" y="54" type="curve"/>
      <point x="22" y="32"/>
      <point x="30" y="15"/>
      <point x="45" y="0" type="curve"/>
      <point x="266" y="0" type="line"/>
      <point x="281" y="15"/>
      <point x="289" y="32"/>
      <point x="289" y="54" type="curve"/>
      <point x="249" y="54"/>
      <point x="234" y="69"/>
      <point x="234" y="108" type="curve" smooth="yes"/>
      <point x="234" y="408" type="line"/>
      <point x="252" y="432"/>
      <point x="279" y="446"/>
      <point x="304" y="446" type="curve" smooth="yes"/>
      <point x="343" y="446"/>
      <point x="372" y="422"/>
      <point x="372" y="379" type="curve" smooth="yes"/>
      <point x="372" y="38" type="line" smooth="yes"/>
      <point x="372" y="-6"/>
      <point x="410" y="-14"/>
      <point x="460" y="-14" type="curve" smooth="yes"/>
      <point x="508" y="-14"/>
      <point x="559" y="-2"/>
      <point x="583" y="20" type="curve"/>
    </contour>
    <contour>
      <point x="317" y="0" type="move" name="btm"/>
    </contour>
    <contour>
      <point x="297" y="967" type="move" name="top"/>
    </contour>
  </outline>
</glyph>
<glyph name="i" format="1">
  <advance width="312"/>
  <unicode hex="0069"/>
  <outline>
    <contour>
      <point x="240" y="497" type="line" name="hr00" smooth="yes"/>
      <point x="240" y="530"/>
      <point x="226" y="543"/>
      <point x="195" y="543" type="curve" smooth="yes"/>
      <point x="125" y="543"/>
      <point x="48" y="518"/>
      <point x="15" y="495" type="curve"/>
      <point x="15" y="450" type="line"/>
      <point x="71" y="450"/>
      <point x="79" y="417"/>
      <point x="79" y="386" type="curve" smooth="yes"/>
      <point x="79" y="109" type="line" smooth="yes"/>
      <point x="79" y="69"/>
      <point x="61" y="54"/>
      <point x="22" y="54" type="curve"/>
      <point x="22" y="31"/>
      <point x="30" y="15"/>
      <point x="45" y="0" type="curve"/>
      <point x="274" y="0" type="line"/>
      <point x="289" y="15"/>
      <point x="297" y="31"/>
      <point x="297" y="54" type="curve"/>
      <point x="258" y="54"/>
      <point x="240" y="68"/>
      <point x="240" y="108" type="curve" smooth="yes"/>
    </contour>
    <contour>
      <point x="256" y="707" type="curve" smooth="yes"/>
      <point x="256" y="763"/>
      <point x="219" y="801"/>
      <point x="161" y="801" type="curve" smooth="yes"/>
      <point x="103" y="801"/>
      <point x="65" y="763"/>
      <point x="65" y="707" type="curve" smooth="yes"/>
      <point x="65" y="650"/>
      <point x="101" y="613"/>
      <point x="159" y="613" type="curve" smooth="yes"/>
      <point x="217" y="613"/>
      <point x="256" y="650"/>
    </contour>
    <contour>
      <point x="158" y="0" type="move" name="btm"/>
    </contour>
    <contour>
      <point x="155" y="975" type="move" name="top"/>
    </contour>
  </outline>
</glyph>
<glyph name="l" format="1">
  <advance width="319"/>
  <unicode hex="006C"/>
  <outline>
    <contour>
      <point x="84" y="109" type="line" name="hr00" smooth="yes"/>
      <point x="84" y="69"/>
      <point x="68" y="54"/>
      <point x="29" y="54" type="curve"/>
      <point x="29" y="32"/>
      <point x="37" y="16"/>
      <point x="52" y="0" type="curve"/>
      <point x="271" y="0" type="line"/>
      <point x="286" y="16"/>
      <point x="295" y="32"/>
      <point x="295" y="54" type="curve"/>
      <point x="255" y="54"/>
      <point x="240" y="68"/>
      <point x="240" y="109" type="curve" smooth="yes"/>
      <point x="240" y="733" type="line" smooth="yes"/>
      <point x="240" y="766"/>
      <point x="227" y="778"/>
      <point x="196" y="778" type="curve" smooth="yes"/>
      <point x="152" y="778"/>
      <point x="66" y="757"/>
      <point x="16" y="730" type="curve"/>
      <point x="16" y="690" type="line"/>
      <point x="72" y="690"/>
      <point x="84" y="670"/>
      <point x="84" y="640" type="curve" smooth="yes"/>
    </contour>
    <contour>
      <point x="165" y="0" type="move" name="btm"/>
    </contour>
    <contour>
      <point x="323" y="712" type="move" name="car"/>
    </contour>
    <contour>
      <point x="159" y="1003" type="move" name="top"/>
    </contour>
  </outline>
</glyph>
<glyph name="m" format="1">
  <advance width="902"/>
  <unicode hex="006D"/>
  <outline>
    <contour>
      <point x="834" y="100" type="curve" smooth="yes"/>
      <point x="834" y="407" type="line" name="hr01" smooth="yes"/>
      <point x="834" y="496"/>
      <point x="787" y="544"/>
      <point x="691" y="544" type="curve" smooth="yes"/>
      <point x="623" y="544"/>
      <point x="567" y="519"/>
      <point x="533" y="477" type="curve"/>
      <point x="513" y="521"/>
      <point x="469" y="544"/>
      <point x="403" y="544" type="curve" smooth="yes"/>
      <point x="336" y="544"/>
      <point x="284" y="519"/>
      <point x="250" y="480" type="curve"/>
      <point x="245" y="532"/>
      <point x="226" y="544"/>
      <point x="199" y="544" type="curve" smooth="yes"/>
      <point x="163" y="544"/>
      <point x="66" y="522"/>
      <point x="20" y="495" type="curve"/>
      <point x="20" y="451" type="line"/>
      <point x="71" y="451"/>
      <point x="87" y="436"/>
      <point x="87" y="401" type="curve" smooth="yes"/>
      <point x="87" y="108" type="line" smooth="yes"/>
      <point x="87" y="69"/>
      <point x="71" y="54"/>
      <point x="31" y="54" type="curve"/>
      <point x="31" y="32"/>
      <point x="40" y="15"/>
      <point x="55" y="0" type="curve"/>
      <point x="272" y="0" type="line"/>
      <point x="288" y="15"/>
      <point x="296" y="32"/>
      <point x="296" y="54" type="curve"/>
      <point x="263" y="54"/>
      <point x="250" y="69"/>
      <point x="250" y="108" type="curve" smooth="yes"/>
      <point x="250" y="411" type="line"/>
      <point x="268" y="433"/>
      <point x="295" y="446"/>
      <point x="321" y="446" type="curve" smooth="yes"/>
      <point x="356" y="446"/>
      <point x="384" y="422"/>
      <point x="384" y="379" type="curve" smooth="yes"/>
      <point x="384" y="108" type="line" smooth="yes"/>
      <point x="384" y="69"/>
      <point x="371" y="54"/>
      <point x="337" y="54" type="curve" name="hr03"/>
      <point x="337" y="32"/>
      <point x="346" y="15"/>
      <point x="360" y="0" type="curve"/>
      <point x="573" y="0" type="line"/>
      <point x="588" y="15"/>
      <point x="597" y="32"/>
      <point x="597" y="54" type="curve"/>
      <point x="562" y="54"/>
      <point x="547" y="69"/>
      <point x="547" y="108" type="curve" smooth="yes"/>
      <point x="547" y="407" type="line" smooth="yes"/>
      <point x="547" y="412"/>
      <point x="547" y="417"/>
      <point x="546" y="422" type="curve"/>
      <point x="563" y="438"/>
      <point x="584" y="446"/>
      <point x="606" y="446" type="curve" name="hr02" smooth="yes"/>
      <point x="644" y="446"/>
      <point x="670" y="422"/>
      <point x="670" y="379" type="curve" smooth="yes"/>
      <point x="670" y="38" type="line" smooth="yes"/>
      <point x="670" y="-4"/>
      <point x="711" y="-14"/>
      <point x="760" y="-14" type="curve" smooth="yes"/>
      <point x="822" y="-14"/>
      <point x="859" y="-2"/>
      <point x="883" y="19" type="curve"/>
      <point x="883" y="48" type="line"/>
      <point x="852" y="54"/>
      <point x="834" y="69"/>
    </contour>
    <contour>
      <point x="467" y="-8" type="move" name="btm"/>
    </contour>
    <contour>
      <point x="451" y="822" type="move" name="top"/>
    </contour>
  </outline>
</glyph>
<glyph name="o" format="1">
  <advance width="546"/>
  <unicode hex="006F"/>
  <outline>
    <contour>
      <point x="268" y="-13" type="curve" smooth="yes"/>
      <point x="416" y="-13"/>
      <point x="520" y="84"/>
      <point x="520" y="271" type="curve" smooth="yes"/>
      <point x="520" y="448"/>
      <point x="421" y="543"/>
      <point x="278" y="543" type="curve" smooth="yes"/>
      <point x="129" y="543"/>
      <point x="26" y="443"/>
      <point x="26" y="255" type="curve" smooth="yes"/>
      <point x="26" y="79"/>
      <point x="125" y="-13"/>
    </contour>
    <contour>
      <point x="276" y="59" type="curve" smooth="yes"/>
      <point x="230" y="59"/>
      <point x="200" y="96"/>
      <point x="200" y="282" type="curve" name="hr00" smooth="yes"/>
      <point x="200" y="438"/>
      <point x="227" y="472"/>
      <point x="270" y="472" type="curve" smooth="yes"/>
      <point x="316" y="472"/>
      <point x="345" y="435"/>
      <point x="345" y="247" type="curve" smooth="yes"/>
      <point x="345" y="93"/>
      <point x="318" y="59"/>
    </contour>
    <contour>
      <point x="278" y="-5" type="move" name="btm"/>
    </contour>
    <contour>
      <point x="270" y="822" type="move" name="top"/>
    </contour>
  </outline>
</glyph>
<glyph name="q" format="1">
  <advance width="561"/>
  <unicode hex="0071"/>
  <outline>
    <contour>
      <point x="502" y="-103" type="curve" smooth="yes"/>
      <point x="502" y="409" type="line" name="hr00" smooth="yes"/>
      <point x="502" y="449"/>
      <point x="504" y="465"/>
      <point x="544" y="465" type="curve"/>
      <point x="544" y="487"/>
      <point x="536" y="510"/>
      <point x="520" y="525" type="curve"/>
      <point x="455" y="525" type="line" smooth="yes"/>
      <point x="439" y="525"/>
      <point x="426" y="523"/>
      <point x="412" y="520" type="curve"/>
      <point x="375" y="532"/>
      <point x="334" y="540"/>
      <point x="294" y="540" type="curve" smooth="yes"/>
      <point x="145" y="540"/>
      <point x="28" y="430"/>
      <point x="28" y="239" type="curve" smooth="yes"/>
      <point x="28" y="68"/>
      <point x="126" y="-13"/>
      <point x="236" y="-13" type="curve" smooth="yes"/>
      <point x="279" y="-13"/>
      <point x="315" y="-2"/>
      <point x="341" y="24" type="curve"/>
      <point x="341" y="-166" type="line" smooth="yes"/>
      <point x="341" y="-208"/>
      <point x="379" y="-218"/>
      <point x="428" y="-218" type="curve" smooth="yes"/>
      <point x="490" y="-218"/>
      <point x="527" y="-206"/>
      <point x="551" y="-184" type="curve"/>
      <point x="551" y="-157" type="line"/>
      <point x="520" y="-150"/>
      <point x="502" y="-135"/>
    </contour>
    <contour>
      <point x="305" y="74" type="curve" smooth="yes"/>
      <point x="245" y="74"/>
      <point x="198" y="135"/>
      <point x="198" y="273" type="curve" smooth="yes"/>
      <point x="198" y="420"/>
      <point x="241" y="468"/>
      <point x="295" y="468" type="curve" smooth="yes"/>
      <point x="312" y="468"/>
      <point x="328" y="464"/>
      <point x="341" y="455" type="curve"/>
      <point x="341" y="83" type="line"/>
      <point x="332" y="78"/>
      <point x="320" y="74"/>
    </contour>
    <contour>
      <point x="289" y="-112" type="move" name="btm"/>
    </contour>
    <contour>
      <point x="289" y="863" type="move" name="top"/>
    </contour>
  </outline>
</glyph>
<glyph name="r" format="1">
  <advance width="450"/>
  <unicode hex="0072"/>
  <outline>
    <contour>
      <point x="368" y="543" type="curve" smooth="yes"/>
      <point x="310" y="543"/>
      <point x="253" y="497"/>
      <point x="231" y="455" type="curve"/>
      <point x="231" y="525"/>
      <point x="218" y="540"/>
      <point x="187" y="540" type="curve" smooth="yes"/>
      <point x="150" y="540"/>
      <point x="62" y="519"/>
      <point x="15" y="492" type="curve"/>
      <point x="15" y="447" type="line"/>
      <point x="66" y="447"/>
      <point x="81" y="433"/>
      <point x="81" y="398" type="curve" smooth="yes"/>
      <point x="81" y="109" type="line" smooth="yes"/>
      <point x="81" y="69"/>
      <point x="66" y="54"/>
      <point x="27" y="54" type="curve"/>
      <point x="27" y="31"/>
      <point x="35" y="15"/>
      <point x="50" y="0" type="curve"/>
      <point x="317" y="0" type="line"/>
      <point x="332" y="15"/>
      <point x="336" y="31"/>
      <point x="336" y="54" type="curve"/>
      <point x="254" y="54"/>
      <point x="240" y="72"/>
      <point x="240" y="118" type="curve" smooth="yes"/>
      <point x="240" y="418" type="line"/>
      <point x="260" y="436"/>
      <point x="280" y="444"/>
      <point x="301" y="449" type="curve"/>
      <point x="299" y="443"/>
      <point x="298" y="435"/>
      <point x="298" y="424" type="curve" smooth="yes"/>
      <point x="298" y="391"/>
      <point x="326" y="360"/>
      <point x="372" y="360" type="curve" smooth="yes"/>
      <point x="424" y="360"/>
      <point x="455" y="400"/>
      <point x="455" y="457" type="curve" smooth="yes"/>
      <point x="455" y="508"/>
      <point x="430" y="543"/>
    </contour>
    <contour>
      <point x="181" y="0" type="move" name="btm"/>
    </contour>
    <contour>
      <point x="263" y="822" type="move" name="top"/>
    </contour>
  </outline>
</glyph>
<glyph name="s" format="1">
  <advance width="475"/>
  <unicode hex="0073"/>
  <outline>
    <contour>
      <point x="231" y="-10" type="curve" name="hr00" smooth="yes"/>
      <point x="343" y="-10"/>
      <point x="452" y="31"/>
      <point x="452" y="143" type="curve" smooth="yes"/>
      <point x="452" y="246"/>
      <point x="369" y="286"/>
      <point x="296" y="324" type="curve" smooth="yes"/>
      <point x="242" y="352"/>
      <point x="191" y="377"/>
      <point x="191" y="423" type="curve" smooth="yes"/>
      <point x="191" y="452"/>
      <point x="215" y="476"/>
      <point x="259" y="476" type="curve" smooth="yes"/>
      <point x="285" y="476"/>
      <point x="304" y="472"/>
      <point x="319" y="460" type="curve"/>
      <point x="309" y="448"/>
      <point x="304" y="427"/>
      <point x="304" y="411" type="curve" smooth="yes"/>
      <point x="304" y="377"/>
      <point x="333" y="355"/>
      <point x="367" y="355" type="curve" smooth="yes"/>
      <point x="404" y="355"/>
      <point x="434" y="382"/>
      <point x="434" y="423" type="curve" smooth="yes"/>
      <point x="434" y="480"/>
      <point x="382" y="540"/>
      <point x="242" y="540" type="curve" smooth="yes"/>
      <point x="107" y="540"/>
      <point x="31" y="476"/>
      <point x="31" y="388" type="curve" smooth="yes"/>
      <point x="31" y="283"/>
      <point x="116" y="243"/>
      <point x="190" y="203" type="curve" smooth="yes"/>
      <point x="244" y="174"/>
      <point x="295" y="148"/>
      <point x="295" y="108" type="curve" smooth="yes"/>
      <point x="295" y="82"/>
      <point x="268" y="63"/>
      <point x="222" y="63" type="curve" smooth="yes"/>
      <point x="192" y="63"/>
      <point x="157" y="68"/>
      <point x="145" y="80" type="curve"/>
      <point x="156" y="94"/>
      <point x="161" y="105"/>
      <point x="161" y="123" type="curve" smooth="yes"/>
      <point x="161" y="162"/>
      <point x="131" y="188"/>
      <point x="94" y="188" type="curve" smooth="yes"/>
      <point x="53" y="188"/>
      <point x="23" y="157"/>
      <point x="23" y="110" type="curve" smooth="yes"/>
      <point x="23" y="33"/>
      <point x="136" y="-10"/>
    </contour>
    <contour>
      <point x="238" y="0" type="move" name="btm"/>
    </contour>
    <contour>
      <point x="247" y="822" type="move" name="top"/>
    </contour>
  </outline>
</glyph>
<glyph name="t" format="1">
  <advance width="377"/>
  <unicode hex="0074"/>
  <outline>
    <contour>
      <point x="329" y="441" type="line" name="hr00"/>
      <point x="344" y="465"/>
      <point x="345" y="498"/>
      <point x="345" y="530" type="curve"/>
      <point x="229" y="530" type="line"/>
      <point x="229" y="635" type="line" smooth="yes"/>
      <point x="229" y="662"/>
      <point x="211" y="701"/>
      <point x="158" y="701" type="curve" smooth="yes"/>
      <point x="148" y="701"/>
      <point x="137" y="700"/>
      <point x="125" y="698" type="curve"/>
      <point x="115" y="609"/>
      <point x="63" y="510"/>
      <point x="10" y="502" type="curve"/>
      <point x="10" y="441" type="line"/>
      <point x="71" y="441" type="line"/>
      <point x="71" y="166" type="line" smooth="yes"/>
      <point x="71" y="33"/>
      <point x="144" y="-7"/>
      <point x="228" y="-7" type="curve" smooth="yes"/>
      <point x="324" y="-7"/>
      <point x="369" y="44"/>
      <point x="369" y="88" type="curve" smooth="yes"/>
      <point x="369" y="100"/>
      <point x="365" y="129"/>
      <point x="350" y="141" type="curve"/>
      <point x="334" y="122"/>
      <point x="303" y="106"/>
      <point x="277" y="106" type="curve" smooth="yes"/>
      <point x="250" y="106"/>
      <point x="231" y="116"/>
      <point x="231" y="159" type="curve" smooth="yes"/>
      <point x="231" y="441" type="line"/>
    </contour>
    <contour>
      <point x="222" y="0" type="move" name="btm"/>
    </contour>
    <contour>
      <point x="314" y="712" type="move" name="car"/>
    </contour>
    <contour>
      <point x="170" y="939" type="move" name="top"/>
    </contour>
  </outline>
</glyph>
<glyph name="v" format="1">
  <advance width="528"/>
  <unicode hex="0076"/>
  <outline>
    <contour>
      <point x="200" y="405" type="line" name="hr00" smooth="yes"/>
      <point x="198" y="412"/>
      <point x="196" y="420"/>
      <point x="196" y="426" type="curve" smooth="yes"/>
      <point x="196" y="457"/>
      <point x="216" y="471"/>
      <point x="243" y="471" type="curve"/>
      <point x="243" y="492"/>
      <point x="235" y="516"/>
      <point x="220" y="531" type="curve"/>
      <point x="-8" y="531" type="line"/>
      <point x="-23" y="516"/>
      <point x="-29" y="492"/>
      <point x="-29" y="471" type="curve"/>
      <point x="6" y="471"/>
      <point x="16" y="455"/>
      <point x="29" y="419" type="curve" smooth="yes"/>
      <point x="187" y="-7" type="line"/>
      <point x="291" y="-7" type="line" smooth="yes"/>
      <point x="351" y="-7"/>
      <point x="372" y="26"/>
      <point x="393" y="100" type="curve"/>
      <point x="497" y="419" type="line" smooth="yes"/>
      <point x="509" y="455"/>
      <point x="522" y="471"/>
      <point x="557" y="471" type="curve"/>
      <point x="557" y="492"/>
      <point x="552" y="516"/>
      <point x="537" y="531" type="curve"/>
      <point x="343" y="531" type="line"/>
      <point x="328" y="516"/>
      <point x="324" y="492"/>
      <point x="324" y="471" type="curve"/>
      <point x="356" y="471"/>
      <point x="376" y="457"/>
      <point x="376" y="429" type="curve" smooth="yes"/>
      <point x="376" y="422"/>
      <point x="374" y="413"/>
      <point x="372" y="405" type="curve" smooth="yes"/>
      <point x="333" y="269" type="line"/>
      <point x="287" y="94" type="line"/>
      <point x="241" y="269" type="line"/>
    </contour>
    <contour>
      <point x="261" y="-2" type="move" name="btm"/>
    </contour>
    <contour>
      <point x="261" y="973" type="move" name="top"/>
    </contour>
  </outline>
</glyph>
<glyph name="braceright" format="1">
  <advance width="490"/>
  <unicode hex="007D"/>
  <outline>
    <contour>
      <point x="329" y="325" type="curve" name="hr00"/>
      <point x="247" y="292"/>
      <point x="205" y="243"/>
      <point x="205" y="171" type="curve" smooth="yes"/>
      <point x="205" y="48" type="line" smooth="yes"/>
      <point x="205" y="-59"/>
      <point x="162" y="-91"/>
      <point x="93" y="-91" type="curve" smooth="yes"/>
      <point x="57" y="-91" type="line"/>
      <point x="46" y="-112"/>
      <point x="41" y="-131"/>
      <point x="41" y="-154" type="curve"/>
      <point x="96" y="-154" type="line" smooth="yes"/>
      <point x="284" y="-154"/>
      <point x="370" y="-54"/>
      <point x="370" y="110" type="curve" smooth="yes"/>
      <point x="370" y="205" type="line" smooth="yes"/>
      <point x="370" y="260"/>
      <point x="409" y="300"/>
      <point x="446" y="300" type="curve"/>
      <point x="446" y="349" type="line"/>
      <point x="409" y="349"/>
      <point x="370" y="389"/>
      <point x="370" y="445" type="curve" smooth="yes"/>
      <point x="370" y="539" type="line" smooth="yes"/>
      <point x="370" y="703"/>
      <point x="284" y="803"/>
      <point x="96" y="803" type="curve" smooth="yes"/>
      <point x="41" y="803" type="line"/>
      <point x="41" y="780"/>
      <point x="46" y="761"/>
      <point x="57" y="741" type="curve"/>
      <point x="93" y="741" type="line" smooth="yes"/>
      <point x="162" y="741"/>
      <point x="205" y="708"/>
      <point x="205" y="601" type="curve" smooth="yes"/>
      <point x="205" y="478" type="line" smooth="yes"/>
      <point x="205" y="406"/>
      <point x="247" y="357"/>
    </contour>
  </outline>
</glyph>
<glyph name="asciitilde" format="1">
  <advance width="628"/>
  <unicode hex="007E"/>
  <outline>
    <contour>
      <point x="511" y="387" type="curve"/>
      <point x="473" y="349"/>
      <point x="441" y="335"/>
      <point x="412" y="335" type="curve" smooth="yes"/>
      <point x="363" y="335"/>
      <point x="331" y="408"/>
      <point x="223" y="408" type="curve" name="hr02" smooth="yes"/>
      <point x="142" y="408"/>
      <point x="66" y="348"/>
      <point x="51" y="298" type="curve" smooth="yes"/>
      <point x="41" y="264"/>
      <point x="96" y="220"/>
      <point x="117" y="235" type="curve"/>
      <point x="155" y="273"/>
      <point x="187" y="287"/>
      <point x="216" y="287" type="curve" smooth="yes"/>
      <point x="276" y="287"/>
      <point x="310" y="213"/>
      <point x="405" y="213" type="curve" smooth="yes"/>
      <point x="497" y="213"/>
      <point x="563" y="274"/>
      <point x="577" y="323" type="curve" smooth="yes"/>
      <point x="587" y="358"/>
      <point x="532" y="402"/>
    </contour>
  </outline>
</glyph>
<glyph name="exclamdown" format="1">
  <advance width="258"/>
  <unicode hex="00A1"/>
  <outline>
    <contour>
      <point x="28" y="429" type="curve" name="hr00" smooth="yes"/>
      <point x="28" y="370"/>
      <point x="68" y="331"/>
      <point x="129" y="331" type="curve" smooth="yes"/>
      <point x="190" y="331"/>
      <point x="230" y="370"/>
      <point x="230" y="429" type="curve" smooth="yes"/>
      <point x="230" y="489"/>
      <point x="190" y="529"/>
      <point x="129" y="529" type="curve" smooth="yes"/>
      <point x="68" y="529"/>
      <point x="28" y="489"/>
    </contour>
    <contour>
      <point x="88" y="208" type="line"/>
      <point x="38" y="-183" type="line" smooth="yes"/>
      <point x="37" y="-191"/>
      <point x="37" y="-198"/>
      <point x="37" y="-204" type="curve" smooth="yes"/>
      <point x="37" y="-252"/>
      <point x="62" y="-272"/>
      <point x="108" y="-272" type="curve" smooth="yes"/>
      <point x="151" y="-272" type="line" smooth="yes"/>
      <point x="195" y="-272"/>
      <point x="221" y="-252"/>
      <point x="221" y="-204" type="curve" smooth="yes"/>
      <point x="221" y="-198"/>
      <point x="220" y="-191"/>
      <point x="219" y="-183" type="curve" smooth="yes"/>
      <point x="170" y="208" type="line"/>
    </contour>
  </outline>
</glyph>
<glyph name="yen" format="1">
  <advance width="803"/>
  <unicode hex="00A5"/>
  <outline>
    <contour>
      <point x="507" y="355" type="line"/>
      <point x="698" y="355" type="line"/>
      <point x="716" y="373"/>
      <point x="725" y="397"/>
      <point x="725" y="424" type="curve"/>
      <point x="548" y="424" type="line"/>
      <point x="661" y="615" type="line" name="hr01"/>
      <point x="680" y="653"/>
      <point x="691" y="665"/>
      <point x="746" y="665" type="curve"/>
      <point x="746" y="688"/>
      <point x="737" y="712"/>
      <point x="722" y="728" type="curve"/>
      <point x="514" y="728" type="line"/>
      <point x="500" y="712"/>
      <point x="491" y="688"/>
      <point x="491" y="665" type="curve"/>
      <point x="522" y="665"/>
      <point x="541" y="646"/>
      <point x="541" y="622" type="curve" smooth="yes"/>
      <point x="541" y="616"/>
      <point x="541" y="608"/>
      <point x="537" y="601" type="curve"/>
      <point x="441" y="449" type="line"/>
      <point x="351" y="575" type="line" smooth="yes"/>
      <point x="339" y="591"/>
      <point x="338" y="608"/>
      <point x="338" y="620" type="curve" smooth="yes"/>
      <point x="338" y="649"/>
      <point x="361" y="665"/>
      <point x="405" y="665" type="curve"/>
      <point x="405" y="688"/>
      <point x="396" y="712"/>
      <point x="381" y="728" type="curve"/>
      <point x="81" y="728" type="line"/>
      <point x="67" y="712"/>
      <point x="58" y="688"/>
      <point x="58" y="665" type="curve"/>
      <point x="85" y="665"/>
      <point x="120" y="646"/>
      <point x="136" y="620" type="curve"/>
      <point x="265" y="424" type="line"/>
      <point x="134" y="424" type="line"/>
      <point x="134" y="355" type="line"/>
      <point x="312" y="355" type="line"/>
      <point x="332" y="325" type="line"/>
      <point x="332" y="245" type="line"/>
      <point x="134" y="245" type="line"/>
      <point x="134" y="176" type="line"/>
      <point x="332" y="176" type="line"/>
      <point x="332" y="144" type="line" smooth="yes"/>
      <point x="332" y="107"/>
      <point x="301" y="94"/>
      <point x="257" y="94" type="curve"/>
      <point x="257" y="70"/>
      <point x="266" y="46"/>
      <point x="280" y="30" type="curve"/>
      <point x="549" y="30" type="line"/>
      <point x="564" y="46"/>
      <point x="572" y="70"/>
      <point x="572" y="94" type="curve"/>
      <point x="527" y="94"/>
      <point x="496" y="107"/>
      <point x="496" y="144" type="curve" smooth="yes"/>
      <point x="496" y="176" type="line"/>
      <point x="698" y="176" type="line"/>
      <point x="716" y="195"/>
      <point x="725" y="219"/>
      <point x="725" y="245" type="curve"/>
      <point x="496" y="245" type="line"/>
      <point x="496" y="337" type="line"/>
    </contour>
  </outline>
</glyph>
<glyph name="section" format="1">
  <advance width="625"/>
  <unicode hex="00A7"/>
  <outline>
    <contour>
      <point x="433" y="108" type="curve"/>
      <point x="526" y="125"/>
      <point x="574" y="173"/>
      <point x="574" y="259" type="curve" smooth="yes"/>
      <point x="574" y="383"/>
      <point x="460" y="444"/>
      <point x="364" y="496" type="curve" smooth="yes"/>
      <point x="297" y="532"/>
      <point x="229" y="572"/>
      <point x="229" y="637" type="curve" smooth="yes"/>
      <point x="229" y="683"/>
      <point x="265" y="715"/>
      <point x="318" y="715" type="curve" smooth="yes"/>
      <point x="387" y="715"/>
      <point x="426" y="663"/>
      <point x="452" y="559" type="curve"/>
      <point x="542" y="559" type="line" name="hr02"/>
      <point x="543" y="570"/>
      <point x="543" y="581"/>
      <point x="543" y="592" type="curve" smooth="yes"/>
      <point x="543" y="657"/>
      <point x="534" y="742"/>
      <point x="519" y="786" type="curve"/>
      <point x="452" y="751" type="line"/>
      <point x="421" y="768"/>
      <point x="386" y="786"/>
      <point x="313" y="786" type="curve" smooth="yes"/>
      <point x="190" y="786"/>
      <point x="79" y="731"/>
      <point x="79" y="601" type="curve" smooth="yes"/>
      <point x="79" y="522"/>
      <point x="120" y="466"/>
      <point x="189" y="417" type="curve"/>
      <point x="98" y="398"/>
      <point x="52" y="347"/>
      <point x="52" y="263" type="curve" smooth="yes"/>
      <point x="52" y="140"/>
      <point x="167" y="78"/>
      <point x="263" y="26" type="curve" smooth="yes"/>
      <point x="329" y="-10"/>
      <point x="397" y="-50"/>
      <point x="397" y="-115" type="curve" smooth="yes"/>
      <point x="397" y="-166"/>
      <point x="356" y="-194"/>
      <point x="307" y="-194" type="curve" smooth="yes"/>
      <point x="247" y="-194"/>
      <point x="194" y="-151"/>
      <point x="166" y="-38" type="curve"/>
      <point x="75" y="-38" type="line" name="hr06"/>
      <point x="75" y="-101"/>
      <point x="85" y="-208"/>
      <point x="99" y="-265" type="curve"/>
      <point x="166" y="-230" type="line"/>
      <point x="203" y="-249"/>
      <point x="246" y="-265"/>
      <point x="311" y="-265" type="curve" smooth="yes"/>
      <point x="432" y="-265"/>
      <point x="548" y="-211"/>
      <point x="548" y="-79" type="curve" smooth="yes"/>
      <point x="548" y="1"/>
      <point x="505" y="58"/>
    </contour>
    <contour>
      <point x="204" y="304" type="curve" name="hr07" smooth="yes"/>
      <point x="204" y="332"/>
      <point x="218" y="363"/>
      <point x="255" y="376" type="curve"/>
      <point x="273" y="366" type="line" smooth="yes"/>
      <point x="344" y="328"/>
      <point x="422" y="285"/>
      <point x="422" y="217" type="curve" name="hr03" smooth="yes"/>
      <point x="422" y="190"/>
      <point x="409" y="158"/>
      <point x="372" y="145" type="curve"/>
      <point x="265" y="203"/>
      <point x="204" y="236"/>
    </contour>
  </outline>
</glyph>
<glyph name="copyright" format="1">
  <advance width="872"/>
  <unicode hex="00A9"/>
  <outline>
    <contour>
      <point x="568" y="427" type="line" name="hr00"/>
      <point x="568" y="466"/>
      <point x="566" y="533"/>
      <point x="551" y="573" type="curve"/>
      <point x="539" y="572"/>
      <point x="514" y="565"/>
      <point x="502" y="560" type="curve"/>
      <point x="486" y="568"/>
      <point x="467" y="574"/>
      <point x="441" y="574" type="curve" smooth="yes"/>
      <point x="350" y="574"/>
      <point x="264" y="507"/>
      <point x="264" y="364" type="curve" smooth="yes"/>
      <point x="264" y="226"/>
      <point x="345" y="152"/>
      <point x="449" y="152" type="curve" smooth="yes"/>
      <point x="527" y="152"/>
      <point x="570" y="193"/>
      <point x="570" y="225" type="curve" smooth="yes"/>
      <point x="570" y="238"/>
      <point x="564" y="259"/>
      <point x="555" y="268" type="curve"/>
      <point x="545" y="252"/>
      <point x="519" y="236"/>
      <point x="484" y="236" type="curve" smooth="yes"/>
      <point x="426" y="236"/>
      <point x="375" y="281"/>
      <point x="375" y="391" type="curve" smooth="yes"/>
      <point x="375" y="477"/>
      <point x="406" y="506"/>
      <point x="445" y="506" type="curve" smooth="yes"/>
      <point x="480" y="506"/>
      <point x="510" y="480"/>
      <point x="517" y="427" type="curve"/>
    </contour>
    <contour>
      <point x="436" y="3" type="curve" smooth="yes"/>
      <point x="648" y="3"/>
      <point x="798" y="156"/>
      <point x="798" y="365" type="curve" smooth="yes"/>
      <point x="798" y="574"/>
      <point x="648" y="726"/>
      <point x="436" y="726" type="curve" smooth="yes"/>
      <point x="225" y="726"/>
      <point x="74" y="574"/>
      <point x="74" y="365" type="curve" smooth="yes"/>
      <point x="74" y="156"/>
      <point x="225" y="3"/>
    </contour>
    <contour>
      <point x="436" y="663" type="curve" smooth="yes"/>
      <point x="613" y="663"/>
      <point x="734" y="535"/>
      <point x="734" y="365" type="curve" smooth="yes"/>
      <point x="734" y="195"/>
      <point x="613" y="67"/>
      <point x="436" y="67" type="curve" smooth="yes"/>
      <point x="260" y="67"/>
      <point x="139" y="195"/>
      <point x="139" y="365" type="curve" smooth="yes"/>
      <point x="139" y="535"/>
      <point x="260" y="663"/>
    </contour>
  </outline>
</glyph>
<glyph name="logicalnot" format="1">
  <advance width="608"/>
  <unicode hex="00AC"/>
  <outline>
    <contour>
      <point x="58" y="381" type="line" name="hr00"/>
      <point x="52" y="369"/>
      <point x="50" y="349"/>
      <point x="50" y="329" type="curve" smooth="yes"/>
      <point x="50" y="310"/>
      <point x="52" y="291"/>
      <point x="57" y="279" type="curve"/>
      <point x="543" y="279" type="line"/>
      <point x="552" y="301"/>
      <point x="552" y="355"/>
      <point x="558" y="381" type="curve"/>
    </contour>
    <contour>
      <point x="558" y="381" type="line"/>
      <point x="451" y="360" type="line"/>
      <point x="451" y="107" type="line"/>
      <point x="464" y="103"/>
      <point x="483" y="100"/>
      <point x="504" y="100" type="curve" smooth="yes"/>
      <point x="524" y="100"/>
      <point x="544" y="102"/>
      <point x="558" y="107" type="curve"/>
    </contour>
  </outline>
</glyph>
<glyph name="paragraph" format="1">
  <advance width="790"/>
  <unicode hex="00B6"/>
  <outline>
    <contour>
      <point x="703" y="38" type="line" name="hr01"/>
      <point x="718" y="54"/>
      <point x="726" y="78"/>
      <point x="726" y="102" type="curve"/>
      <point x="682" y="102"/>
      <point x="664" y="115"/>
      <point x="664" y="152" type="curve" smooth="yes"/>
      <point x="664" y="699" type="line" smooth="yes"/>
      <point x="664" y="735"/>
      <point x="682" y="750"/>
      <point x="726" y="750" type="curve" name="hr02"/>
      <point x="726" y="773"/>
      <point x="718" y="797"/>
      <point x="703" y="813" type="curve"/>
      <point x="488" y="813" type="line" smooth="yes"/>
      <point x="431" y="813"/>
      <point x="351" y="825"/>
      <point x="310" y="825" type="curve" smooth="yes"/>
      <point x="91" y="825"/>
      <point x="68" y="714"/>
      <point x="68" y="604" type="curve" name="hr03" smooth="yes"/>
      <point x="68" y="475"/>
      <point x="122" y="383"/>
      <point x="230" y="383" type="curve" smooth="yes"/>
      <point x="244" y="383"/>
      <point x="274" y="385"/>
      <point x="290" y="392" type="curve"/>
      <point x="290" y="197" type="line" smooth="yes"/>
      <point x="290" y="119"/>
      <point x="270" y="102"/>
      <point x="180" y="102" type="curve"/>
      <point x="180" y="78"/>
      <point x="187" y="54"/>
      <point x="203" y="38" type="curve"/>
      <point x="427" y="38" type="line"/>
      <point x="427" y="690" type="line" smooth="yes"/>
      <point x="427" y="727"/>
      <point x="435" y="741"/>
      <point x="480" y="741" type="curve" name="hr04" smooth="yes"/>
      <point x="524" y="741"/>
      <point x="527" y="727"/>
      <point x="527" y="690" type="curve" smooth="yes"/>
      <point x="527" y="38" type="line"/>
    </contour>
  </outline>
</glyph>
<glyph name="Eth" format="1">
  <advance width="668"/>
  <unicode hex="00D0"/>
  <outline>
    <contour>
      <point x="344" y="333" type="line"/>
      <point x="361" y="352"/>
      <point x="360" y="385"/>
      <point x="360" y="411" type="curve"/>
      <point x="39" y="411" type="line"/>
      <point x="39" y="333" type="line"/>
    </contour>
    <component base="D"/>
  </outline>
</glyph>
<glyph name="multiply" format="1">
  <advance width="579"/>
  <unicode hex="00D7"/>
  <outline>
    <contour>
      <point x="444" y="91" type="line" name="hr00"/>
      <point x="470" y="100"/>
      <point x="515" y="144"/>
      <point x="527" y="173" type="curve"/>
      <point x="135" y="568" type="line"/>
      <point x="108" y="558"/>
      <point x="63" y="514"/>
      <point x="50" y="483" type="curve"/>
    </contour>
    <contour>
      <point x="529" y="483" type="line"/>
      <point x="517" y="508"/>
      <point x="476" y="555"/>
      <point x="444" y="568" type="curve"/>
      <point x="50" y="173" type="line"/>
      <point x="61" y="148"/>
      <point x="104" y="102"/>
      <point x="135" y="88" type="curve"/>
    </contour>
  </outline>
</glyph>
<glyph name="eth" format="1">
  <advance width="555"/>
  <unicode hex="00F0"/>
  <outline>
    <contour>
      <point x="377" y="709" type="curve"/>
      <point x="453" y="760" type="line" name="hr00"/>
      <point x="447" y="789"/>
      <point x="431" y="800"/>
      <point x="411" y="811" type="curve"/>
      <point x="325" y="755" type="line"/>
      <point x="281" y="786"/>
      <point x="235" y="803"/>
      <point x="193" y="803" type="curve" smooth="yes"/>
      <point x="159" y="803"/>
      <point x="144" y="792"/>
      <point x="132" y="758" type="curve"/>
      <point x="171" y="740"/>
      <point x="204" y="718"/>
      <point x="232" y="693" type="curve"/>
      <point x="160" y="646" type="line"/>
      <point x="160" y="632"/>
      <point x="182" y="599"/>
      <point x="206" y="595" type="curve"/>
      <point x="278" y="643" type="line"/>
      <point x="316" y="593"/>
      <point x="338" y="537"/>
      <point x="351" y="478" type="curve"/>
      <point x="326" y="498"/>
      <point x="292" y="510"/>
      <point x="251" y="510" type="curve" smooth="yes"/>
      <point x="138" y="510"/>
      <point x="26" y="419"/>
      <point x="26" y="240" type="curve" smooth="yes"/>
      <point x="26" y="80"/>
      <point x="132" y="-9"/>
      <point x="279" y="-9" type="curve" smooth="yes"/>
      <point x="429" y="-9"/>
      <point x="529" y="90"/>
      <point x="529" y="296" type="curve" smooth="yes"/>
      <point x="529" y="478"/>
      <point x="462" y="622"/>
    </contour>
    <contour>
      <point x="284" y="63" type="curve" smooth="yes"/>
      <point x="241" y="63"/>
      <point x="206" y="92"/>
      <point x="206" y="248" type="curve" smooth="yes"/>
      <point x="206" y="405"/>
      <point x="233" y="438"/>
      <point x="281" y="438" type="curve" smooth="yes"/>
      <point x="318" y="438"/>
      <point x="364" y="420"/>
      <point x="364" y="339" type="curve" smooth="yes"/>
      <point x="364" y="92"/>
      <point x="340" y="63"/>
    </contour>
    <contour>
      <point x="276" y="-5" type="move" name="btm"/>
    </contour>
    <contour>
      <point x="276" y="970" type="move" name="top"/>
    </contour>
  </outline>
</glyph>
<glyph name="divide" format="1">
  <advance width="629"/>
  <unicode hex="00F7"/>
  <outline>
    <contour>
      <point x="414" y="83" type="curve" name="hr00" smooth="yes"/>
      <point x="414" y="138"/>
      <point x="377" y="174"/>
      <point x="320" y="174" type="curve" smooth="yes"/>
      <point x="264" y="174"/>
      <point x="228" y="138"/>
      <point x="228" y="83" type="curve" smooth="yes"/>
      <point x="228" y="28"/>
      <point x="264" y="-10"/>
      <point x="320" y="-10" type="curve" smooth="yes"/>
      <point x="377" y="-10"/>
      <point x="414" y="28"/>
    </contour>
    <contour>
      <point x="414" y="563" type="curve" smooth="yes"/>
      <point x="414" y="618"/>
      <point x="377" y="655"/>
      <point x="320" y="655" type="curve" smooth="yes"/>
      <point x="264" y="655"/>
      <point x="228" y="618"/>
      <point x="228" y="563" type="curve" smooth="yes"/>
      <point x="228" y="508"/>
      <point x="264" y="471"/>
      <point x="320" y="471" type="curve" smooth="yes"/>
      <point x="377" y="471"/>
      <point x="414" y="508"/>
    </contour>
    <contour>
      <point x="60" y="381" type="line" name="hr00"/>
      <point x="53" y="369"/>
      <point x="50" y="346"/>
      <point x="50" y="322" type="curve" smooth="yes"/>
      <point x="50" y="303"/>
      <point x="52" y="281"/>
      <point x="58" y="267" type="curve"/>
      <point x="571" y="267" type="line"/>
      <point x="577" y="279"/>
      <point x="579" y="300"/>
      <point x="579" y="322" type="curve" smooth="yes"/>
      <point x="579" y="344"/>
      <point x="577" y="367"/>
      <point x="571" y="381" type="curve"/>
    </contour>
  </outline>
</glyph>
<glyph name="oslash" format="1">
  <advance width="546"/>
  <unicode hex="00F8"/>
  <outline>
    <contour>
      <point x="31" y="-16" type="line"/>
      <point x="105" y="-16" type="line"/>
      <point x="180" y="85" type="line"/>
      <point x="201" y="113" type="line"/>
      <point x="371" y="376" type="line"/>
      <point x="405" y="407" type="line"/>
      <point x="510" y="546" type="line"/>
      <point x="435" y="546" type="line"/>
      <point x="371" y="458" type="line"/>
      <point x="343" y="426" type="line"/>
      <point x="167" y="153" type="line"/>
      <point x="132" y="120" type="line"/>
    </contour>
    <component base="o"/>
    <contour>
      <point x="27" y="224" type="move" name="_vslash"/>
    </contour>
    <contour>
      <point x="270" y="822" type="move" name="top"/>
    </contour>
  </outline>
</glyph>
<glyph name="thorn" format="1">
  <advance width="569"/>
  <unicode hex="00FE"/>
  <outline>
    <contour>
      <point x="270" y="-8" type="curve" smooth="yes"/>
      <point x="419" y="-8"/>
      <point x="541" y="91"/>
      <point x="541" y="283" type="curve" smooth="yes"/>
      <point x="541" y="458"/>
      <point x="442" y="540"/>
      <point x="332" y="540" type="curve" smooth="yes"/>
      <point x="286" y="540"/>
      <point x="246" y="529"/>
      <point x="219" y="501" type="curve"/>
      <point x="222" y="596" type="line"/>
      <point x="222" y="738" type="line" smooth="yes"/>
      <point x="222" y="771"/>
      <point x="210" y="784"/>
      <point x="178" y="784" type="curve" smooth="yes"/>
      <point x="135" y="784"/>
      <point x="51" y="758"/>
      <point x="6" y="727" type="curve"/>
      <point x="6" y="695" type="line"/>
      <point x="50" y="695"/>
      <point x="67" y="676"/>
      <point x="67" y="646" type="curve" smooth="yes"/>
      <point x="67" y="-82" type="line"/>
      <point x="67" y="-121"/>
      <point x="62" y="-137"/>
      <point x="22" y="-137" type="curve"/>
      <point x="22" y="-159"/>
      <point x="31" y="-175"/>
      <point x="46" y="-190" type="curve"/>
      <point x="269" y="-190" type="line"/>
      <point x="284" y="-175"/>
      <point x="292" y="-159"/>
      <point x="292" y="-137" type="curve"/>
      <point x="262" y="-137"/>
      <point x="222" y="-121"/>
      <point x="222" y="-82" type="curve" smooth="yes"/>
      <point x="222" y="-4" type="line"/>
      <point x="235" y="-7"/>
      <point x="255" y="-8"/>
    </contour>
    <contour>
      <point x="222" y="444" type="line"/>
      <point x="232" y="451"/>
      <point x="248" y="455"/>
      <point x="263" y="455" type="curve" smooth="yes"/>
      <point x="324" y="455"/>
      <point x="371" y="395"/>
      <point x="371" y="249" type="curve" smooth="yes"/>
      <point x="371" y="106"/>
      <point x="327" y="65"/>
      <point x="273" y="65" type="curve" smooth="yes"/>
      <point x="254" y="65"/>
      <point x="235" y="71"/>
      <point x="222" y="84" type="curve"/>
    </contour>
    <contour>
      <point x="462" y="-270" type="move" name="btm"/>
    </contour>
    <contour>
      <point x="462" y="664" type="move" name="top"/>
    </contour>
  </outline>
</glyph>
<glyph name="Aogonek" format="1">
  <advance width="678"/>
  <unicode hex="0104"/>
  <outline>
    <contour>
      <point x="634" y="1" type="curve"/>
      <point x="622" y="37" type="line"/>
      <point x="573" y="37"/>
      <point x="429" y="-7"/>
      <point x="429" y="-127" type="curve" smooth="yes"/>
      <point x="429" y="-209"/>
      <point x="497" y="-240"/>
      <point x="559" y="-240" type="curve" smooth="yes"/>
      <point x="606" y="-240"/>
      <point x="647" y="-225"/>
      <point x="664" y="-208" type="curve" smooth="yes"/>
      <point x="678" y="-194"/>
      <point x="682" y="-175"/>
      <point x="682" y="-156" type="curve" smooth="yes"/>
      <point x="682" y="-144"/>
      <point x="680" y="-127"/>
      <point x="674" y="-118" type="curve"/>
      <point x="662" y="-128"/>
      <point x="634" y="-136"/>
      <point x="606" y="-136" type="curve" smooth="yes"/>
      <point x="575" y="-136"/>
      <point x="543" y="-126"/>
      <point x="543" y="-97" type="curve" smooth="yes"/>
      <point x="543" y="-53"/>
      <point x="573" y="-14"/>
    </contour>
    <component base="A"/>
  </outline>
</glyph>
<glyph name="aogonek" format="1">
  <advance width="522"/>
  <unicode hex="0105"/>
  <outline>
    <contour>
      <point x="471" y="3" type="curve"/>
      <point x="459" y="39" type="line"/>
      <point x="410" y="39"/>
      <point x="266" y="-5"/>
      <point x="266" y="-125" type="curve" smooth="yes"/>
      <point x="266" y="-207"/>
      <point x="334" y="-238"/>
      <point x="396" y="-238" type="curve" smooth="yes"/>
      <point x="443" y="-238"/>
      <point x="484" y="-223"/>
      <point x="501" y="-206" type="curve" smooth="yes"/>
      <point x="515" y="-192"/>
      <point x="519" y="-173"/>
      <point x="519" y="-154" type="curve" smooth="yes"/>
      <point x="519" y="-142"/>
      <point x="517" y="-125"/>
      <point x="511" y="-116" type="curve"/>
      <point x="499" y="-126"/>
      <point x="471" y="-134"/>
      <point x="443" y="-134" type="curve" smooth="yes"/>
      <point x="412" y="-134"/>
      <point x="380" y="-124"/>
      <point x="380" y="-95" type="curve" smooth="yes"/>
      <point x="380" y="-51"/>
      <point x="410" y="-12"/>
    </contour>
    <component base="a"/>
    <contour>
      <point x="427" y="46" type="move" name="btm"/>
    </contour>
  </outline>
</glyph>
<glyph name="dcroat" format="1">
  <advance width="568"/>
  <unicode hex="0111"/>
  <outline>
    <contour>
      <point x="245" y="640" type="line" name="hr00"/>
      <point x="240" y="631"/>
      <point x="238" y="620"/>
      <point x="238" y="601" type="curve" smooth="yes"/>
      <point x="238" y="585"/>
      <point x="240" y="573"/>
      <point x="244" y="562" type="curve"/>
      <point x="559" y="562" type="line"/>
      <point x="562" y="571"/>
      <point x="564" y="584"/>
      <point x="564" y="601" type="curve" smooth="yes"/>
      <point x="564" y="618"/>
      <point x="562" y="629"/>
      <point x="558" y="640" type="curve"/>
    </contour>
    <component base="d"/>
  </outline>
</glyph>
<glyph name="Eogonek" format="1">
  <advance width="610"/>
  <unicode hex="0118"/>
  <outline>
    <contour>
      <point x="493" y="0" type="curve"/>
      <point x="507" y="0" type="line"/>
      <point x="531" y="-11"/>
      <point x="541" y="-14"/>
      <point x="549" y="-16" type="curve"/>
      <point x="568" y="20"/>
      <point x="585" y="171"/>
      <point x="585" y="210" type="curve"/>
      <point x="478" y="210" type="line"/>
      <point x="460" y="154"/>
      <point x="433" y="88"/>
      <point x="375" y="88" type="curve" smooth="yes"/>
      <point x="254" y="88" type="line"/>
      <point x="254" y="325" type="line"/>
      <point x="327" y="325" type="line" smooth="yes"/>
      <point x="364" y="325"/>
      <point x="392" y="302"/>
      <point x="392" y="249" type="curve"/>
      <point x="421" y="249"/>
      <point x="451" y="257"/>
      <point x="472" y="270" type="curve"/>
      <point x="472" y="454" type="line"/>
      <point x="450" y="467"/>
      <point x="421" y="475"/>
      <point x="391" y="475" type="curve"/>
      <point x="391" y="421"/>
      <point x="363" y="402"/>
      <point x="326" y="402" type="curve" smooth="yes"/>
      <point x="254" y="402" type="line"/>
      <point x="254" y="613" type="line"/>
      <point x="363" y="613" type="line" smooth="yes"/>
      <point x="416" y="613"/>
      <point x="444" y="566"/>
      <point x="459" y="522" type="curve"/>
      <point x="483" y="527"/>
      <point x="537" y="545"/>
      <point x="554" y="561" type="curve"/>
      <point x="554" y="594"/>
      <point x="531" y="682"/>
      <point x="514" y="715" type="curve"/>
      <point x="489" y="715"/>
      <point x="457" y="709"/>
      <point x="433" y="698" type="curve"/>
      <point x="49" y="698" type="line"/>
      <point x="36" y="681"/>
      <point x="26" y="658"/>
      <point x="26" y="635" type="curve" name="hr03"/>
      <point x="70" y="635"/>
      <point x="87" y="621"/>
      <point x="87" y="584" type="curve" smooth="yes"/>
      <point x="87" y="115" type="line" smooth="yes"/>
      <point x="87" y="77"/>
      <point x="70" y="63"/>
      <point x="26" y="63" type="curve"/>
      <point x="26" y="40"/>
      <point x="36" y="17"/>
      <point x="49" y="0" type="curve" name="hr04"/>
      <point x="375" y="0" type="line"/>
      <point x="333" y="-23"/>
      <point x="292" y="-67"/>
      <point x="292" y="-127" type="curve" smooth="yes"/>
      <point x="292" y="-209"/>
      <point x="360" y="-240"/>
      <point x="422" y="-240" type="curve" smooth="yes"/>
      <point x="469" y="-240"/>
      <point x="510" y="-224"/>
      <point x="527" y="-208" type="curve" smooth="yes"/>
      <point x="541" y="-194"/>
      <point x="545" y="-175"/>
      <point x="545" y="-156" type="curve" smooth="yes"/>
      <point x="545" y="-144"/>
      <point x="543" y="-127"/>
      <point x="537" y="-118" type="curve"/>
      <point x="525" y="-128"/>
      <point x="497" y="-136"/>
      <point x="469" y="-136" type="curve" smooth="yes"/>
      <point x="438" y="-136"/>
      <point x="406" y="-126"/>
      <point x="406" y="-97" type="curve" smooth="yes"/>
      <point x="406" y="-54"/>
      <point x="435" y="-16"/>
    </contour>
    <contour>
      <point x="310" y="-12" type="move" name="btm"/>
    </contour>
    <contour>
      <point x="305" y="963" type="move" name="top"/>
    </contour>
  </outline>
</glyph>
<glyph name="Hbar" format="1">
  <advance width="727"/>
  <unicode hex="0126"/>
  <outline>
    <contour>
      <point x="212" y="349" type="line" name="hr00"/>
      <point x="209" y="267" type="line"/>
      <point x="570" y="267" type="line"/>
      <point x="544" y="349" type="line"/>
    </contour>
    <contour>
      <point x="671" y="434" type="line"/>
      <point x="688" y="453"/>
      <point x="687" y="486"/>
      <point x="687" y="512" type="curve"/>
      <point x="39" y="512" type="line"/>
      <point x="39" y="434" type="line"/>
    </contour>
    <contour>
      <point x="293" y="0" type="line"/>
      <point x="306" y="16"/>
      <point x="315" y="40"/>
      <point x="315" y="64" type="curve"/>
      <point x="271" y="64"/>
      <point x="255" y="77"/>
      <point x="255" y="114" type="curve" smooth="yes"/>
      <point x="255" y="584" type="line" smooth="yes"/>
      <point x="255" y="621"/>
      <point x="271" y="635"/>
      <point x="315" y="635" type="curve"/>
      <point x="315" y="658"/>
      <point x="306" y="682"/>
      <point x="293" y="698" type="curve"/>
      <point x="48" y="698" type="line"/>
      <point x="34" y="682"/>
      <point x="26" y="658"/>
      <point x="26" y="635" type="curve" name="hr03"/>
      <point x="70" y="635"/>
      <point x="86" y="621"/>
      <point x="86" y="584" type="curve" smooth="yes"/>
      <point x="86" y="114" type="line" smooth="yes"/>
      <point x="86" y="77"/>
      <point x="70" y="64"/>
      <point x="26" y="64" type="curve"/>
      <point x="26" y="40"/>
      <point x="34" y="16"/>
      <point x="48" y="0" type="curve" name="hr04"/>
    </contour>
    <contour>
      <point x="679" y="0" type="line"/>
      <point x="693" y="16"/>
      <point x="701" y="40"/>
      <point x="701" y="64" type="curve"/>
      <point x="658" y="64"/>
      <point x="642" y="77"/>
      <point x="642" y="114" type="curve" smooth="yes"/>
      <point x="642" y="584" type="line" smooth="yes"/>
      <point x="642" y="621"/>
      <point x="658" y="635"/>
      <point x="701" y="635" type="curve"/>
      <point x="701" y="658"/>
      <point x="693" y="682"/>
      <point x="679" y="698" type="curve"/>
      <point x="435" y="698" type="line"/>
      <point x="421" y="682"/>
      <point x="413" y="658"/>
      <point x="413" y="635" type="curve"/>
      <point x="456" y="635"/>
      <point x="473" y="621"/>
      <point x="473" y="584" type="curve" smooth="yes"/>
      <point x="473" y="114" type="line" smooth="yes"/>
      <point x="473" y="77"/>
      <point x="456" y="64"/>
      <point x="413" y="64" type="curve"/>
      <point x="413" y="40"/>
      <point x="421" y="16"/>
      <point x="435" y="0" type="curve"/>
    </contour>
  </outline>
</glyph>
<glyph name="Iogonek" format="1">
  <advance width="325"/>
  <unicode hex="012E"/>
  <outline>
    <contour>
      <point x="256" y="1" type="curve"/>
      <point x="244" y="37" type="line"/>
      <point x="195" y="37"/>
      <point x="51" y="-7"/>
      <point x="51" y="-127" type="curve" smooth="yes"/>
      <point x="51" y="-209"/>
      <point x="119" y="-240"/>
      <point x="181" y="-240" type="curve" smooth="yes"/>
      <point x="228" y="-240"/>
      <point x="269" y="-224"/>
      <point x="286" y="-208" type="curve" smooth="yes"/>
      <point x="300" y="-194"/>
      <point x="304" y="-175"/>
      <point x="304" y="-156" type="curve" smooth="yes"/>
      <point x="304" y="-144"/>
      <point x="302" y="-127"/>
      <point x="296" y="-118" type="curve"/>
      <point x="284" y="-128"/>
      <point x="256" y="-136"/>
      <point x="228" y="-136" type="curve" smooth="yes"/>
      <point x="197" y="-136"/>
      <point x="165" y="-126"/>
      <point x="165" y="-97" type="curve" smooth="yes"/>
      <point x="165" y="-53"/>
      <point x="195" y="-14"/>
    </contour>
    <component base="I"/>
  </outline>
</glyph>
<glyph name="iogonek" format="1">
  <advance width="312"/>
  <unicode hex="012F"/>
  <outline>
    <contour>
      <point x="229" y="4" type="curve"/>
      <point x="217" y="40" type="line"/>
      <point x="168" y="40"/>
      <point x="24" y="-4"/>
      <point x="24" y="-124" type="curve" smooth="yes"/>
      <point x="24" y="-206"/>
      <point x="92" y="-237"/>
      <point x="154" y="-237" type="curve" smooth="yes"/>
      <point x="201" y="-237"/>
      <point x="242" y="-222"/>
      <point x="259" y="-205" type="curve" smooth="yes"/>
      <point x="273" y="-191"/>
      <point x="277" y="-172"/>
      <point x="277" y="-153" type="curve" smooth="yes"/>
      <point x="277" y="-141"/>
      <point x="275" y="-124"/>
      <point x="269" y="-115" type="curve"/>
      <point x="257" y="-125"/>
      <point x="229" y="-133"/>
      <point x="201" y="-133" type="curve" smooth="yes"/>
      <point x="170" y="-133"/>
      <point x="138" y="-123"/>
      <point x="138" y="-94" type="curve" smooth="yes"/>
      <point x="138" y="-50"/>
      <point x="168" y="-11"/>
    </contour>
    <component base="idotless"/>
    <component base="dotaccentcomb" xOffset="145"/>
  </outline>
</glyph>
<glyph name="Lslash" format="1">
  <advance width="537"/>
  <unicode hex="0141"/>
  <outline>
    <contour>
      <point x="-16" y="255" type="line"/>
      <point x="37" y="200" type="line"/>
      <point x="377" y="486" type="line"/>
      <point x="325" y="540" type="line"/>
    </contour>
    <component base="L"/>
  </outline>
</glyph>
<glyph name="lslash" format="1">
  <advance width="399"/>
  <unicode hex="0142"/>
  <outline>
    <contour>
      <point x="3" y="255" type="line"/>
      <point x="56" y="200" type="line"/>
      <point x="396" y="486" type="line"/>
      <point x="344" y="540" type="line"/>
    </contour>
    <component base="l" xOffset="30"/>
  </outline>
</glyph>
<glyph name="eng" format="1">
  <advance width="561"/>
  <unicode hex="014B"/>
  <outline>
    <contour>
      <point x="282" y="0" type="line" name="hr00"/>
      <point x="297" y="15"/>
      <point x="305" y="37"/>
      <point x="305" y="58" type="curve"/>
      <point x="266" y="58"/>
      <point x="250" y="73"/>
      <point x="250" y="113" type="curve" smooth="yes"/>
      <point x="250" y="455" type="line" smooth="yes"/>
      <point x="250" y="528"/>
      <point x="231" y="544"/>
      <point x="199" y="544" type="curve" smooth="yes"/>
      <point x="163" y="544"/>
      <point x="67" y="522"/>
      <point x="20" y="496" type="curve"/>
      <point x="20" y="451" type="line"/>
      <point x="71" y="451"/>
      <point x="87" y="436"/>
      <point x="87" y="401" type="curve" smooth="yes"/>
      <point x="87" y="113" type="line" smooth="yes"/>
      <point x="87" y="74"/>
      <point x="71" y="58"/>
      <point x="32" y="58" type="curve"/>
      <point x="32" y="37"/>
      <point x="40" y="15"/>
      <point x="55" y="0" type="curve"/>
    </contour>
    <contour>
      <point x="379" y="-196" type="curve" smooth="yes"/>
      <point x="467" y="-196"/>
      <point x="544" y="-137"/>
      <point x="544" y="-9" type="curve" smooth="yes"/>
      <point x="543" y="408" type="line" smooth="yes"/>
      <point x="543" y="496"/>
      <point x="496" y="544"/>
      <point x="402" y="544" type="curve" smooth="yes"/>
      <point x="327" y="544"/>
      <point x="270" y="514"/>
      <point x="238" y="464" type="curve"/>
      <point x="240" y="401" type="line"/>
      <point x="257" y="427"/>
      <point x="286" y="446"/>
      <point x="320" y="446" type="curve" smooth="yes"/>
      <point x="353" y="446"/>
      <point x="379" y="422"/>
      <point x="379" y="379" type="curve" smooth="yes"/>
      <point x="380" y="-2" type="line" smooth="yes"/>
      <point x="380" y="-85"/>
      <point x="351" y="-112"/>
      <point x="299" y="-112" type="curve"/>
      <point x="293" y="-119"/>
      <point x="290" y="-133"/>
      <point x="290" y="-142" type="curve" smooth="yes"/>
      <point x="290" y="-166"/>
      <point x="317" y="-196"/>
    </contour>
  </outline>
</glyph>
<glyph name="OE" format="1">
  <advance width="927"/>
  <unicode hex="0152"/>
  <outline>
    <contour>
      <point x="819" y="167" type="line"/>
      <point x="802" y="111"/>
      <point x="763" y="71"/>
      <point x="694" y="71" type="curve" smooth="yes"/>
      <point x="589" y="71" type="line"/>
      <point x="589" y="301" type="line"/>
      <point x="672" y="301" type="line" smooth="yes"/>
      <point x="709" y="301"/>
      <point x="737" y="284"/>
      <point x="737" y="231" type="curve"/>
      <point x="767" y="231"/>
      <point x="794" y="239"/>
      <point x="815" y="252" type="curve"/>
      <point x="815" y="428" type="line"/>
      <point x="794" y="441"/>
      <point x="766" y="449"/>
      <point x="737" y="449" type="curve"/>
      <point x="737" y="395"/>
      <point x="709" y="374"/>
      <point x="672" y="374" type="curve" smooth="yes"/>
      <point x="589" y="374" type="line"/>
      <point x="589" y="596" type="line"/>
      <point x="685" y="596" type="line" smooth="yes"/>
      <point x="738" y="596"/>
      <point x="767" y="551"/>
      <point x="780" y="508" type="curve"/>
      <point x="805" y="514"/>
      <point x="843" y="531"/>
      <point x="860" y="546" type="curve"/>
      <point x="860" y="579"/>
      <point x="846" y="665"/>
      <point x="830" y="698" type="curve"/>
      <point x="805" y="698"/>
      <point x="778" y="692"/>
      <point x="753" y="681" type="curve"/>
      <point x="418" y="681" type="line"/>
      <point x="390" y="689"/>
      <point x="364" y="690"/>
      <point x="330" y="690" type="curve" smooth="yes"/>
      <point x="144" y="690"/>
      <point x="25" y="560"/>
      <point x="25" y="335" type="curve" smooth="yes"/>
      <point x="25" y="115"/>
      <point x="139" y="-26"/>
      <point x="325" y="-26" type="curve" smooth="yes"/>
      <point x="357" y="-26"/>
      <point x="385" y="-25"/>
      <point x="410" y="-17" type="curve"/>
      <point x="794" y="-17" type="line"/>
      <point x="819" y="-28"/>
      <point x="846" y="-33"/>
      <point x="870" y="-33" type="curve"/>
      <point x="889" y="3"/>
      <point x="902" y="128"/>
      <point x="902" y="167" type="curve"/>
    </contour>
    <contour>
      <point x="213" y="328" type="curve" smooth="yes"/>
      <point x="213" y="573"/>
      <point x="271" y="620"/>
      <point x="343" y="620" type="curve" smooth="yes"/>
      <point x="378" y="620"/>
      <point x="408" y="608"/>
      <point x="425" y="587" type="curve"/>
      <point x="425" y="69" type="line"/>
      <point x="403" y="52"/>
      <point x="375" y="44"/>
      <point x="345" y="44" type="curve" name="hr01" smooth="yes"/>
      <point x="263" y="44"/>
      <point x="213" y="102"/>
    </contour>
    <contour>
      <point x="463" y="-12" type="move" name="btm"/>
    </contour>
    <contour>
      <point x="438" y="963" type="move" name="top"/>
    </contour>
  </outline>
</glyph>
<glyph name="oe" format="1">
  <advance width="819"/>
  <unicode hex="0153"/>
  <outline>
    <contour>
      <point x="268" y="-15" type="curve" smooth="yes"/>
      <point x="407" y="-15"/>
      <point x="492" y="84"/>
      <point x="492" y="271" type="curve" smooth="yes"/>
      <point x="492" y="448"/>
      <point x="422" y="543"/>
      <point x="279" y="543" type="curve" smooth="yes"/>
      <point x="129" y="543"/>
      <point x="26" y="443"/>
      <point x="26" y="255" type="curve" smooth="yes"/>
      <point x="26" y="79"/>
      <point x="125" y="-15"/>
    </contour>
    <contour>
      <point x="277" y="57" type="curve" smooth="yes"/>
      <point x="231" y="57"/>
      <point x="202" y="94"/>
      <point x="202" y="282" type="curve" name="hr00" smooth="yes"/>
      <point x="202" y="438"/>
      <point x="228" y="472"/>
      <point x="270" y="472" type="curve" smooth="yes"/>
      <point x="316" y="472"/>
      <point x="345" y="435"/>
      <point x="345" y="247" type="curve" smooth="yes"/>
      <point x="345" y="91"/>
      <point x="319" y="57"/>
    </contour>
    <contour>
      <point x="762" y="136" type="curve" name="hr00"/>
      <point x="727" y="111"/>
      <point x="690" y="96"/>
      <point x="645" y="96" type="curve" smooth="yes"/>
      <point x="570" y="96"/>
      <point x="519" y="140"/>
      <point x="519" y="265" type="curve" smooth="yes"/>
      <point x="519" y="307" type="line" smooth="yes"/>
      <point x="519" y="439"/>
      <point x="556" y="474"/>
      <point x="593" y="474" type="curve" smooth="yes"/>
      <point x="622" y="474"/>
      <point x="647" y="454"/>
      <point x="647" y="369" type="curve" smooth="yes"/>
      <point x="647" y="343"/>
      <point x="644" y="324"/>
      <point x="621" y="324" type="curve" smooth="yes"/>
      <point x="466" y="324" type="line"/>
      <point x="463" y="248" type="line"/>
      <point x="730" y="248" type="line" smooth="yes"/>
      <point x="783" y="248"/>
      <point x="795" y="292"/>
      <point x="795" y="343" type="curve" smooth="yes"/>
      <point x="795" y="470"/>
      <point x="722" y="543"/>
      <point x="603" y="543" type="curve" smooth="yes"/>
      <point x="458" y="543"/>
      <point x="352" y="436"/>
      <point x="352" y="261" type="curve" smooth="yes"/>
      <point x="352" y="92"/>
      <point x="447" y="-15"/>
      <point x="596" y="-15" type="curve" smooth="yes"/>
      <point x="711" y="-15"/>
      <point x="781" y="51"/>
      <point x="781" y="84" type="curve" smooth="yes"/>
      <point x="781" y="98"/>
      <point x="773" y="125"/>
    </contour>
    <contour>
      <point x="409" y="-5" type="move" name="btm"/>
    </contour>
    <contour>
      <point x="409" y="970" type="move" name="top"/>
    </contour>
  </outline>
</glyph>
<glyph name="Uogonek" format="1">
  <advance width="695"/>
  <unicode hex="0172"/>
  <outline>
    <contour>
      <point x="464" y="14" type="curve"/>
      <point x="453" y="48" type="line"/>
      <point x="379" y="48"/>
      <point x="249" y="-5"/>
      <point x="249" y="-119" type="curve" smooth="yes"/>
      <point x="249" y="-197"/>
      <point x="314" y="-227"/>
      <point x="373" y="-227" type="curve" smooth="yes"/>
      <point x="418" y="-227"/>
      <point x="457" y="-212"/>
      <point x="473" y="-196" type="curve" smooth="yes"/>
      <point x="486" y="-183"/>
      <point x="490" y="-165"/>
      <point x="490" y="-147" type="curve" smooth="yes"/>
      <point x="490" y="-135"/>
      <point x="488" y="-119"/>
      <point x="482" y="-111" type="curve"/>
      <point x="471" y="-120"/>
      <point x="444" y="-128"/>
      <point x="418" y="-128" type="curve" smooth="yes"/>
      <point x="388" y="-128"/>
      <point x="358" y="-118"/>
      <point x="358" y="-91" type="curve" smooth="yes"/>
      <point x="358" y="-49"/>
      <point x="391" y="-5"/>
    </contour>
    <component base="U"/>
  </outline>
</glyph>
<glyph name="uogonek" format="1">
  <advance width="574"/>
  <unicode hex="0173"/>
  <outline>
    <contour>
      <point x="509" y="2" type="curve"/>
      <point x="497" y="38" type="line"/>
      <point x="448" y="38"/>
      <point x="304" y="-6"/>
      <point x="304" y="-126" type="curve" smooth="yes"/>
      <point x="304" y="-208"/>
      <point x="372" y="-239"/>
      <point x="434" y="-239" type="curve" smooth="yes"/>
      <point x="481" y="-239"/>
      <point x="522" y="-224"/>
      <point x="539" y="-207" type="curve" smooth="yes"/>
      <point x="553" y="-193"/>
      <point x="557" y="-174"/>
      <point x="557" y="-155" type="curve" smooth="yes"/>
      <point x="557" y="-143"/>
      <point x="555" y="-126"/>
      <point x="549" y="-117" type="curve"/>
      <point x="537" y="-127"/>
      <point x="509" y="-135"/>
      <point x="481" y="-135" type="curve" smooth="yes"/>
      <point x="450" y="-135"/>
      <point x="418" y="-125"/>
      <point x="418" y="-96" type="curve" smooth="yes"/>
      <point x="418" y="-52"/>
      <point x="448" y="-13"/>
    </contour>
    <component base="u"/>
  </outline>
</glyph>
<glyph name="uhorn" format="1">
  <advance width="574"/>
  <unicode hex="01B0"/>
  <outline>
    <contour>
      <point x="434" y="539" type="curve"/>
      <point x="434" y="470" type="line"/>
      <point x="491" y="470" type="line" name="hr01" smooth="yes"/>
      <point x="533" y="470"/>
      <point x="594" y="494"/>
      <point x="594" y="563" type="curve" smooth="yes"/>
      <point x="594" y="597"/>
      <point x="586" y="620"/>
      <point x="558" y="642" type="curve"/>
      <point x="497" y="642" type="line"/>
      <point x="511" y="553"/>
      <point x="481" y="539"/>
    </contour>
    <component base="u"/>
  </outline>
</glyph>
<glyph name="Aringacute" format="1">
  <advance width="657"/>
  <unicode hex="01FA"/>
  <outline>
    <contour>
      <point x="446" y="898" type="curve" name="hr00" smooth="yes"/>
      <point x="446" y="977"/>
      <point x="392" y="1031"/>
      <point x="309" y="1031" type="curve" smooth="yes"/>
      <point x="226" y="1031"/>
      <point x="173" y="977"/>
      <point x="173" y="898" type="curve" smooth="yes"/>
      <point x="173" y="818"/>
      <point x="226" y="765"/>
      <point x="309" y="765" type="curve" smooth="yes"/>
      <point x="392" y="765"/>
      <point x="446" y="818"/>
    </contour>
    <contour>
      <point x="363" y="897" type="curve" smooth="yes"/>
      <point x="363" y="866"/>
      <point x="342" y="844"/>
      <point x="309" y="844" type="curve" smooth="yes"/>
      <point x="277" y="844"/>
      <point x="256" y="866"/>
      <point x="256" y="897" type="curve" smooth="yes"/>
      <point x="256" y="929"/>
      <point x="277" y="951"/>
      <point x="309" y="951" type="curve" smooth="yes"/>
      <point x="342" y="951"/>
      <point x="363" y="929"/>
    </contour>
    <contour>
      <point x="429" y="1138" type="curve" name="hr00"/>
      <point x="397" y="1078"/>
      <point x="342" y="1028"/>
      <point x="295" y="997" type="curve"/>
      <point x="298" y="973"/>
      <point x="315" y="963"/>
      <point x="334" y="963" type="curve" smooth="yes"/>
      <point x="385" y="963"/>
      <point x="494" y="1028"/>
      <point x="494" y="1080" type="curve" smooth="yes"/>
      <point x="494" y="1104"/>
      <point x="468" y="1138"/>
    </contour>
    <component base="A"/>
    <contour>
      <point x="311" y="963" type="move" name="_top"/>
    </contour>
    <contour>
      <point x="311" y="1174" type="move" name="top"/>
    </contour>
  </outline>
</glyph>
<glyph name="aringacute" format="1">
  <advance width="535"/>
  <unicode hex="01FB"/>
  <outline>
    <contour>
      <point x="402" y="757" type="curve" name="hr00" smooth="yes"/>
      <point x="402" y="836"/>
      <point x="348" y="890"/>
      <point x="265" y="890" type="curve" smooth="yes"/>
      <point x="182" y="890"/>
      <point x="129" y="836"/>
      <point x="129" y="757" type="curve" smooth="yes"/>
      <point x="129" y="677"/>
      <point x="182" y="624"/>
      <point x="265" y="624" type="curve" smooth="yes"/>
      <point x="348" y="624"/>
      <point x="402" y="677"/>
    </contour>
    <contour>
      <point x="319" y="756" type="curve" smooth="yes"/>
      <point x="319" y="725"/>
      <point x="298" y="703"/>
      <point x="265" y="703" type="curve" smooth="yes"/>
      <point x="233" y="703"/>
      <point x="212" y="725"/>
      <point x="212" y="756" type="curve" smooth="yes"/>
      <point x="212" y="788"/>
      <point x="233" y="810"/>
      <point x="265" y="810" type="curve" smooth="yes"/>
      <point x="298" y="810"/>
      <point x="319" y="788"/>
    </contour>
    <contour>
      <point x="385" y="997" type="curve" name="hr00"/>
      <point x="353" y="937"/>
      <point x="298" y="887"/>
      <point x="251" y="856" type="curve"/>
      <point x="254" y="832"/>
      <point x="271" y="822"/>
      <point x="290" y="822" type="curve" smooth="yes"/>
      <point x="341" y="822"/>
      <point x="450" y="887"/>
      <point x="450" y="939" type="curve" smooth="yes"/>
      <point x="450" y="963"/>
      <point x="424" y="997"/>
    </contour>
    <component base="a"/>
    <contour>
      <point x="267" y="822" type="move" name="_top"/>
    </contour>
    <contour>
      <point x="267" y="1033" type="move" name="top"/>
    </contour>
  </outline>
</glyph>
<glyph name="jdotless" format="1">
  <advance width="300"/>
  <unicode hex="0237"/>
  <outline>
    <contour>
      <point x="84" y="-188" type="curve" smooth="yes"/>
      <point x="171" y="-188"/>
      <point x="245" y="-129"/>
      <point x="245" y="-3" type="curve" smooth="yes"/>
      <point x="245" y="498" type="line" smooth="yes"/>
      <point x="245" y="531"/>
      <point x="234" y="543"/>
      <point x="202" y="543" type="curve" smooth="yes"/>
      <point x="160" y="543"/>
      <point x="69" y="521"/>
      <point x="20" y="496" type="curve"/>
      <point x="20" y="451" type="line"/>
      <point x="74" y="451"/>
      <point x="86" y="433"/>
      <point x="86" y="402" type="curve" smooth="yes"/>
      <point x="86" y="4" type="line" smooth="yes"/>
      <point x="86" y="-79"/>
      <point x="56" y="-105"/>
      <point x="4" y="-105" type="curve"/>
      <point x="0" y="-111"/>
      <point x="-5" y="-125"/>
      <point x="-5" y="-134" type="curve" smooth="yes"/>
      <point x="-5" y="-159"/>
      <point x="22" y="-188"/>
    </contour>
    <contour>
      <point x="171" y="822" type="move" name="top"/>
    </contour>
  </outline>
</glyph>
<glyph name="schwa" format="1">
  <advance width="498"/>
  <unicode hex="0259"/>
  <outline>
    <contour>
      <point x="229" y="543" type="curve" smooth="yes"/>
      <point x="114" y="543"/>
      <point x="43" y="476"/>
      <point x="43" y="444" type="curve" smooth="yes"/>
      <point x="43" y="430"/>
      <point x="51" y="403"/>
      <point x="63" y="391" type="curve" name="hr00"/>
      <point x="97" y="417"/>
      <point x="135" y="432"/>
      <point x="180" y="432" type="curve" smooth="yes"/>
      <point x="252" y="432"/>
      <point x="300" y="392"/>
      <point x="304" y="280" type="curve"/>
      <point x="90" y="280" type="line" smooth="yes"/>
      <point x="38" y="280"/>
      <point x="26" y="236"/>
      <point x="26" y="185" type="curve" smooth="yes"/>
      <point x="26" y="58"/>
      <point x="103" y="-15"/>
      <point x="223" y="-15" type="curve" smooth="yes"/>
      <point x="367" y="-15"/>
      <point x="472" y="93"/>
      <point x="472" y="266" type="curve" smooth="yes"/>
      <point x="472" y="436"/>
      <point x="378" y="543"/>
    </contour>
    <contour>
      <point x="229" y="54" type="curve" smooth="yes"/>
      <point x="201" y="54"/>
      <point x="177" y="74"/>
      <point x="177" y="159" type="curve" smooth="yes"/>
      <point x="177" y="185"/>
      <point x="180" y="204"/>
      <point x="203" y="204" type="curve" smooth="yes"/>
      <point x="304" y="204" type="line"/>
      <point x="301" y="86"/>
      <point x="264" y="54"/>
    </contour>
    <contour>
      <point x="249" y="-5" type="move" name="btm"/>
    </contour>
  </outline>
</glyph>
<glyph name="primemod" format="1">
  <advance width="0"/>
  <unicode hex="02B9"/>
  <outline>
    <contour>
      <point x="-6" y="855" type="curve" name="hr00"/>
      <point x="-15" y="806"/>
      <point x="-40" y="685"/>
      <point x="-57" y="629" type="curve"/>
      <point x="-46" y="619"/>
      <point x="-34" y="617"/>
      <point x="-23" y="617" type="curve" smooth="yes"/>
      <point x="-10" y="617"/>
      <point x="0" y="617"/>
      <point x="12" y="627" type="curve" smooth="yes"/>
      <point x="39" y="649"/>
      <point x="100" y="777"/>
      <point x="100" y="821" type="curve" smooth="yes"/>
      <point x="100" y="852"/>
      <point x="82" y="864"/>
      <point x="38" y="864" type="curve" smooth="yes"/>
      <point x="20" y="864"/>
      <point x="1" y="860"/>
    </contour>
    <contour>
      <point x="0" y="822" type="move" name="_top"/>
    </contour>
  </outline>
</glyph>
<glyph name="commaturnedmod" format="1">
  <advance width="0"/>
  <unicode hex="02BB"/>
  <outline>
    <contour>
      <point x="8" y="617" type="curve" smooth="yes"/>
      <point x="56" y="617"/>
      <point x="89" y="648"/>
      <point x="89" y="697" type="curve" smooth="yes"/>
      <point x="89" y="736"/>
      <point x="63" y="773"/>
      <point x="13" y="773" type="curve" smooth="yes"/>
      <point x="9" y="773"/>
      <point x="5" y="772"/>
      <point x="1" y="771" type="curve"/>
      <point x="0" y="775"/>
      <point x="-1" y="779"/>
      <point x="-1" y="782" type="curve" smooth="yes"/>
      <point x="-1" y="814"/>
      <point x="18" y="835"/>
      <point x="47" y="851" type="curve"/>
      <point x="47" y="868"/>
      <point x="34" y="885"/>
      <point x="21" y="889" type="curve" name="hr00"/>
      <point x="-67" y="858"/>
      <point x="-87" y="772"/>
      <point x="-87" y="729" type="curve" smooth="yes"/>
      <point x="-87" y="650"/>
      <point x="-45" y="617"/>
    </contour>
    <contour>
      <point x="0" y="822" type="move" name="_top"/>
    </contour>
  </outline>
</glyph>
<glyph name="ringhalfleft" format="1">
  <advance width="84"/>
  <unicode hex="02BF"/>
  <outline>
    <contour>
      <point x="0" y="695" type="line"/>
      <point x="-38" y="695"/>
      <point x="-55" y="712"/>
      <point x="-55" y="750" type="curve" smooth="yes"/>
      <point x="-55" y="783"/>
      <point x="-35" y="806"/>
      <point x="0" y="806" type="curve"/>
      <point x="0" y="889" type="line"/>
      <point x="-87" y="889"/>
      <point x="-141" y="833"/>
      <point x="-141" y="751" type="curve" name="hr00" smooth="yes"/>
      <point x="-141" y="667"/>
      <point x="-86" y="612"/>
      <point x="0" y="612" type="curve"/>
    </contour>
    <contour>
      <point x="0" y="822" type="move" name="_top"/>
    </contour>
  </outline>
</glyph>
<glyph name="verticallinemod" format="1">
  <advance width="0"/>
  <unicode hex="02C8"/>
  <outline>
    <contour>
      <point x="-57" y="576" type="line"/>
      <point x="-44" y="569"/>
      <point x="-20" y="567"/>
      <point x="2" y="567" type="curve" smooth="yes"/>
      <point x="22" y="567"/>
      <point x="44" y="569"/>
      <point x="57" y="575" type="curve"/>
      <point x="57" y="855" type="line"/>
      <point x="45" y="861"/>
      <point x="23" y="864"/>
      <point x="1" y="864" type="curve" smooth="yes"/>
      <point x="-20" y="864"/>
      <point x="-43" y="861"/>
      <point x="-57" y="855" type="curve"/>
    </contour>
    <contour>
      <point x="0" y="822" type="move" name="_top"/>
    </contour>
  </outline>
</glyph>
<glyph name="firsttonechinese" format="1">
  <advance width="0"/>
  <unicode hex="02C9"/>
  <outline>
    <contour>
      <point x="-156" y="717" type="line" name="hr00"/>
      <point x="-161" y="708"/>
      <point x="-163" y="685"/>
      <point x="-163" y="666" type="curve" smooth="yes"/>
      <point x="-163" y="650"/>
      <point x="-161" y="628"/>
      <point x="-157" y="617" type="curve"/>
      <point x="158" y="617" type="line"/>
      <point x="161" y="626"/>
      <point x="163" y="649"/>
      <point x="163" y="666" type="curve" smooth="yes"/>
      <point x="163" y="683"/>
      <point x="161" y="706"/>
      <point x="157" y="717" type="curve"/>
    </contour>
    <contour>
      <point x="0" y="822" type="move" name="_top"/>
    </contour>
    <contour>
      <point x="0" y="984" type="move" name="top"/>
    </contour>
  </outline>
</glyph>
<glyph name="circumflexcomb" format="1">
  <advance width="0"/>
  <unicode hex="0302"/>
  <outline>
    <contour>
      <point x="132" y="607" type="line" name="hr00"/>
      <point x="157" y="616"/>
      <point x="179" y="636"/>
      <point x="187" y="658" type="curve"/>
      <point x="38" y="822" type="line"/>
      <point x="-38" y="822" type="line"/>
      <point x="-186" y="658" type="line"/>
      <point x="-179" y="636"/>
      <point x="-157" y="616"/>
      <point x="-132" y="607" type="curve"/>
      <point x="0" y="706" type="line"/>
    </contour>
    <contour>
      <point x="0" y="822" type="move" name="_top"/>
    </contour>
    <contour>
      <point x="0" y="1053" type="move" name="top"/>
    </contour>
  </outline>
</glyph>
<glyph name="tildecomb" format="1">
  <advance width="0"/>
  <unicode hex="0303"/>
  <outline>
    <contour>
      <point x="153" y="775" type="curve"/>
      <point x="124" y="742"/>
      <point x="99" y="730"/>
      <point x="77" y="730" type="curve" smooth="yes"/>
      <point x="62" y="730"/>
      <point x="47" y="740"/>
      <point x="32" y="753" type="curve" smooth="yes"/>
      <point x="9" y="773"/>
      <point x="-20" y="794"/>
      <point x="-69" y="794" type="curve" name="hr02" smooth="yes"/>
      <point x="-132" y="794"/>
      <point x="-191" y="741"/>
      <point x="-202" y="698" type="curve" smooth="yes"/>
      <point x="-203" y="695"/>
      <point x="-203" y="693"/>
      <point x="-203" y="690" type="curve" smooth="yes"/>
      <point x="-203" y="666"/>
      <point x="-176" y="640"/>
      <point x="-159" y="640" type="curve" smooth="yes"/>
      <point x="-156" y="640"/>
      <point x="-153" y="641"/>
      <point x="-151" y="643" type="curve"/>
      <point x="-122" y="676"/>
      <point x="-97" y="688"/>
      <point x="-75" y="688" type="curve" smooth="yes"/>
      <point x="-54" y="688"/>
      <point x="-37" y="676"/>
      <point x="-18" y="661" type="curve" smooth="yes"/>
      <point x="5" y="643"/>
      <point x="31" y="624"/>
      <point x="71" y="624" type="curve" smooth="yes"/>
      <point x="142" y="624"/>
      <point x="193" y="677"/>
      <point x="204" y="720" type="curve" smooth="yes"/>
      <point x="205" y="722"/>
      <point x="205" y="725"/>
      <point x="205" y="727" type="curve" smooth="yes"/>
      <point x="205" y="752"/>
      <point x="178" y="778"/>
      <point x="161" y="778" type="curve" smooth="yes"/>
      <point x="158" y="778"/>
      <point x="155" y="777"/>
    </contour>
    <contour>
      <point x="0" y="822" type="move" name="_top"/>
    </contour>
    <contour>
      <point x="0" y="1042" type="move" name="top"/>
    </contour>
  </outline>
</glyph>
<glyph name="brevecomb" format="1">
  <advance width="0"/>
  <unicode hex="0306"/>
  <outline>
    <contour>
      <point x="-180" y="797" type="curve"/>
      <point x="-180" y="685"/>
      <point x="-111" y="615"/>
      <point x="0" y="615" type="curve" smooth="yes"/>
      <point x="110" y="615"/>
      <point x="180" y="685"/>
      <point x="180" y="797" type="curve"/>
      <point x="176" y="810"/>
      <point x="158" y="817"/>
      <point x="138" y="817" type="curve" smooth="yes"/>
      <point x="122" y="817"/>
      <point x="99" y="812"/>
      <point x="92" y="801" type="curve"/>
      <point x="92" y="756"/>
      <point x="60" y="712"/>
      <point x="0" y="712" type="curve" smooth="yes"/>
      <point x="-60" y="712"/>
      <point x="-92" y="756"/>
      <point x="-92" y="801" type="curve"/>
      <point x="-99" y="812"/>
      <point x="-121" y="817"/>
      <point x="-138" y="817" type="curve" smooth="yes"/>
      <point x="-157" y="817"/>
      <point x="-176" y="810"/>
    </contour>
    <contour>
      <point x="0" y="822" type="move" name="_top"/>
    </contour>
    <contour>
      <point x="0" y="1033" type="move" name="top"/>
    </contour>
  </outline>
</glyph>
<glyph name="dotaccentcomb" format="1">
  <advance width="0"/>
  <unicode hex="0307"/>
  <outline>
    <contour>
      <point x="91" y="707" type="curve" name="hr00" smooth="yes"/>
      <point x="91" y="765"/>
      <point x="55" y="800"/>
      <point x="1" y="800" type="curve" smooth="yes"/>
      <point x="-55" y="800"/>
      <point x="-90" y="765"/>
      <point x="-90" y="707" type="curve" smooth="yes"/>
      <point x="-90" y="653"/>
      <point x="-55" y="617"/>
      <point x="1" y="617" type="curve" smooth="yes"/>
      <point x="55" y="617"/>
      <point x="91" y="653"/>
    </contour>
    <contour>
      <point x="0" y="822" type="move" name="_top"/>
    </contour>
    <contour>
      <point x="0" y="1033" type="move" name="top"/>
    </contour>
  </outline>
</glyph>
<glyph name="hookabovecomb" format="1">
  <advance width="0"/>
  <unicode hex="0309"/>
  <outline>
    <contour>
      <point x="1" y="612" type="curve" smooth="yes"/>
      <point x="94" y="612"/>
      <point x="147" y="684"/>
      <point x="147" y="746" type="curve" smooth="yes"/>
      <point x="147" y="853"/>
      <point x="48" y="881"/>
      <point x="-17" y="881" type="curve" smooth="yes"/>
      <point x="-75" y="881"/>
      <point x="-137" y="853"/>
      <point x="-155" y="836" type="curve"/>
      <point x="-130" y="763" type="line"/>
      <point x="-99" y="778"/>
      <point x="-75" y="788"/>
      <point x="-50" y="788" type="curve" smooth="yes"/>
      <point x="-4" y="788"/>
      <point x="25" y="762"/>
      <point x="25" y="736" type="curve" smooth="yes"/>
      <point x="25" y="691"/>
      <point x="-18" y="678"/>
      <point x="-55" y="678" type="curve" smooth="yes"/>
      <point x="-68" y="678"/>
      <point x="-80" y="680"/>
      <point x="-90" y="682" type="curve"/>
      <point x="-93" y="682"/>
      <point x="-94" y="676"/>
      <point x="-94" y="668" type="curve" smooth="yes"/>
      <point x="-94" y="652"/>
      <point x="-88" y="627"/>
      <point x="-72" y="622" type="curve"/>
      <point x="-52" y="616"/>
      <point x="-31" y="612"/>
    </contour>
    <contour>
      <point x="0" y="822" type="move" name="_top"/>
    </contour>
    <contour>
      <point x="0" y="1033" type="move" name="top"/>
    </contour>
  </outline>
</glyph>
<glyph name="ringcomb" format="1">
  <advance width="0"/>
  <unicode hex="030A"/>
  <outline>
    <contour>
      <point x="141" y="751" type="curve" name="hr00" smooth="yes"/>
      <point x="141" y="833"/>
      <point x="86" y="889"/>
      <point x="0" y="889" type="curve" smooth="yes"/>
      <point x="-86" y="889"/>
      <point x="-141" y="833"/>
      <point x="-141" y="751" type="curve" smooth="yes"/>
      <point x="-141" y="667"/>
      <point x="-86" y="612"/>
      <point x="0" y="612" type="curve" smooth="yes"/>
      <point x="86" y="612"/>
      <point x="141" y="667"/>
    </contour>
    <contour>
      <point x="55" y="750" type="curve" smooth="yes"/>
      <point x="55" y="717"/>
      <point x="34" y="695"/>
      <point x="0" y="695" type="curve" smooth="yes"/>
      <point x="-33" y="695"/>
      <point x="-55" y="717"/>
      <point x="-55" y="750" type="curve" smooth="yes"/>
      <point x="-55" y="783"/>
      <point x="-33" y="806"/>
      <point x="0" y="806" type="curve" smooth="yes"/>
      <point x="34" y="806"/>
      <point x="55" y="783"/>
    </contour>
    <contour>
      <point x="0" y="822" type="move" name="_top"/>
    </contour>
    <contour>
      <point x="0" y="1123" type="move" name="top"/>
    </contour>
  </outline>
</glyph>
<glyph name="strokeshortcomb" format="1">
  <advance width="0"/>
  <unicode hex="0335"/>
  <outline>
    <contour>
      <point x="-478" y="242" type="line"/>
      <point x="-70" y="242" type="line"/>
      <point x="-70" y="304" type="line"/>
      <point x="-478" y="304" type="line"/>
    </contour>
  </outline>
</glyph>
<glyph name="slashshortcomb" format="1">
  <advance width="330"/>
  <unicode hex="0337"/>
  <outline>
    <contour>
      <point x="-340" y="241" type="line"/>
      <point x="-292" y="192" type="line"/>
      <point x="-53" y="383" type="line"/>
      <point x="-97" y="436" type="line"/>
    </contour>
  </outline>
</glyph>
<glyph name="slashlongcomb" format="1">
  <advance width="0"/>
  <unicode hex="0338"/>
  <outline>
    <contour>
      <point x="-509" y="40" type="line"/>
      <point x="-462" y="0" type="line"/>
      <point x="16" y="530" type="line"/>
      <point x="-31" y="576" type="line"/>
    </contour>
  </outline>
</glyph>
<glyph name="Delta" format="1">
  <advance width="855"/>
  <unicode hex="0394"/>
  <outline>
    <contour>
      <point x="706" y="129" type="curve" smooth="yes"/>
      <point x="515" y="698" type="line"/>
      <point x="349" y="698" type="line"/>
      <point x="148" y="129" type="line" smooth="yes"/>
      <point x="132" y="85"/>
      <point x="100" y="64"/>
      <point x="64" y="64" type="curve"/>
      <point x="64" y="40"/>
      <point x="72" y="16"/>
      <point x="87" y="0" type="curve"/>
      <point x="768" y="0" type="line"/>
      <point x="783" y="16"/>
      <point x="791" y="40"/>
      <point x="791" y="64" type="curve"/>
      <point x="757" y="64"/>
      <point x="721" y="85"/>
    </contour>
    <contour>
      <point x="474" y="79" type="curve"/>
      <point x="332" y="79" type="line"/>
      <point x="293" y="79"/>
      <point x="269" y="79"/>
      <point x="269" y="115" type="curve" smooth="yes"/>
      <point x="269" y="127"/>
      <point x="272" y="142"/>
      <point x="277" y="159" type="curve" smooth="yes"/>
      <point x="395" y="552" type="line"/>
      <point x="404" y="539"/>
      <point x="412" y="523"/>
      <point x="417" y="506" type="curve" smooth="yes"/>
      <point x="520" y="159" type="line" smooth="yes"/>
      <point x="526" y="140"/>
      <point x="531" y="124"/>
      <point x="531" y="112" type="curve" smooth="yes"/>
      <point x="531" y="78"/>
      <point x="509" y="79"/>
    </contour>
  </outline>
</glyph>
<glyph name="Germandbls" format="1">
  <advance width="782"/>
  <unicode hex="1E9E"/>
  <outline>
    <contour>
      <point x="526" y="601" type="curve"/>
      <point x="578" y="698" type="line"/>
      <point x="549" y="698"/>
      <point x="520" y="698"/>
      <point x="384" y="698" type="curve" smooth="yes"/>
      <point x="213" y="698"/>
      <point x="69" y="603"/>
      <point x="68" y="373" type="curve" smooth="yes"/>
      <point x="67" y="100" type="line" smooth="yes"/>
      <point x="67" y="64"/>
      <point x="50" y="50"/>
      <point x="5" y="50" type="curve"/>
      <point x="5" y="26"/>
      <point x="13" y="3"/>
      <point x="28" y="-13" type="curve"/>
      <point x="235" y="-13" type="line"/>
      <point x="236" y="394" type="line" smooth="yes"/>
      <point x="236" y="533"/>
      <point x="312" y="602"/>
      <point x="398" y="602" type="curve" smooth="yes"/>
      <point x="483" y="602"/>
      <point x="503" y="601"/>
    </contour>
    <contour>
      <point x="748" y="196" type="curve" smooth="yes"/>
      <point x="748" y="361"/>
      <point x="537" y="412"/>
      <point x="446" y="369" type="curve"/>
      <point x="535" y="356" type="line"/>
      <point x="707" y="698" type="line"/>
      <point x="536" y="698" type="line"/>
      <point x="351" y="336" type="line"/>
      <point x="414" y="336" type="line" smooth="yes"/>
      <point x="486" y="336"/>
      <point x="575" y="259"/>
      <point x="575" y="190" type="curve" smooth="yes"/>
      <point x="575" y="121"/>
      <point x="549" y="67"/>
      <point x="486" y="67" type="curve" smooth="yes"/>
      <point x="454" y="67"/>
      <point x="421" y="79"/>
      <point x="408" y="93" type="curve"/>
      <point x="425" y="110"/>
      <point x="430" y="138"/>
      <point x="430" y="156" type="curve" smooth="yes"/>
      <point x="430" y="192"/>
      <point x="407" y="222"/>
      <point x="370" y="222" type="curve" smooth="yes"/>
      <point x="334" y="222"/>
      <point x="305" y="193"/>
      <point x="305" y="138" type="curve" smooth="yes"/>
      <point x="305" y="44"/>
      <point x="388" y="-13"/>
      <point x="501" y="-13" type="curve" smooth="yes"/>
      <point x="667" y="-13"/>
      <point x="748" y="73"/>
    </contour>
  </outline>
</glyph>
<glyph name="endash" format="1">
  <advance width="727"/>
  <unicode hex="2013"/>
  <outline>
    <contour>
      <point x="49" y="314" type="line" name="hr00"/>
      <point x="45" y="305"/>
      <point x="43" y="277"/>
      <point x="43" y="258" type="curve" smooth="yes"/>
      <point x="43" y="242"/>
      <point x="45" y="225"/>
      <point x="49" y="214" type="curve"/>
      <point x="646" y="214" type="line"/>
      <point x="650" y="223"/>
      <point x="652" y="241"/>
      <point x="652" y="258" type="curve" smooth="yes"/>
      <point x="652" y="275"/>
      <point x="650" y="303"/>
      <point x="646" y="314" type="curve"/>
    </contour>
  </outline>
</glyph>
<glyph name="emdash" format="1">
  <advance width="1020"/>
  <unicode hex="2014"/>
  <outline>
    <contour>
      <point x="85" y="314" type="line" name="hr00"/>
      <point x="80" y="305"/>
      <point x="78" y="277"/>
      <point x="78" y="258" type="curve" smooth="yes"/>
      <point x="78" y="242"/>
      <point x="79" y="225"/>
      <point x="85" y="214" type="curve"/>
      <point x="935" y="214" type="line"/>
      <point x="940" y="223"/>
      <point x="942" y="241"/>
      <point x="942" y="258" type="curve" smooth="yes"/>
      <point x="942" y="275"/>
      <point x="940" y="303"/>
      <point x="935" y="314" type="curve"/>
    </contour>
  </outline>
</glyph>
<glyph name="quoteleft" format="1">
  <advance width="283"/>
  <unicode hex="2018"/>
  <outline>
    <contour>
      <point x="193" y="810" type="curve" name="hr00"/>
      <point x="118" y="786"/>
      <point x="41" y="693"/>
      <point x="41" y="569" type="curve" smooth="yes"/>
      <point x="41" y="473"/>
      <point x="85" y="430"/>
      <point x="142" y="430" type="curve" smooth="yes"/>
      <point x="193" y="430"/>
      <point x="229" y="462"/>
      <point x="229" y="521" type="curve" smooth="yes"/>
      <point x="229" y="567"/>
      <point x="200" y="610"/>
      <point x="147" y="610" type="curve" smooth="yes"/>
      <point x="143" y="610"/>
      <point x="138" y="609"/>
      <point x="133" y="609" type="curve"/>
      <point x="133" y="614"/>
      <point x="133" y="618"/>
      <point x="133" y="622" type="curve" smooth="yes"/>
      <point x="133" y="674"/>
      <point x="167" y="731"/>
      <point x="221" y="765" type="curve"/>
      <point x="221" y="785"/>
      <point x="208" y="805"/>
    </contour>
  </outline>
</glyph>
<glyph name="quotereversed" format="1">
  <advance width="283"/>
  <unicode hex="201B"/>
  <outline>
    <contour>
      <point x="193" y="425" type="curve" name="hr00"/>
      <point x="208" y="430"/>
      <point x="222" y="451"/>
      <point x="222" y="471" type="curve"/>
      <point x="168" y="505"/>
      <point x="133" y="561"/>
      <point x="133" y="613" type="curve" smooth="yes"/>
      <point x="133" y="617"/>
      <point x="134" y="621"/>
      <point x="134" y="626" type="curve"/>
      <point x="139" y="626"/>
      <point x="144" y="625"/>
      <point x="148" y="625" type="curve" smooth="yes"/>
      <point x="201" y="625"/>
      <point x="229" y="668"/>
      <point x="229" y="714" type="curve" smooth="yes"/>
      <point x="229" y="773"/>
      <point x="193" y="805"/>
      <point x="143" y="805" type="curve" smooth="yes"/>
      <point x="85" y="805"/>
      <point x="41" y="763"/>
      <point x="41" y="668" type="curve" smooth="yes"/>
      <point x="41" y="542"/>
      <point x="118" y="449"/>
    </contour>
  </outline>
</glyph>
<glyph name="dagger" format="1">
  <advance width="424"/>
  <unicode hex="2020"/>
  <outline>
    <contour>
      <point x="395" y="481" type="curve" smooth="yes"/>
      <point x="395" y="499"/>
      <point x="393" y="517"/>
      <point x="389" y="528" type="curve"/>
      <point x="258" y="528" type="line"/>
      <point x="279" y="741" type="line"/>
      <point x="279" y="785"/>
      <point x="259" y="804"/>
      <point x="220" y="804" type="curve" smooth="yes"/>
      <point x="205" y="804" type="line" smooth="yes"/>
      <point x="162" y="804"/>
      <point x="143" y="786"/>
      <point x="143" y="742" type="curve"/>
      <point x="166" y="528" type="line"/>
      <point x="36" y="528" type="line" name="hr00"/>
      <point x="31" y="518"/>
      <point x="29" y="500"/>
      <point x="29" y="482" type="curve" smooth="yes"/>
      <point x="29" y="466"/>
      <point x="31" y="449"/>
      <point x="35" y="437" type="curve"/>
      <point x="171" y="437" type="line"/>
      <point x="157" y="-105" type="line"/>
      <point x="160" y="-144"/>
      <point x="164" y="-157"/>
      <point x="203" y="-157" type="curve" smooth="yes"/>
      <point x="218" y="-157" type="line" smooth="yes"/>
      <point x="253" y="-157"/>
      <point x="257" y="-143"/>
      <point x="260" y="-108" type="curve"/>
      <point x="252" y="437" type="line"/>
      <point x="389" y="437" type="line"/>
      <point x="393" y="447"/>
      <point x="395" y="464"/>
    </contour>
  </outline>
</glyph>
<glyph name="perthousand" format="1">
  <advance width="1507"/>
  <unicode hex="2030"/>
  <outline>
    <contour>
      <point x="377" y="-106" type="curve"/>
      <point x="775" y="707" type="line"/>
      <point x="756" y="724"/>
      <point x="727" y="738"/>
      <point x="701" y="739" type="curve"/>
      <point x="304" y="-73" type="line"/>
      <point x="323" y="-92"/>
      <point x="353" y="-105"/>
    </contour>
    <contour>
      <point x="272" y="242" type="curve" smooth="yes"/>
      <point x="385" y="242"/>
      <point x="461" y="306"/>
      <point x="461" y="467" type="curve" smooth="yes"/>
      <point x="461" y="627"/>
      <point x="387" y="692"/>
      <point x="273" y="692" type="curve" smooth="yes"/>
      <point x="159" y="692"/>
      <point x="84" y="627"/>
      <point x="84" y="467" type="curve" smooth="yes"/>
      <point x="84" y="308"/>
      <point x="158" y="242"/>
    </contour>
    <contour>
      <point x="272" y="300" type="curve" name="hr00" smooth="yes"/>
      <point x="245" y="300"/>
      <point x="223" y="330"/>
      <point x="223" y="467" type="curve" smooth="yes"/>
      <point x="223" y="609"/>
      <point x="246" y="633"/>
      <point x="273" y="633" type="curve" smooth="yes"/>
      <point x="300" y="633"/>
      <point x="323" y="609"/>
      <point x="323" y="469" type="curve" smooth="yes"/>
      <point x="323" y="330"/>
      <point x="300" y="300"/>
    </contour>
    <contour>
      <point x="805" y="-53" type="curve" smooth="yes"/>
      <point x="918" y="-53"/>
      <point x="994" y="12"/>
      <point x="994" y="172" type="curve" smooth="yes"/>
      <point x="994" y="331"/>
      <point x="920" y="397"/>
      <point x="805" y="397" type="curve" smooth="yes"/>
      <point x="692" y="397"/>
      <point x="617" y="333"/>
      <point x="617" y="172" type="curve" smooth="yes"/>
      <point x="617" y="13"/>
      <point x="690" y="-53"/>
    </contour>
    <contour>
      <point x="805" y="6" type="curve" smooth="yes"/>
      <point x="777" y="6"/>
      <point x="755" y="35"/>
      <point x="755" y="173" type="curve" smooth="yes"/>
      <point x="755" y="314"/>
      <point x="778" y="339"/>
      <point x="805" y="339" type="curve" smooth="yes"/>
      <point x="832" y="339"/>
      <point x="855" y="314"/>
      <point x="855" y="174" type="curve" smooth="yes"/>
      <point x="855" y="35"/>
      <point x="832" y="6"/>
    </contour>
    <contour>
      <point x="1234" y="-54" type="curve" smooth="yes"/>
      <point x="1347" y="-54"/>
      <point x="1423" y="11"/>
      <point x="1423" y="171" type="curve" smooth="yes"/>
      <point x="1423" y="330"/>
      <point x="1349" y="396"/>
      <point x="1234" y="396" type="curve" smooth="yes"/>
      <point x="1121" y="396"/>
      <point x="1046" y="332"/>
      <point x="1046" y="171" type="curve" smooth="yes"/>
      <point x="1046" y="12"/>
      <point x="1119" y="-54"/>
    </contour>
    <contour>
      <point x="1234" y="5" type="curve" smooth="yes"/>
      <point x="1206" y="5"/>
      <point x="1184" y="34"/>
      <point x="1184" y="172" type="curve" smooth="yes"/>
      <point x="1184" y="313"/>
      <point x="1207" y="338"/>
      <point x="1234" y="338" type="curve" smooth="yes"/>
      <point x="1261" y="338"/>
      <point x="1284" y="313"/>
      <point x="1284" y="173" type="curve" smooth="yes"/>
      <point x="1284" y="34"/>
      <point x="1261" y="5"/>
    </contour>
  </outline>
</glyph>
<glyph name="minute" format="1">
  <advance width="360"/>
  <unicode hex="2032"/>
  <outline>
    <contour>
      <point x="158" y="807" type="curve" name="hr00"/>
      <point x="144" y="747"/>
      <point x="96" y="527"/>
      <point x="75" y="459" type="curve"/>
      <point x="88" y="446"/>
      <point x="103" y="439"/>
      <point x="117" y="439" type="curve" smooth="yes"/>
      <point x="133" y="439"/>
      <point x="149" y="447"/>
      <point x="164" y="459" type="curve" smooth="yes"/>
      <point x="189" y="479"/>
      <point x="271" y="672"/>
      <point x="283" y="726" type="curve"/>
      <point x="285" y="738"/>
      <point x="287" y="748"/>
      <point x="288" y="758" type="curve" smooth="yes"/>
      <point x="292" y="795"/>
      <point x="280" y="811"/>
      <point x="229" y="817" type="curve" smooth="yes"/>
      <point x="203" y="820"/>
      <point x="169" y="814"/>
    </contour>
  </outline>
</glyph>
<glyph name="guilsinglleft" format="1">
  <advance width="301"/>
  <unicode hex="2039"/>
  <outline>
    <contour>
      <point x="154" y="288" type="line" name="hr00"/>
      <point x="270" y="502" type="line"/>
      <point x="259" y="524"/>
      <point x="242" y="536"/>
      <point x="222" y="544" type="curve"/>
      <point x="27" y="357" type="line"/>
      <point x="27" y="296" type="line"/>
      <point x="222" y="107" type="line"/>
      <point x="242" y="116"/>
      <point x="259" y="128"/>
      <point x="270" y="150" type="curve"/>
      <point x="154" y="364" type="line"/>
    </contour>
  </outline>
</glyph>
<glyph name="guilsinglright" format="1">
  <advance width="301"/>
  <unicode hex="203A"/>
  <outline>
    <contour>
      <point x="147" y="287" type="line" name="hr00"/>
      <point x="147" y="363" type="line"/>
      <point x="31" y="149" type="line"/>
      <point x="42" y="127"/>
      <point x="59" y="115"/>
      <point x="79" y="106" type="curve"/>
      <point x="274" y="295" type="line"/>
      <point x="274" y="356" type="line"/>
      <point x="79" y="543" type="line"/>
      <point x="59" y="535"/>
      <point x="42" y="523"/>
      <point x="31" y="501" type="curve"/>
    </contour>
  </outline>
</glyph>
<glyph name="colonsign" format="1">
  <advance width="600"/>
  <unicode hex="20A1"/>
  <outline>
    <contour>
      <point x="395" y="776" type="line"/>
      <point x="383" y="782"/>
      <point x="370" y="785"/>
      <point x="354" y="785" type="curve" smooth="yes"/>
      <point x="344" y="785"/>
      <point x="334" y="784"/>
      <point x="326" y="780" type="curve"/>
      <point x="196" y="-83" type="line" name="hr04"/>
      <point x="208" y="-88"/>
      <point x="222" y="-91"/>
      <point x="237" y="-91" type="curve" smooth="yes"/>
      <point x="248" y="-91"/>
      <point x="258" y="-90"/>
      <point x="265" y="-87" type="curve" name="hr05"/>
    </contour>
    <contour>
      <point x="520" y="776" type="line"/>
      <point x="508" y="782"/>
      <point x="495" y="785"/>
      <point x="479" y="785" type="curve" smooth="yes"/>
      <point x="469" y="785"/>
      <point x="459" y="784"/>
      <point x="451" y="780" type="curve"/>
      <point x="321" y="-83" type="line" name="hr04"/>
      <point x="333" y="-88"/>
      <point x="347" y="-91"/>
      <point x="362" y="-91" type="curve" smooth="yes"/>
      <point x="373" y="-91"/>
      <point x="383" y="-90"/>
      <point x="390" y="-87" type="curve" name="hr05"/>
    </contour>
    <contour>
      <point x="602" y="483" type="line" name="hr00"/>
      <point x="602" y="543"/>
      <point x="599" y="645"/>
      <point x="573" y="709" type="curve"/>
      <point x="552" y="708"/>
      <point x="504" y="696"/>
      <point x="484" y="687" type="curve"/>
      <point x="456" y="700"/>
      <point x="409" y="709"/>
      <point x="380" y="709" type="curve" smooth="yes"/>
      <point x="195" y="709"/>
      <point x="35" y="583"/>
      <point x="35" y="348" type="curve" smooth="yes"/>
      <point x="35" y="102"/>
      <point x="180" y="-14"/>
      <point x="351" y="-14" type="curve" smooth="yes"/>
      <point x="526" y="-14"/>
      <point x="581" y="55"/>
      <point x="581" y="102" type="curve" smooth="yes"/>
      <point x="581" y="121"/>
      <point x="570" y="150"/>
      <point x="553" y="162" type="curve"/>
      <point x="536" y="136"/>
      <point x="471" y="108"/>
      <point x="410" y="108" type="curve" smooth="yes"/>
      <point x="303" y="108"/>
      <point x="212" y="180"/>
      <point x="212" y="387" type="curve" smooth="yes"/>
      <point x="212" y="554"/>
      <point x="309" y="622"/>
      <point x="382" y="622" type="curve" smooth="yes"/>
      <point x="450" y="622"/>
      <point x="498" y="570"/>
      <point x="509" y="483" type="curve"/>
    </contour>
    <contour>
      <point x="299" y="-5" type="move" name="btm"/>
    </contour>
    <contour>
      <point x="328" y="963" type="move" name="top"/>
    </contour>
  </outline>
</glyph>
<glyph name="franc" format="1">
  <advance width="575"/>
  <unicode hex="20A3"/>
  <outline>
    <contour>
      <point x="171" y="612" type="line" name="hr00"/>
      <point x="357" y="612" type="line" smooth="yes"/>
      <point x="424" y="612"/>
      <point x="450" y="586"/>
      <point x="464" y="542" type="curve"/>
      <point x="490" y="547"/>
      <point x="532" y="564"/>
      <point x="549" y="580" type="curve"/>
      <point x="549" y="613"/>
      <point x="539" y="682"/>
      <point x="522" y="714" type="curve"/>
      <point x="497" y="714"/>
      <point x="471" y="708"/>
      <point x="446" y="697" type="curve"/>
      <point x="64" y="697" type="line"/>
      <point x="50" y="681"/>
      <point x="41" y="658"/>
      <point x="41" y="634" type="curve"/>
      <point x="84" y="634"/>
      <point x="105" y="621"/>
      <point x="105" y="584" type="curve" smooth="yes"/>
      <point x="105" y="114" type="line" smooth="yes"/>
      <point x="105" y="77"/>
      <point x="91" y="64"/>
      <point x="37" y="64" type="curve"/>
      <point x="37" y="40"/>
      <point x="45" y="16"/>
      <point x="60" y="0" type="curve"/>
      <point x="377" y="0" type="line"/>
      <point x="391" y="16"/>
      <point x="395" y="44"/>
      <point x="395" y="68" type="curve"/>
      <point x="367" y="68"/>
      <point x="347" y="68"/>
      <point x="335" y="68" type="curve" smooth="yes"/>
      <point x="279" y="68"/>
      <point x="262" y="90"/>
      <point x="262" y="127" type="curve" smooth="yes"/>
      <point x="262" y="356" type="line"/>
      <point x="227" y="334" type="line"/>
      <point x="352" y="334" type="line" smooth="yes"/>
      <point x="389" y="334"/>
      <point x="403" y="318"/>
      <point x="403" y="264" type="curve"/>
      <point x="433" y="264"/>
      <point x="463" y="272"/>
      <point x="484" y="286" type="curve"/>
      <point x="483" y="459" type="line"/>
      <point x="462" y="473"/>
      <point x="432" y="481"/>
      <point x="403" y="481" type="curve"/>
      <point x="403" y="427"/>
      <point x="389" y="409"/>
      <point x="351" y="409" type="curve" smooth="yes"/>
      <point x="228" y="409" type="line"/>
      <point x="262" y="379" type="line"/>
      <point x="262" y="663" type="line"/>
    </contour>
    <contour>
      <point x="354" y="159" type="line"/>
      <point x="372" y="177"/>
      <point x="373" y="201"/>
      <point x="373" y="227" type="curve"/>
      <point x="20" y="227" type="line"/>
      <point x="20" y="159" type="line"/>
    </contour>
    <contour>
      <point x="291" y="0" type="move" name="btm"/>
    </contour>
    <contour>
      <point x="291" y="975" type="move" name="top"/>
    </contour>
  </outline>
</glyph>
<glyph name="naira" format="1">
  <advance width="708"/>
  <unicode hex="20A6"/>
  <outline>
    <contour>
      <point x="692" y="329" type="line"/>
      <point x="710" y="347"/>
      <point x="711" y="371"/>
      <point x="711" y="397" type="curve"/>
      <point x="6" y="397" type="line"/>
      <point x="6" y="329" type="line"/>
    </contour>
    <contour>
      <point x="165" y="546" type="line" name="hr00"/>
      <point x="485" y="50" type="line"/>
      <point x="510" y="13"/>
      <point x="532" y="-12"/>
      <point x="601" y="-13" type="curve"/>
      <point x="635" y="-13" type="line"/>
      <point x="635" y="584" type="line" smooth="yes"/>
      <point x="635" y="621"/>
      <point x="654" y="635"/>
      <point x="698" y="635" type="curve"/>
      <point x="698" y="658"/>
      <point x="689" y="682"/>
      <point x="675" y="698" type="curve"/>
      <point x="476" y="698" type="line"/>
      <point x="461" y="682"/>
      <point x="453" y="658"/>
      <point x="453" y="635" type="curve"/>
      <point x="498" y="635"/>
      <point x="516" y="621"/>
      <point x="516" y="584" type="curve" smooth="yes"/>
      <point x="516" y="397" type="line"/>
      <point x="536" y="177" type="line"/>
      <point x="549" y="187" type="line"/>
      <point x="291" y="613" type="line"/>
      <point x="257" y="665"/>
      <point x="213" y="698"/>
      <point x="170" y="698" type="curve" smooth="yes"/>
      <point x="48" y="698" type="line"/>
      <point x="34" y="682"/>
      <point x="26" y="658"/>
      <point x="26" y="635" type="curve"/>
      <point x="71" y="635"/>
      <point x="88" y="621"/>
      <point x="88" y="584" type="curve" smooth="yes"/>
      <point x="88" y="101" type="line" smooth="yes"/>
      <point x="88" y="64"/>
      <point x="71" y="50"/>
      <point x="26" y="50" type="curve"/>
      <point x="26" y="27"/>
      <point x="34" y="4"/>
      <point x="48" y="-13" type="curve"/>
      <point x="239" y="-13" type="line"/>
      <point x="253" y="4"/>
      <point x="262" y="27"/>
      <point x="262" y="50" type="curve"/>
      <point x="217" y="50"/>
      <point x="199" y="64"/>
      <point x="199" y="101" type="curve" smooth="yes"/>
      <point x="199" y="329" type="line"/>
      <point x="179" y="557" type="line" name="hr00"/>
    </contour>
    <contour>
      <point x="359" y="-9" type="move" name="btm"/>
    </contour>
    <contour>
      <point x="362" y="963" type="move" name="top"/>
    </contour>
  </outline>
</glyph>
<glyph name="won" format="1">
  <advance width="1090"/>
  <unicode hex="20A9"/>
  <outline>
    <contour>
      <point x="1030" y="389" type="line"/>
      <point x="1048" y="407"/>
      <point x="1049" y="431"/>
      <point x="1049" y="457" type="curve"/>
      <point x="36" y="457" type="line"/>
      <point x="36" y="389" type="line"/>
    </contour>
    <component base="W" xOffset="30"/>
  </outline>
</glyph>
<glyph name="euro" format="1">
  <advance width="723"/>
  <unicode hex="20AC"/>
  <outline>
    <contour>
      <point x="458" y="657" type="curve" name="hr00" smooth="yes"/>
      <point x="496" y="657"/>
      <point x="520" y="643"/>
      <point x="544" y="621" type="curve"/>
      <point x="518" y="611"/>
      <point x="502" y="589"/>
      <point x="502" y="557" type="curve" smooth="yes"/>
      <point x="502" y="521"/>
      <point x="529" y="484"/>
      <point x="583" y="484" type="curve" smooth="yes"/>
      <point x="649" y="484"/>
      <point x="664" y="539"/>
      <point x="664" y="574" type="curve" smooth="yes"/>
      <point x="664" y="649"/>
      <point x="581" y="728"/>
      <point x="440" y="728" type="curve" smooth="yes"/>
      <point x="271" y="728"/>
      <point x="131" y="614"/>
      <point x="131" y="369" type="curve" smooth="yes"/>
      <point x="131" y="135"/>
      <point x="260" y="5"/>
      <point x="438" y="5" type="curve" smooth="yes"/>
      <point x="566" y="5"/>
      <point x="642" y="74"/>
      <point x="642" y="121" type="curve" smooth="yes"/>
      <point x="642" y="140"/>
      <point x="631" y="165"/>
      <point x="615" y="176" type="curve"/>
      <point x="599" y="151"/>
      <point x="555" y="123"/>
      <point x="490" y="123" type="curve" smooth="yes"/>
      <point x="393" y="123"/>
      <point x="302" y="188"/>
      <point x="302" y="398" type="curve" smooth="yes"/>
      <point x="302" y="576"/>
      <point x="367" y="657"/>
    </contour>
    <contour>
      <point x="462" y="402" type="line"/>
      <point x="480" y="420"/>
      <point x="488" y="443"/>
      <point x="488" y="470" type="curve"/>
      <point x="66" y="470" type="line"/>
      <point x="66" y="402" type="line"/>
    </contour>
    <contour>
      <point x="443" y="256" type="line"/>
      <point x="461" y="274"/>
      <point x="469" y="298"/>
      <point x="469" y="324" type="curve"/>
      <point x="58" y="324" type="line"/>
      <point x="58" y="256" type="line"/>
    </contour>
  </outline>
</glyph>
<glyph name="guarani" format="1">
  <advance width="684"/>
  <unicode hex="20B2"/>
  <outline>
    <contour>
      <point x="395" y="776" type="line"/>
      <point x="383" y="782"/>
      <point x="366" y="785"/>
      <point x="350" y="785" type="curve" smooth="yes"/>
      <point x="340" y="785"/>
      <point x="330" y="784"/>
      <point x="322" y="780" type="curve"/>
      <point x="322" y="-83" type="line" name="hr04"/>
      <point x="334" y="-88"/>
      <point x="352" y="-91"/>
      <point x="367" y="-91" type="curve" smooth="yes"/>
      <point x="378" y="-91"/>
      <point x="388" y="-90"/>
      <point x="395" y="-87" type="curve" name="hr05"/>
    </contour>
    <component base="G" xOffset="10"/>
  </outline>
</glyph>
<glyph name="cedi" format="1">
  <advance width="582"/>
  <unicode hex="20B5"/>
  <outline>
    <contour>
      <point x="385" y="776" type="line"/>
      <point x="373" y="782"/>
      <point x="356" y="785"/>
      <point x="340" y="785" type="curve" smooth="yes"/>
      <point x="330" y="785"/>
      <point x="320" y="784"/>
      <point x="312" y="780" type="curve"/>
      <point x="312" y="-83" type="line" name="hr04"/>
      <point x="324" y="-88"/>
      <point x="342" y="-91"/>
      <point x="357" y="-91" type="curve" smooth="yes"/>
      <point x="368" y="-91"/>
      <point x="378" y="-90"/>
      <point x="385" y="-87" type="curve" name="hr05"/>
    </contour>
    <component base="C" xOffset="10"/>
  </outline>
</glyph>
<glyph name="rupeeIndian" format="1">
  <advance width="573"/>
  <unicode hex="20B9"/>
  <outline>
    <contour>
      <point x="451" y="449" type="curve"/>
      <point x="539" y="449" type="line"/>
      <point x="557" y="467"/>
      <point x="558" y="491"/>
      <point x="558" y="517" type="curve"/>
      <point x="451" y="517" type="line"/>
      <point x="439" y="611"/>
      <point x="377" y="701"/>
      <point x="192" y="701" type="curve" smooth="yes"/>
      <point x="138" y="701"/>
      <point x="92" y="698"/>
      <point x="40" y="698" type="curve"/>
      <point x="40" y="621" type="line"/>
      <point x="162" y="621" type="line" smooth="yes"/>
      <point x="233" y="621"/>
      <point x="273" y="578"/>
      <point x="286" y="517" type="curve"/>
      <point x="40" y="517" type="line"/>
      <point x="40" y="449" type="line"/>
      <point x="290" y="449" type="line"/>
      <point x="283" y="379"/>
      <point x="244" y="325"/>
      <point x="157" y="325" type="curve"/>
      <point x="40" y="325" type="line"/>
      <point x="40" y="254" type="line"/>
      <point x="151" y="254" type="line"/>
      <point x="279" y="206"/>
      <point x="209" y="-23"/>
      <point x="425" y="-23" type="curve" smooth="yes"/>
      <point x="478" y="-23"/>
      <point x="496" y="-7"/>
      <point x="518" y="18" type="curve"/>
      <point x="518" y="56" type="line"/>
      <point x="446" y="72"/>
      <point x="453" y="148"/>
      <point x="380" y="223" type="curve" smooth="yes"/>
      <point x="353" y="251"/>
      <point x="331" y="269"/>
      <point x="295" y="275" type="curve"/>
      <point x="390" y="299"/>
      <point x="441" y="367"/>
    </contour>
    <contour>
      <point x="204" y="-114" type="move" name="btm"/>
    </contour>
    <contour>
      <point x="167" y="494" type="move" name="top"/>
    </contour>
  </outline>
</glyph>
<glyph name="manat" format="1">
  <advance width="790"/>
  <unicode hex="20BC"/>
  <outline>
    <contour>
      <point x="110" y="114" type="line" name="hr00" smooth="yes"/>
      <point x="110" y="77"/>
      <point x="91" y="63"/>
      <point x="40" y="63" type="curve"/>
      <point x="40" y="40"/>
      <point x="48" y="16"/>
      <point x="62" y="0" type="curve"/>
      <point x="253" y="0" type="line"/>
      <point x="253" y="417" type="line" smooth="yes"/>
      <point x="253" y="495"/>
      <point x="323" y="550"/>
      <point x="403" y="550" type="curve" smooth="yes"/>
      <point x="479" y="550"/>
      <point x="542" y="507"/>
      <point x="542" y="392" type="curve" smooth="yes"/>
      <point x="542" y="0" type="line"/>
      <point x="727" y="0" type="line"/>
      <point x="741" y="16"/>
      <point x="750" y="40"/>
      <point x="750" y="63" type="curve"/>
      <point x="705" y="63"/>
      <point x="688" y="77"/>
      <point x="688" y="114" type="curve" smooth="yes"/>
      <point x="688" y="351" type="line" smooth="yes"/>
      <point x="688" y="532"/>
      <point x="569" y="627"/>
      <point x="398" y="627" type="curve" smooth="yes"/>
      <point x="223" y="627"/>
      <point x="110" y="534"/>
      <point x="110" y="351" type="curve" smooth="yes"/>
    </contour>
    <contour>
      <point x="446" y="735" type="line" name="hr00"/>
      <point x="433" y="740"/>
      <point x="414" y="744"/>
      <point x="397" y="744" type="curve" smooth="yes"/>
      <point x="385" y="744"/>
      <point x="361" y="742"/>
      <point x="353" y="738" type="curve"/>
      <point x="353" y="8" type="line"/>
      <point x="366" y="3"/>
      <point x="397" y="0"/>
      <point x="414" y="0" type="curve" smooth="yes"/>
      <point x="426" y="0"/>
      <point x="438" y="1"/>
      <point x="446" y="5" type="curve"/>
    </contour>
    <contour>
      <point x="388" y="-436" type="move" name="bottom"/>
    </contour>
  </outline>
</glyph>
<glyph name="literSign" format="1">
  <advance width="521"/>
  <unicode hex="2113"/>
  <outline>
    <contour>
      <point x="304" y="89" type="curve" smooth="yes"/>
      <point x="286" y="89"/>
      <point x="267" y="97"/>
      <point x="251" y="122" type="curve"/>
      <point x="380" y="269"/>
      <point x="476" y="441"/>
      <point x="476" y="605" type="curve" smooth="yes"/>
      <point x="476" y="727"/>
      <point x="415" y="774"/>
      <point x="367" y="774" type="curve" smooth="yes"/>
      <point x="227" y="774"/>
      <point x="121" y="557"/>
      <point x="121" y="293" type="curve" smooth="yes"/>
      <point x="121" y="237"/>
      <point x="126" y="191"/>
      <point x="138" y="146" type="curve"/>
      <point x="111" y="122"/>
      <point x="82" y="100"/>
      <point x="41" y="72" type="curve"/>
      <point x="106" y="15" type="line"/>
      <point x="126" y="27"/>
      <point x="151" y="46"/>
      <point x="171" y="61" type="curve"/>
      <point x="180" y="27"/>
      <point x="219" y="-10"/>
      <point x="277" y="-10" type="curve" smooth="yes"/>
      <point x="388" y="-10"/>
      <point x="444" y="123"/>
      <point x="463" y="205" type="curve"/>
      <point x="406" y="222" type="line"/>
      <point x="396" y="176"/>
      <point x="361" y="89"/>
    </contour>
    <contour>
      <point x="310" y="690" type="curve" smooth="yes"/>
      <point x="322" y="690"/>
      <point x="331" y="665"/>
      <point x="331" y="633" type="curve" smooth="yes"/>
      <point x="331" y="517"/>
      <point x="288" y="321"/>
      <point x="219" y="235" type="curve"/>
      <point x="216" y="262"/>
      <point x="214" y="294"/>
      <point x="214" y="331" type="curve" smooth="yes"/>
      <point x="214" y="524"/>
      <point x="258" y="690"/>
    </contour>
  </outline>
</glyph>
<glyph name="trademark" format="1">
  <advance width="832"/>
  <unicode hex="2122"/>
  <outline>
    <contour>
      <point x="91" y="737" type="line" name="hr01"/>
      <point x="79" y="741"/>
      <point x="65" y="744"/>
      <point x="52" y="744" type="curve" name="hr02"/>
      <point x="41" y="717"/>
      <point x="38" y="648"/>
      <point x="38" y="619" type="curve" name="hr03"/>
      <point x="47" y="616"/>
      <point x="65" y="612"/>
      <point x="77" y="611" type="curve"/>
      <point x="88" y="674"/>
      <point x="105" y="686"/>
      <point x="144" y="686" type="curve" name="hr04" smooth="yes"/>
      <point x="214" y="686" type="line"/>
      <point x="212" y="737" type="line"/>
    </contour>
    <contour>
      <point x="273" y="421" type="line"/>
      <point x="279" y="432"/>
      <point x="283" y="446"/>
      <point x="283" y="461" type="curve"/>
      <point x="261" y="461"/>
      <point x="246" y="467"/>
      <point x="246" y="484" type="curve" smooth="yes"/>
      <point x="246" y="709" type="line" name="hr05"/>
      <point x="142" y="709" type="line" name="hr06"/>
      <point x="142" y="484" type="line" smooth="yes"/>
      <point x="142" y="467"/>
      <point x="127" y="461"/>
      <point x="104" y="461" type="curve"/>
      <point x="104" y="446"/>
      <point x="108" y="432"/>
      <point x="114" y="421" type="curve"/>
    </contour>
    <contour>
      <point x="658" y="736" type="line" name="hr07"/>
      <point x="590" y="551" type="line"/>
      <point x="529" y="706" type="line" smooth="yes"/>
      <point x="519" y="732"/>
      <point x="501" y="736"/>
      <point x="474" y="736" type="curve" smooth="yes"/>
      <point x="389" y="736" type="line"/>
      <point x="385" y="724"/>
      <point x="383" y="710"/>
      <point x="383" y="693" type="curve" name="hr08"/>
      <point x="403" y="693"/>
      <point x="411" y="687"/>
      <point x="411" y="670" type="curve" smooth="yes"/>
      <point x="411" y="484" type="line" smooth="yes"/>
      <point x="411" y="467"/>
      <point x="402" y="461"/>
      <point x="379" y="461" type="curve"/>
      <point x="379" y="446"/>
      <point x="383" y="432"/>
      <point x="389" y="421" type="curve"/>
      <point x="491" y="421" type="line"/>
      <point x="497" y="432"/>
      <point x="501" y="446"/>
      <point x="501" y="461" type="curve"/>
      <point x="478" y="461"/>
      <point x="469" y="467"/>
      <point x="469" y="484" type="curve" smooth="yes"/>
      <point x="469" y="595" type="line"/>
      <point x="544" y="421" type="line"/>
      <point x="576" y="421"/>
      <point x="596" y="433"/>
      <point x="607" y="461" type="curve" smooth="yes"/>
      <point x="659" y="595" type="line"/>
      <point x="659" y="484" type="line" smooth="yes"/>
      <point x="659" y="467"/>
      <point x="650" y="461"/>
      <point x="628" y="461" type="curve"/>
      <point x="628" y="446"/>
      <point x="631" y="432"/>
      <point x="637" y="421" type="curve"/>
      <point x="784" y="421" type="line"/>
      <point x="790" y="432"/>
      <point x="794" y="446"/>
      <point x="794" y="461" type="curve"/>
      <point x="772" y="461"/>
      <point x="763" y="467"/>
      <point x="763" y="484" type="curve" smooth="yes"/>
      <point x="763" y="670" type="line" smooth="yes"/>
      <point x="763" y="687"/>
      <point x="772" y="693"/>
      <point x="794" y="693" type="curve"/>
      <point x="794" y="710"/>
      <point x="790" y="724"/>
      <point x="784" y="736" type="curve" name="hr09"/>
    </contour>
    <contour>
      <point x="176" y="737" type="line" name="hr10"/>
      <point x="174" y="686" type="line"/>
      <point x="244" y="686" type="line" smooth="yes"/>
      <point x="282" y="686"/>
      <point x="300" y="674"/>
      <point x="311" y="611" type="curve"/>
      <point x="323" y="612"/>
      <point x="341" y="616"/>
      <point x="351" y="619" type="curve" name="hr11"/>
      <point x="351" y="648"/>
      <point x="347" y="717"/>
      <point x="336" y="744" type="curve" name="hr12"/>
      <point x="324" y="744"/>
      <point x="309" y="741"/>
      <point x="297" y="737" type="curve" name="hr13"/>
    </contour>
  </outline>
</glyph>
<glyph name="estimated" format="1">
  <advance width="732"/>
  <unicode hex="212E"/>
  <outline>
    <contour>
      <point x="702" y="283" type="line"/>
      <point x="707" y="306"/>
      <point x="707" y="339"/>
      <point x="707" y="379" type="curve" smooth="yes"/>
      <point x="706" y="532"/>
      <point x="576" y="624"/>
      <point x="384" y="624" type="curve" smooth="yes"/>
      <point x="132" y="624"/>
      <point x="26" y="487"/>
      <point x="26" y="304" type="curve" smooth="yes"/>
      <point x="26" y="116"/>
      <point x="156" y="-13"/>
      <point x="388" y="-13" type="curve" smooth="yes"/>
      <point x="522" y="-13"/>
      <point x="578" y="16"/>
      <point x="621" y="45" type="curve"/>
      <point x="581" y="123" type="line"/>
      <point x="549" y="95"/>
      <point x="515" y="67"/>
      <point x="393" y="67" type="curve" smooth="yes"/>
      <point x="355" y="67"/>
      <point x="322" y="74"/>
      <point x="295" y="95" type="curve"/>
      <point x="295" y="283" type="line"/>
    </contour>
    <contour>
      <point x="377" y="567" type="curve" smooth="yes"/>
      <point x="404" y="567"/>
      <point x="432" y="560"/>
      <point x="448" y="549" type="curve"/>
      <point x="448" y="343" type="line"/>
      <point x="295" y="343" type="line"/>
      <point x="295" y="545" type="line"/>
      <point x="323" y="562"/>
      <point x="352" y="567"/>
    </contour>
  </outline>
</glyph>
<glyph name="upArrow" format="1">
  <advance width="776"/>
  <unicode hex="2191"/>
  <outline>
    <contour>
      <point x="331" y="-9" type="line"/>
      <point x="446" y="-9" type="line"/>
      <point x="446" y="436" type="line"/>
      <point x="439" y="510" type="line"/>
      <point x="637" y="315" type="line"/>
      <point x="717" y="382" type="line"/>
      <point x="388" y="712" type="line"/>
      <point x="60" y="382" type="line"/>
      <point x="140" y="315" type="line"/>
      <point x="338" y="510" type="line"/>
      <point x="331" y="436" type="line"/>
    </contour>
  </outline>
</glyph>
<glyph name="rightArrow" format="1">
  <advance width="769"/>
  <unicode hex="2192"/>
  <outline>
    <contour>
      <point x="28" y="409" type="line"/>
      <point x="28" y="294" type="line"/>
      <point x="473" y="294" type="line"/>
      <point x="547" y="301" type="line"/>
      <point x="352" y="103" type="line"/>
      <point x="419" y="23" type="line"/>
      <point x="749" y="352" type="line"/>
      <point x="419" y="680" type="line"/>
      <point x="352" y="600" type="line"/>
      <point x="547" y="402" type="line"/>
      <point x="473" y="409" type="line"/>
    </contour>
  </outline>
</glyph>
<glyph name="downArrow" format="1">
  <advance width="741"/>
  <unicode hex="2193"/>
  <outline>
    <contour>
      <point x="331" y="712" type="line"/>
      <point x="331" y="267" type="line"/>
      <point x="338" y="193" type="line"/>
      <point x="140" y="388" type="line"/>
      <point x="60" y="321" type="line"/>
      <point x="388" y="-9" type="line"/>
      <point x="717" y="321" type="line"/>
      <point x="637" y="388" type="line"/>
      <point x="439" y="193" type="line"/>
      <point x="446" y="267" type="line"/>
      <point x="446" y="712" type="line"/>
    </contour>
  </outline>
</glyph>
<glyph name="northWestArrow" format="1">
  <advance width="660"/>
  <unicode hex="2196"/>
  <outline>
    <contour>
      <point x="630" y="168" type="line"/>
      <point x="315" y="482" type="line"/>
      <point x="258" y="530" type="line"/>
      <point x="536" y="530" type="line"/>
      <point x="545" y="637" type="line"/>
      <point x="80" y="637" type="line"/>
      <point x="80" y="171" type="line"/>
      <point x="187" y="180" type="line"/>
      <point x="187" y="458" type="line"/>
      <point x="234" y="401" type="line"/>
      <point x="549" y="86" type="line"/>
    </contour>
  </outline>
</glyph>
<glyph name="northEastArrow" format="1">
  <advance width="660"/>
  <unicode hex="2197"/>
  <outline>
    <contour>
      <point x="30" y="168" type="line"/>
      <point x="111" y="86" type="line"/>
      <point x="426" y="401" type="line"/>
      <point x="473" y="458" type="line"/>
      <point x="473" y="180" type="line"/>
      <point x="580" y="171" type="line"/>
      <point x="580" y="637" type="line"/>
      <point x="115" y="637" type="line"/>
      <point x="124" y="530" type="line"/>
      <point x="402" y="530" type="line"/>
      <point x="345" y="482" type="line"/>
    </contour>
  </outline>
</glyph>
<glyph name="minus" format="1">
  <advance width="629"/>
  <unicode hex="2212"/>
  <outline>
    <contour>
      <point x="60" y="381" type="line" name="hr00"/>
      <point x="53" y="369"/>
      <point x="50" y="346"/>
      <point x="50" y="322" type="curve" smooth="yes"/>
      <point x="50" y="303"/>
      <point x="52" y="281"/>
      <point x="58" y="267" type="curve"/>
      <point x="571" y="267" type="line"/>
      <point x="577" y="279"/>
      <point x="579" y="300"/>
      <point x="579" y="322" type="curve" smooth="yes"/>
      <point x="579" y="344"/>
      <point x="577" y="367"/>
      <point x="571" y="381" type="curve"/>
    </contour>
  </outline>
</glyph>
<glyph name="notequal" format="1">
  <advance width="629"/>
  <unicode hex="2260"/>
  <outline>
    <contour>
      <point x="133" y="68" type="line"/>
      <point x="150" y="48"/>
      <point x="190" y="32"/>
      <point x="212" y="31" type="curve"/>
      <point x="451" y="626" type="line"/>
      <point x="435" y="646"/>
      <point x="395" y="662"/>
      <point x="373" y="663" type="curve"/>
    </contour>
    <component base="equal" yOffset="-6"/>
  </outline>
</glyph>
<glyph name="lessequal" format="1">
  <advance width="629"/>
  <unicode hex="2264"/>
  <outline>
    <contour>
      <point x="99" y="495" type="line" name="hr00"/>
      <point x="99" y="442" type="line"/>
      <point x="472" y="160" type="line"/>
      <point x="501" y="172"/>
      <point x="530" y="222"/>
      <point x="540" y="250" type="curve"/>
      <point x="251" y="469" type="line"/>
      <point x="540" y="679" type="line"/>
      <point x="530" y="708"/>
      <point x="501" y="758"/>
      <point x="472" y="769" type="curve"/>
    </contour>
    <component base="minus" yOffset="-267"/>
  </outline>
</glyph>
<glyph name="greaterequal" format="1">
  <advance width="629"/>
  <unicode hex="2265"/>
  <outline>
    <contour>
      <point x="540" y="495" type="line" name="hr00"/>
      <point x="167" y="769" type="line"/>
      <point x="138" y="758"/>
      <point x="109" y="708"/>
      <point x="99" y="679" type="curve"/>
      <point x="388" y="469" type="line"/>
      <point x="99" y="250" type="line"/>
      <point x="109" y="222"/>
      <point x="138" y="172"/>
      <point x="167" y="160" type="curve"/>
      <point x="540" y="442" type="line"/>
    </contour>
    <component base="minus" yOffset="-267"/>
  </outline>
</glyph>
<glyph name="lozenge" format="1">
  <advance width="570"/>
  <unicode hex="25CA"/>
  <outline>
    <contour>
      <point x="246" y="0" type="line" name="hr00"/>
      <point x="324" y="0" type="line"/>
      <point x="521" y="338" type="line"/>
      <point x="324" y="698" type="line"/>
      <point x="246" y="698" type="line"/>
      <point x="50" y="338" type="line"/>
    </contour>
    <contour>
      <point x="284" y="97" type="line"/>
      <point x="153" y="342" type="line"/>
      <point x="284" y="590" type="line"/>
      <point x="416" y="342" type="line"/>
    </contour>
  </outline>
</glyph>
<glyph name="commaaccent" format="1">
  <advance width="236"/>
  <unicode hex="F6C3"/>
  <outline>
    <contour>
      <point x="98" y="-345" type="curve" name="hr00"/>
      <point x="186" y="-314"/>
      <point x="206" y="-228"/>
      <point x="206" y="-185" type="curve" smooth="yes"/>
      <point x="206" y="-106"/>
      <point x="164" y="-73"/>
      <point x="111" y="-73" type="curve" smooth="yes"/>
      <point x="63" y="-73"/>
      <point x="30" y="-104"/>
      <point x="30" y="-153" type="curve" smooth="yes"/>
      <point x="30" y="-192"/>
      <point x="56" y="-229"/>
      <point x="106" y="-229" type="curve" smooth="yes"/>
      <point x="110" y="-229"/>
      <point x="114" y="-228"/>
      <point x="118" y="-227" type="curve"/>
      <point x="119" y="-231"/>
      <point x="120" y="-235"/>
      <point x="120" y="-238" type="curve" smooth="yes"/>
      <point x="120" y="-270"/>
      <point x="101" y="-291"/>
      <point x="72" y="-307" type="curve"/>
      <point x="72" y="-324"/>
      <point x="85" y="-341"/>
    </contour>
    <contour>
      <point x="176" y="-81" type="move" name="_btm"/>
    </contour>
  </outline>
</glyph>
<glyph name="f_f" format="1">
  <advance width="724"/>
  <unicode hex="FB00"/>
  <outline>
    <contour>
      <point x="248" y="450" type="line" name="hr00"/>
      <point x="448" y="450" type="line"/>
      <point x="448" y="109" type="line" smooth="yes"/>
      <point x="448" y="70"/>
      <point x="433" y="54"/>
      <point x="393" y="54" type="curve"/>
      <point x="393" y="33"/>
      <point x="402" y="16"/>
      <point x="416" y="0" type="curve"/>
      <point x="690" y="0" type="line"/>
      <point x="704" y="16"/>
      <point x="714" y="33"/>
      <point x="714" y="54" type="curve"/>
      <point x="634" y="54"/>
      <point x="611" y="73"/>
      <point x="611" y="118" type="curve" smooth="yes"/>
      <point x="611" y="450" type="line"/>
      <point x="714" y="450" type="line"/>
      <point x="730" y="473"/>
      <point x="731" y="510"/>
      <point x="731" y="540" type="curve"/>
      <point x="617" y="540" type="line" smooth="yes"/>
      <point x="571" y="540"/>
      <point x="570" y="591"/>
      <point x="570" y="651" type="curve" smooth="yes"/>
      <point x="570" y="708"/>
      <point x="602" y="751"/>
      <point x="629" y="751" type="curve" smooth="yes"/>
      <point x="636" y="751"/>
      <point x="640" y="749"/>
      <point x="647" y="745" type="curve"/>
      <point x="632" y="734"/>
      <point x="626" y="713"/>
      <point x="626" y="696" type="curve" smooth="yes"/>
      <point x="626" y="655"/>
      <point x="668" y="633"/>
      <point x="706" y="633" type="curve" smooth="yes"/>
      <point x="753" y="633"/>
      <point x="785" y="673"/>
      <point x="785" y="724" type="curve" smooth="yes"/>
      <point x="785" y="777"/>
      <point x="736" y="822"/>
      <point x="649" y="822" type="curve" smooth="yes"/>
      <point x="530" y="822"/>
      <point x="437" y="729"/>
      <point x="437" y="602" type="curve" smooth="yes"/>
      <point x="437" y="585"/>
      <point x="439" y="557"/>
      <point x="442" y="540" type="curve"/>
      <point x="257" y="540" type="line" smooth="yes"/>
      <point x="211" y="540"/>
      <point x="201" y="578"/>
      <point x="201" y="641" type="curve" smooth="yes"/>
      <point x="201" y="700"/>
      <point x="239" y="744"/>
      <point x="269" y="744" type="curve" smooth="yes"/>
      <point x="277" y="744"/>
      <point x="280" y="742"/>
      <point x="287" y="737" type="curve"/>
      <point x="273" y="727"/>
      <point x="267" y="706"/>
      <point x="267" y="688" type="curve" smooth="yes"/>
      <point x="267" y="648"/>
      <point x="307" y="622"/>
      <point x="346" y="622" type="curve" smooth="yes"/>
      <point x="394" y="622"/>
      <point x="422" y="660"/>
      <point x="422" y="712" type="curve" smooth="yes"/>
      <point x="422" y="764"/>
      <point x="377" y="811"/>
      <point x="290" y="811" type="curve" smooth="yes"/>
      <point x="165" y="811"/>
      <point x="77" y="749"/>
      <point x="77" y="595" type="curve" smooth="yes"/>
      <point x="77" y="587"/>
      <point x="78" y="555"/>
      <point x="82" y="537" type="curve"/>
      <point x="68" y="526"/>
      <point x="54" y="518"/>
      <point x="26" y="512" type="curve"/>
      <point x="26" y="450" type="line"/>
      <point x="87" y="450" type="line"/>
      <point x="87" y="109" type="line" smooth="yes"/>
      <point x="87" y="70"/>
      <point x="72" y="54"/>
      <point x="33" y="54" type="curve"/>
      <point x="33" y="33"/>
      <point x="41" y="16"/>
      <point x="56" y="0" type="curve"/>
      <point x="319" y="0" type="line"/>
      <point x="335" y="16"/>
      <point x="343" y="33"/>
      <point x="343" y="54" type="curve"/>
      <point x="263" y="54"/>
      <point x="248" y="73"/>
      <point x="248" y="118" type="curve" smooth="yes"/>
    </contour>
    <contour>
      <point x="198" y="0" type="move" name="btm"/>
    </contour>
    <contour>
      <point x="197" y="975" type="move" name="top"/>
    </contour>
  </outline>
</glyph>
<glyph name="braceright.case" format="1">
  <advance width="490"/>
  <outline>
    <contour>
      <point x="329" y="347" type="curve" name="hr00"/>
      <point x="247" y="314"/>
      <point x="205" y="265"/>
      <point x="205" y="193" type="curve" smooth="yes"/>
      <point x="205" y="70" type="line" smooth="yes"/>
      <point x="205" y="-37"/>
      <point x="162" y="-69"/>
      <point x="93" y="-69" type="curve" smooth="yes"/>
      <point x="57" y="-69" type="line"/>
      <point x="46" y="-90"/>
      <point x="41" y="-109"/>
      <point x="41" y="-132" type="curve"/>
      <point x="96" y="-132" type="line" smooth="yes"/>
      <point x="284" y="-132"/>
      <point x="370" y="-32"/>
      <point x="370" y="132" type="curve" smooth="yes"/>
      <point x="370" y="227" type="line" smooth="yes"/>
      <point x="370" y="282"/>
      <point x="409" y="322"/>
      <point x="446" y="322" type="curve"/>
      <point x="446" y="371" type="line"/>
      <point x="409" y="371"/>
      <point x="370" y="411"/>
      <point x="370" y="467" type="curve" smooth="yes"/>
      <point x="370" y="561" type="line" smooth="yes"/>
      <point x="370" y="725"/>
      <point x="284" y="825"/>
      <point x="96" y="825" type="curve" smooth="yes"/>
      <point x="41" y="825" type="line"/>
      <point x="41" y="802"/>
      <point x="46" y="783"/>
      <point x="57" y="763" type="curve"/>
      <point x="93" y="763" type="line" smooth="yes"/>
      <point x="162" y="763"/>
      <point x="205" y="730"/>
      <point x="205" y="623" type="curve" smooth="yes"/>
      <point x="205" y="500" type="line" smooth="yes"/>
      <point x="205" y="428"/>
      <point x="247" y="379"/>
    </contour>
  </outline>
</glyph>
<glyph name="brevebelowcomb.case" format="1">
  <advance width="0"/>
  <outline>
    <contour>
      <point x="-180" y="-71" type="curve"/>
      <point x="-180" y="-183"/>
      <point x="-111" y="-256"/>
      <point x="0" y="-256" type="curve" smooth="yes"/>
      <point x="110" y="-256"/>
      <point x="180" y="-183"/>
      <point x="180" y="-71" type="curve"/>
      <point x="177" y="-58"/>
      <point x="158" y="-51"/>
      <point x="138" y="-51" type="curve" smooth="yes"/>
      <point x="122" y="-51"/>
      <point x="99" y="-56"/>
      <point x="92" y="-67" type="curve"/>
      <point x="92" y="-112"/>
      <point x="57" y="-157"/>
      <point x="0" y="-157" type="curve" smooth="yes"/>
      <point x="-57" y="-157"/>
      <point x="-92" y="-112"/>
      <point x="-92" y="-67" type="curve"/>
      <point x="-99" y="-56"/>
      <point x="-121" y="-51"/>
      <point x="-138" y="-51" type="curve" smooth="yes"/>
      <point x="-157" y="-51"/>
      <point x="-176" y="-58"/>
    </contour>
    <contour>
      <point x="0" y="0" type="move" name="_btm"/>
    </contour>
  </outline>
</glyph>
<glyph name="breveinvertedcomb.case" format="1">
  <advance width="0"/>
  <outline>
    <contour>
      <point x="-180" y="637" type="curve"/>
      <point x="-176" y="624"/>
      <point x="-157" y="617"/>
      <point x="-138" y="617" type="curve" smooth="yes"/>
      <point x="-121" y="617"/>
      <point x="-99" y="622"/>
      <point x="-92" y="633" type="curve"/>
      <point x="-92" y="678"/>
      <point x="-57" y="723"/>
      <point x="0" y="723" type="curve" smooth="yes"/>
      <point x="57" y="723"/>
      <point x="92" y="678"/>
      <point x="92" y="633" type="curve"/>
      <point x="99" y="622"/>
      <point x="122" y="617"/>
      <point x="138" y="617" type="curve" smooth="yes"/>
      <point x="158" y="617"/>
      <point x="177" y="624"/>
      <point x="180" y="637" type="curve"/>
      <point x="180" y="749"/>
      <point x="110" y="822"/>
      <point x="0" y="822" type="curve" smooth="yes"/>
      <point x="-111" y="822"/>
      <point x="-180" y="749"/>
    </contour>
    <contour>
      <point x="0" y="822" type="move" name="_top"/>
    </contour>
    <contour>
      <point x="0" y="1046" type="move" name="top"/>
    </contour>
  </outline>
</glyph>
<glyph name="caronvertical" format="1">
  <advance width="178"/>
  <outline>
    <contour>
      <point x="-29" y="600" type="curve" name="hr00"/>
      <point x="-24" y="545"/>
      <point x="-23" y="505"/>
      <point x="-23" y="451" type="curve" smooth="yes"/>
      <point x="-23" y="410"/>
      <point x="-24" y="351"/>
      <point x="-24" y="319" type="curve"/>
      <point x="-13" y="310"/>
      <point x="-3" y="306"/>
      <point x="8" y="306" type="curve" smooth="yes"/>
      <point x="23" y="306"/>
      <point x="35" y="312"/>
      <point x="43" y="324" type="curve" smooth="yes"/>
      <point x="67" y="360"/>
      <point x="96" y="470"/>
      <point x="96" y="544" type="curve" smooth="yes"/>
      <point x="96" y="591"/>
      <point x="85" y="624"/>
      <point x="33" y="624" type="curve" smooth="yes"/>
      <point x="10" y="624"/>
      <point x="-10" y="619"/>
    </contour>
    <contour>
      <point x="0" y="571" type="move" name="_car"/>
    </contour>
  </outline>
</glyph>
